<?xml version="1.0" encoding="utf-8"?>
<!-- Generator: Adobe Illustrator 23.0.1, SVG Export Plug-In . SVG Version: 6.00 Build 0)  -->
<svg version="1.1" id="Layer_1" xmlns="http://www.w3.org/2000/svg" xmlns:xlink="http://www.w3.org/1999/xlink" x="0px" y="0px"
	 viewBox="0 0 114.3 318.5" style="enable-background:new 0 0 114.3 318.5;" xml:space="preserve">
<style type="text/css">
	.st0{fill:#569E3F;}
	.st1{fill:#663C12;}
</style>
<g>
	<path class="st0" d="M10.3,285.8c-0.4-0.1-1.4,0.8-2.2,2c-1.5,2.3-3.3,3.2-2.5,1.2c1-2.3-0.6-1-1.7,1.4c-0.9,1.9-1.6,2.5-3.1,2.4
		c-1.1-0.1-2.5,0.2-3.1,0.7c-0.8,0.6-1.2,0.5-1.5-0.1c-0.2-0.6-0.9-0.4-1.9,0.6c-2.1,1.9-3.2,1.8-2.7-0.2c0.2-1,0.1-1.4-0.3-0.9
		c-0.9,1.1-3.6,1.9-3.6,1.1s-4.5-0.5-6.9,0.4c-1.2,0.5-1.5,0.3-1.1-0.6c0.3-0.7,0.1-1.3-0.5-1.5c-0.7-0.3-0.8-0.6,0-1.3
		c1.9-1.8,1.1-2-2-0.6c-3.4,1.6-4.3,1.4-2.7-0.6c0.9-1.1,0.9-1.1,0-0.4c-0.6,0.5-1.6,0.7-2.2,0.5s-1.1-0.1-1.1,0.3s-0.5,1.3-1.1,2.1
		c-1,1.2-1.3,1.3-2.5,0.4c-1.2-0.9-1.5-0.8-2.7,0.7l-1.3,1.7l-0.7-1.8c-0.7-1.7-0.8-1.7-1.8-0.5c-1.3,1.6-1.9,1.6-3.5,0.2
		c-1-0.9-1.1-1.4-0.3-2.3c0.5-0.6,0.8-1.1,0.5-1.1s-0.1-0.8,0.4-1.7c0.8-1.4,0.5-1.3-1.8,0.6c-5.1,4.2-5.4,4.4-6.9,3.1
		c-0.7-0.7-1-1.6-0.7-2.1s-0.1-0.4-1,0.2c-4.3,3.2-8.7,3.8-5.7,0.8c1.3-1.4,1.3-1.5-0.8-1.9l-2.2-0.5l2.4-1.8c3.1-2.4,1.5-2.4-3,0
		c-2,1-4,1.9-4.6,1.9c-1.6,0-1.2-1.2,0.8-2.1c1.7-0.7,1.5-0.8-1.5-0.9c-1.8,0-4-0.5-4.9-1.2c-1.5-1-1.5-1.1,0.8-1.1
		c3.5,0,16-2.1,18.6-3.1c3.2-1.2,3.8-3,0.6-1.9c-2.8,1-4.1,0.2-2.1-1.2c1.2-0.8,0.8-0.9-2.3-0.7c-4,0.3-4.8-0.6-1.9-2
		c1.6-0.7,1.3-0.8-2.1-0.7c-4.7,0.2-6-1.2-2-2.1l2.7-0.6l-2.7-0.3c-3.1-0.3-3.4-1.1-0.8-2.3c1.5-0.7,0.9-0.8-3.5-0.5
		c-4.9,0.4-5.2,0.3-3.7-0.8c0.9-0.6,2.2-1.2,3-1.2c0.8,0,1.7-0.4,2-0.8c0.3-0.5-0.2-0.8-1.4-0.7c-3.4,0.3-5.6,0-5.6-0.7
		c0-0.4,2.6-0.9,5.7-1.2c3.2-0.3,5.6-0.8,5.3-1.1c-0.2-0.3-2.6-1.1-5.2-1.6c-5-1-8.2-2.6-7.2-3.5c0.5-0.5,5.1,0.2,11.1,1.7
		c1.9,0.5,1.8,0.3-0.7-1.7c-4.2-3.3-1.8-3.7,4.2-0.6c6.1,3.1,9.6,3.3,16.4,1.2c7.7-2.4,20.1-8.2,21-9.8c1.1-2,0.5-1.9-1.6,0.1
		c-0.9,0.9-1.7,1.4-1.7,1c0-0.3-0.6-0.2-1.2,0.3c-1,0.8-1.2,0.7-1.2-0.4s-0.4-1-2.6,0.8l-2.6,2.2l0.5-2.4c0.5-2.4,0.5-2.4-1.7-1.6
		c-1.2,0.5-2.8,1.3-3.4,1.7c-3.2,2.2-3.5,2.2-3-0.4c0.4-2,0.3-2.3-0.4-1.6c-1.4,1.3-4.8,1.2-4.8-0.2c0-1.4-1.3-1.5-2.2-0.1
		c-0.4,0.6-1.7,1.6-2.9,2.3c-1.9,1.1-2.2,1.1-2.2,0.2c0-0.6,0.7-1.7,1.6-2.4c0.9-0.7,1.6-1.7,1.6-2.1s-0.2-0.5-0.5-0.3
		c0.1,0.2-0.7-0.1-1.4-0.8c-0.9-0.8-2.2-1.1-4.3-0.8c-2.1,0.3-3.2,0.1-3.5-0.6c-0.3-0.8-1.1-0.8-3.1-0.3c-7.2,1.9-8.5-0.3-1.6-2.6
		c4.7-1.6,5.3-2.4,0.9-1.2c-5.6,1.5-12.9,0.4-9.8-1.5c0.7-0.4,2.9-0.8,4.9-0.8c3.1-0.1,3.3-0.2,1.3-0.6c-1.3-0.3-2.5-0.9-2.8-1.5
		c-0.3-0.9,1-1,7.9-0.5c8.2,0.5,8.3,0.5,7.3-1c-1.5-2.2-0.5-2.6,3.6-1.3c2.2,0.7,5,1,7.2,0.7c4.7-0.5,20.4-5.3,22.2-6.8
		c1.9-1.6,1.8-2.6-0.2-2c-0.9,0.3-1.6,0.1-1.6-0.3c0-0.8-1.2-0.6-5.3,1.1c-1.3,0.5-4.3,1-6.6,1s-4.5,0.1-4.9,0.2
		c-1.9,0.3-2.1-0.2-0.7-1.7c1-1.1,0.7-1-0.9,0.4c-2.8,2.4-3.6,2.5-3.6,0.9c0-1-0.3-1-2.1,0.1c-1.2,0.7-2.3,1-2.7,0.6
		c-0.3-0.4-1.6-1.1-3-1.7c-2.3-0.9-2.4-1-0.9-2c1.9-1.2,1.4-1.3-1.5-0.3c-1.6,0.6-2.1,0.5-2.1-0.2c0-0.6-2.1-1.4-5.3-2
		c-2.9-0.6-5.3-1.3-5.3-1.7c0-0.4-0.3-0.4-0.8-0.2c-0.4,0.3-1.5,0.1-2.2-0.3c-1.2-0.6-1.1-0.8,0.8-1.3c1.7-0.4,2.1-0.9,1.8-1.9
		c-0.3-1,0-1.4,1.4-1.6c1.3-0.2,0.4-0.7-3.2-1.8c-5.6-1.6-7-3.1-2.1-2.2c4.5,0.8,15.7,1,15.7,0.3c0-0.4-0.4-0.6-0.8-0.6
		c-0.5,0-0.8-0.3-0.8-0.8c0-0.4,1.7-0.7,3.9-0.7c5.4,0.1,13.9-1.5,14.5-2.8c0.3-0.7-0.2-1-1.6-1c-1.1,0-2-0.3-2-0.7
		c0-0.4-0.6-0.5-1.2-0.3c-0.7,0.2-1.2,0-1.2-0.4c0-0.6-0.6-0.5-1.8,0.3c-1,0.6-2.7,1.2-3.9,1.1h-2.1l1.9-1.5l1.9-1.4l-3.9-0.2
		l-4.1-0.6l2.9-1.3l2.9-1.3h-2.5c-1.6,0-3.2-0.7-4.4-1.9c-1.1-1-2.3-1.9-2.8-1.9c-0.5,0-1.4-0.7-1.9-1.5c-1.5-2.2,0.4-2.6,5.1-1.2
		c5.1,1.6,6.1,1.5,5.6-0.3s-0.4-1.8,4.8-0.3c3.9,1.2,4.3,1.1,10.6-0.5c8.4-2.2,10.6-4.3,4.1-3.9c-0.7,0-1.5-0.3-1.8-0.8
		c-0.4-0.6-1.1-0.5-2.2,0.5c-1.3,1.1-2.4,1.2-5,0.8c-3.7-0.6-3.9-0.9-1.9-2.4c1.5-1.1,0.9-1.1-2.6,0.2c-1.3,0.5-1.5,0.3-1-0.7
		c0.4-0.9,0.1-1.2-1.2-1.2c-1.1,0-1.6-0.4-1.3-1.1c0.2-0.6,0-1.2-0.5-1.5c-0.7-0.3-0.6-0.7,0.4-1.4c1.2-0.9,1.2-1.2-0.6-2.7
		c-2.9-2.6-2.4-3.2,1.9-1.9c10.7,3.2,14.7,3.4,17.3,0.8c1.5-1.5,1.6-1.9,0.6-2.2c-0.7-0.2-2.3-0.1-3.7,0.4c-3.5,1.2-4.2,0-1.3-2.2
		c2-1.5,2.2-1.8,0.8-1.7c-2.9,0.2-4.5-0.1-4.5-0.8c0-0.4,0.6-0.8,1.4-0.8c1.2,0,1.1-0.2-0.3-0.7c-0.9-0.4-1.9-1.2-2.2-1.8
		c-0.4-1-0.3-1.1,1.3-0.3c2.9,1.5,19.9,1.2,23.5-0.3c2.5-1.1,2.6-1.2,0.9-1.3c-1.5,0-1.9-0.4-1.5-1.6c0.4-1.4,0.3-1.5-0.9-0.5
		c-1.8,1.4-4.2,2.2-4.2,1.4c0-0.4-0.7-0.5-1.6-0.3c-0.9,0.2-1.6,0-1.6-0.4c0-0.5-0.9-0.8-2-0.8c-2.7,0-2.6-0.7,0.6-3.1l2.6-2
		l-4.4,0.6c-4.5,0.7-6.1,0.4-5.3-0.9c0.8-1.2-1.4-2.9-3.8-2.9c-2.8,0-3.2-1.2-0.5-1.8c1-0.2,0.6-0.3-1-0.3c-1.9,0.1-2.8-0.2-2.7-0.8
		c0.1-0.5-0.2-0.9-0.7-0.9c-0.6,0-0.6-0.4,0.1-1.2c0.7-0.7,1.8-1.1,3.2-0.8c1.2,0.2,1.6,0.2,1.1,0c-1.9-0.8-1.1-2,1-1.5
		c1.7,0.4,1.9,0.2,1.5-0.8c-0.4-0.9-0.2-1.1,0.6-0.6c0.6,0.3,2,0.7,3.2,0.8s3,0.4,4.1,0.7l2,0.5l-2.2-1.8c-2.6-2-3-3.2-0.7-2.1
		c2.3,1.1,4,1,2.7-0.1c-1.8-1.7-1.1-3,0.8-1.4c1,0.8,2.9,2,4.3,2.6c5,2.2,18.5-0.8,18.5-4.1c0-0.7,0.5-1.6,1-2.1
		c0.7-0.6,0.7-0.9,0.1-0.9c-0.5,0-1.1,0.5-1.4,1.1c-0.3,0.7-1.5,1.1-3.2,1c-1.5,0-3.5,0.2-4.5,0.5c-1.5,0.5-1.8,0.3-1.8-1v-1.5
		l-2.8,1.5c-2,1.1-3,1.3-3.4,0.7c-0.3-0.5-0.1-1.2,0.5-1.6c1-0.6-3.8-0.5-7.1,0.1c-0.5,0.1-1.7-0.1-2.7-0.4
		c-1.7-0.5-1.8-0.7-0.6-1.9c1.2-1.2,1.1-1.3-0.8-1.8c-2.4-0.5-2.8-2-0.7-2c0.9,0,0.5-0.4-1-1.1c-1.3-0.6-3.5-1.9-4.9-2.9l-2.4-1.8
		l3-0.5c1.7-0.3,3-0.8,3-1.2s1-0.5,2.2-0.2c2,0.4,2.1,0.4,1.2-0.6c-1.6-1.8,0.8-2.3,3.2-0.7c1.1,0.7,3.6,1.3,6,1.3
		c3.2,0,3.7-0.1,2.3-0.7c-1.6-0.7-1.7-1.3-1-4.1c0-0.1,1.3,0.5,2.8,1.3c1.5,0.9,4,1.6,5.5,1.6c5.1,0,13.9-3.1,19.4-6.9
		c2.1-1.5,1.7-1.8-0.8-0.5c-1.3,0.6-1.6,0.5-1.6-0.6c0-1.3-0.1-1.3-0.9,0c-0.5,0.7-1.2,1.1-1.6,0.9c-0.4-0.2-1.7,0.1-2.8,0.8
		c-2,1.2-2.1,1.2-2.1-0.9c0-1.2-0.3-1.8-0.6-1.3c-0.7,1-3.8,2.6-5,2.6c-0.5,0-0.9-0.8-1-1.7c-0.1-1.6-0.1-1.6-0.6,0.2
		c-0.3,1-0.7,1.7-0.9,1.6c-0.2-0.2-1.1,0.1-2.1,0.5c-1.4,0.7-1.9,0.6-2.8-0.6c-0.6-0.8-1.4-1.2-1.8-1c-0.4,0.2-0.4-0.5-0.2-1.6
		c0.5-1.9,0.4-1.9-1.7-1.2c-2.7,0.9-3.5,0.5-2-1.1c0.9-1,0.8-1.1-0.4-1.1c-1.4,0-1.4-0.1,0-1.4c0.8-0.8,1.1-1.6,0.6-1.9
		c-0.4-0.2-1.4,0.2-2.2,1c-1.2,1.3-2,1.4-5.2,0.8c-0.2,0,0.1-0.5,0.6-1.1c1.1-1.2,0.4-2-1.6-2c-0.8,0-2.3-0.7-3.3-1.5l-1.9-1.5
		l2.5-0.1c1.3-0.1,3.4-0.1,4.4,0c1.7,0.1,1.9,0,0.9-1c-1.8-2-0.5-2,2.6,0c3.4,2.1,5.5,2.5,3.9,0.7c-0.9-1-0.8-1.1,0.3-0.7
		c1.6,0.6,1.8-0.5,0.4-1.8c-2.1-1.9,0.1-1.6,2.7,0.4c5.1,3.9,5.7,4,11.4,2.4c6-1.7,10.1-3.8,11.3-5.8c0.7-1.3,0.6-1.5-1.2-1.4
		c-1.1,0.1-2.2,0.6-2.4,1.3c-0.2,0.6-1.2,1.2-2.1,1.3c-1.4,0.1-1.6-0.2-1.3-1.5c0.4-1.4,0.2-1.4-1.5,0.4c-1,1.1-2.7,2-3.7,2
		c-1.6,0-1.8-0.3-1.4-2.2c0.6-2.8-1.3-3.6-3.3-1.3c-1.4,1.6-6,2.7-6,1.4c0-0.3,1.2-1.5,2.7-2.6c2-1.6,2.3-2.1,1.2-2.1
		c-0.8,0-1.7,0.5-1.9,1.1c-0.3,0.6-0.8,1-1.2,0.8s-0.9,0-1.2,0.4s-1.5,0.8-2.7,0.8c-2.1,0-2.1-0.1-0.6-1.1s1.5-1.1-0.7-1.9
		c-1.3-0.4-2.7-0.8-3.3-0.8c-0.5,0-0.1-0.5,1.1-1.1c2-1,2-1-1.1-0.8c-2,0.2-3.6-0.1-4.3-0.8c-1.8-1.7-0.5-2.6,3.5-2.6
		c2.3,0,3.5-0.3,3.2-0.8c-1-1.5,2-1.6,5.4,0c4.2,1.9,4.9,1.9,4.3,0.4c-0.3-0.7,0-1.1,0.8-1.1s1.1-0.4,0.8-1.1
		C-9,78.8-8.7,78.7-6,79.7c1.8,0.6,1.9,0.5,1.6-0.8c-0.4-1.5,0.9-2,1.8-0.7c0.3,0.4,2,1.5,3.9,2.3c3,1.4,3.7,1.5,6.6,0.7
		c2.7-0.7,3.1-1,1.9-1.6c-0.8-0.4-1.4-1.2-1.4-1.9c0-0.9,0.8-1.1,3.7-0.9c2.8,0.2,4.1-0.2,5.3-1.3c1.8-1.7,3.5-7.6,2.4-8.3
		c-0.7-0.4-1.1,1.2-0.8,3.3c0.1,0.5-0.6,2-1.6,3.2c-1.4,1.8-2,2.1-2.9,1.4c-0.6-0.5-1.2-1.8-1.2-2.8c-0.1-1.6-0.2-1.7-0.5-0.5
		c-0.6,2.3-2.7,4.1-4.9,4.1c-1.7,0-1.8-0.2-1.1-1.5c1.1-1.8,1.1-2.5,0-1.9C6.3,72.8,6,72.6,6,72.2c0-0.4-0.4-0.8-0.8-0.8
		c-0.4,0-0.8,0.5-0.8,1.1c0,1.3-4.8,5.1-5.8,4.5c-0.4-0.2-0.8-1.1-0.8-1.9c0-0.8-0.4-1.5-0.8-1.5c-0.5,0-0.6-0.4-0.4-0.9
		c0.3-0.5-0.2-0.2-1,0.8c-0.8,0.9-1.8,1.5-2.1,1.2s-1.4-0.7-2.4-0.8c-2.2-0.3-5.5-1.8-5.5-2.5c0-0.3,1.1-0.9,2.4-1.5
		c1.3-0.5,2.3-1.3,2.2-1.8s0.9-0.9,2.3-0.9c2.9-0.1,7-1.9,5.5-2.3c-0.6-0.2-1-0.8-1-1.4c0-1.2,4.1-1.5,5.4-0.4
		c1.2,1.1,4.4,1.8,4.4,1c0-0.4-0.9-0.9-2.1-1.2c-1.7-0.4-1.9-0.7-1.1-1.6c0.8-0.9,0.7-1.1-0.6-1.1c-1.8,0-4.9-2-4.2-2.7
		c0.3-0.3,2.2-0.6,4.2-0.8c4.1-0.4,4.1-0.4,2.9-2.5c-0.8-1.3-1-1.4-2.8-0.3c-1.8,1.1-2,1.1-2.5-0.4c-0.3-0.9-0.9-1.4-1.3-1.1
		c-0.4,0.2-0.8,0.1-0.8-0.4c0-0.4-0.7-0.8-1.6-0.8s-1.6-0.5-1.6-1.1c0-1.1,1.7-1.9,4.2-1.9c1.9,0,2.1-1.4,0.4-2
		c-0.7-0.2-1.1-0.7-0.8-1c0.2-0.3-0.5-1-1.7-1.6C-5.4,42.2-4.7,41-1.2,41h2.9l-2.1-2.5c-1.6-1.9-1.8-2.7-1-3.4s1.6-0.3,3.7,1.8
		c2.5,2.5,2.8,2.6,3.6,1.3c0.5-0.8,1.3-1.4,1.7-1.4c1,0,3.6,4.2,4.1,6.7c0.4,1.9,7.9,7.8,9.1,7.1c0.3-0.2,0.5-2.2,0.4-4.5
		s0.1-4.1,0.5-4.1s0.6-1.2,0.5-2.8c-0.2-2.3-0.6-2.9-2.5-3.3c-2-0.5-2.2-0.4-1.8,0.8c0.7,2.2-1.2,2.7-2.8,0.8
		c-0.8-1-1.6-1.4-1.9-0.9c-0.6,0.8-3.8,0.4-3.8-0.5c0-0.7,4.1-4.2,4.8-4.1c0.3,0,1.2-0.1,2-0.3c2.3-0.6,0.8-1.6-1.6-1.2
		c-4.1,0.8-7.8,0.6-8.2-0.3c-0.2-0.5,0.2-0.9,0.8-0.9c0.7,0,1.6-0.5,2.2-1.1s1.3-0.9,1.7-0.7c0.4,0.2,0.7,0.1,0.7-0.2
		s-1.1-1.3-2.5-2.1c-2.5-1.5-3.2-2.6-1.6-2.6c1.5,0,6.8,2.3,7.6,3.2c0.4,0.6,0.5,0.3,0.2-0.7c-0.3-0.9-0.1-1.8,0.3-2.1
		c0.9-0.5,4.2,4.3,4.2,6.1c0,0.7,0.2,1,0.5,0.7s1,0.1,1.7,0.8c1,1.1,1.1,0.8,0.7-2.4c-0.3-3-1.1-4.4-4.1-7.6c-2-2.2-3.7-4.4-3.7-5
		c0-1.8,4.1-0.6,5,1.4c1.4,3.3,2.8,2.1,2.5-1.9c-0.2-3,0.1-4.1,1.4-5.4L25.7,8l0,0l0,0l0.1,1.8c0,1,0.1,4,0.2,6.8l0.1,4.9l3-2.9
		c3.5-3.3,4-3.5,3.9-1.2c0,0.9-1.4,3.1-3.1,4.9c-2.7,2.8-3.1,3.7-3.3,7.4c-0.1,2.8,0.1,4.1,0.7,3.7c0.5-0.3,0.8-1,0.8-1.6
		s0.4-1.1,0.8-1.1c0.5,0,0.8-1.3,0.8-2.9c0-3.3,2.1-5.7,3.3-3.8c0.4,0.6,0.6,1.5,0.4,2c-0.4,1.1,1.9,0.4,3.5-1.1
		c0.6-0.5,1.6-1,2.1-1c2.2,0,1.9,2.1-0.8,5c-3.2,3.4-3.4,4-1.3,4.6c1,0.3,1.4,0.8,1.1,1.8c-0.5,1.6-2.7,1.9-4.1,0.5
		c-1.1-1-1.1-1-1.3,1.9c-0.2,2.4,0,2.4,2.8,0.9c2.7-1.4,7.3-4.2,7.3-2.5c0,0.8-5.2,5.1-6.7,6.1c-2,1.4-2.2,1.8-0.9,1.5
		c1.1-0.3,1.9,0,2.2,0.8c0.7,1.7,1.3,1.5,6.7-1.7c2.7-1.6,5.3-2.8,5.7-2.6c1.7,0.6,0.6,3.5-1.8,4.7l-2.4,1.2l2.2,0.2
		c1.2,0.1,2.4,0.7,2.6,1.3c0.5,1.1-1.6,2.2-2.8,1.5c-0.4-0.2-0.8-0.1-0.8,0.4c0,0.4-0.6,0.8-1.4,0.8c-1,0-1.1,0.2-0.3,0.5
		c0.9,0.3,0.7,0.7-0.7,1.7l-2,1.5l3.4,0.5c3.5,0.5,4.3,1.8,2.2,3.4c-0.8,0.6-1.6,0.7-2.6,0.2c-1.5-0.8-4.4-0.4-4.4,0.7
		c0,0.4-0.7,0.7-1.6,0.7s-1.6-0.3-1.6-0.8c0-0.4-0.8-0.7-1.8-0.7h-1.8l2,1.5c1.6,1.2,1.8,1.7,0.9,2.2c-1.2,0.7-3.3,0.2-4.4-1.1
		c-0.4-0.5-0.5,0.1-0.2,1.3c0.4,1.7,0.2,2.1-1.2,2.1c-0.9,0-1.7-0.4-1.7-0.9c0-0.6-0.2-0.6-0.5,0.1c-0.3,0.8-0.7,0.6-1.5-0.8l-1-1.8
		l-1,2.1c-0.6,1.1-0.8,2.3-0.4,2.6c0.3,0.3,3.3,0.7,6.5,0.8c5.4,0.3,6.2,0.1,9.8-2c3.6-2.1,6.2-2.4,6.2-0.8c0,0.4-1,1.2-2.2,1.8
		l-2.2,1.2l2.9-0.5c2.8-0.5,7.6-2.7,9.7-4.6c0.6-0.5,1.8-1,2.7-1c1.7,0,2.1,1.5,0.8,2.7c-0.5,0.5,0.8,0.8,3.4,1
		c2.3,0.1,4.5,0.4,4.9,0.6c2.7,1.5-3.9,4.3-8.7,3.7l-3.3-0.4l2.3,1.2c1.4,0.7,2.2,1.7,2,2.5c-0.4,1.8-3.9,1.2-6.2-1.1
		c-1-1.1-2.5-1.8-3.3-1.6c-1.1,0.2-1,0.5,0.7,1.2c2.8,1.1,3.6,2.3,1.9,2.9c-0.7,0.3-1.1,0.9-0.9,1.4s-0.1,1.2-0.8,1.4
		c-0.6,0.2-1.2,0.1-1.2-0.2c0-0.6-2.6-1.7-4.6-1.9c-0.5,0-1.7-0.7-2.7-1.5c-0.9-0.8-1.7-1.2-1.7-0.9c0,0.8,1.8,2.3,3.9,3.4
		c1,0.5,1.8,1.2,1.8,1.6c0,1.4-2.5,1.6-4.1,0.4c-1.5-1.2-1.5-1.2-1.1,0.3c0.6,2.2-1.1,2-2.7-0.4c-1-1.5-1.5-1.7-2.1-0.9
		s-0.8,0.8-1.4,0C35,75,34,74.7,33.2,74.8c-3.3,0.4-7.6-2.3-7.8-4.9c-0.1-1.4-0.2-1.3-0.7,0.3s-0.1,2.3,2.3,4.3
		c1.6,1.3,5.2,3.5,8,4.9l5.1,2.4L44,80c2.2-1,4.4-1.9,5-2c1.5-0.3,1.3,1.2-0.4,3c-1.3,1.4-1.3,1.4,0,0.5c0.8-0.5,1.7-0.8,2.1-0.6
		s1.7-0.1,3-0.7c3-1.4,4-1.4,3.4,0.2c-0.4,1.1,0,1.3,2,1.2c1.3,0,2.6-0.3,2.9-0.5c1-0.9,3.6,0.4,3.6,1.9c0,1.2-0.4,1.4-1.7,1.1
		c-1.6-0.4-1.7-0.4-0.3,1c1.5,1.5,1.2,1.7-1.9,1.5c-1.4-0.1-1.7,0.1-1.3,1.2c0.4,1.1,0.2,1.2-1.5,0.9s-2-0.1-1.7,1
		c0.4,1.5-0.1,1.7-2.1,0.7s-4.5,2.1-2.9,3.5c0.9,0.8,1.2,0.8,1.6-0.1c0.2-0.6,1.7-1.1,3.3-1.1c1.6-0.1,2.7,0.2,2.4,0.6
		c-0.2,0.4,0.3,0.5,1.2,0.3c2.1-0.5,2.1,0.6,0.1,1.8c-1.1,0.6-1.4,1.4-1.1,2.8c0.5,2.4,0.6,2.4,3.6,0.1c1.3-1,3-1.9,3.6-1.9
		c1.4,0,1.4,0.4,0.4,2.2c-0.9,1.5-0.3,1.5,5.9,0.4c2-0.4,3.1-0.3,3.1,0.3c0,1-4.2,3.1-6.2,3.1c-1.1,0-1.2,0.2-0.4,1.1
		c0.8,0.9,0.8,1.2-0.2,1.5c-0.7,0.2-1.5,0.4-1.9,0.3c-1.7-0.3-2.8,0.1-2.6,1c0.1,0.6-0.7,0.9-2,0.9c-1.7,0-2.3,0.3-2.3,1.5
		c0,1.5-0.1,1.5-1.6-0.2c-1.3-1.4-1.6-1.5-1.6-0.5c0,0.7-0.4,1.1-0.8,0.8c-0.5-0.3-1.2,0.4-1.6,1.5s-1.4,2.1-2,2.4
		c-0.7,0.2-1.3,0.9-1.3,1.5s-0.6,1.1-1.3,1.1c-0.7,0-1.8,0.6-2.4,1.3c-1,1.2-1.2,1.2-3-0.2l-1.9-1.5l1.5,1.6c0.9,1,3.6,2.1,7.1,2.8
		c7.2,1.6,8.9,1.5,11.9-0.2c2.7-1.7,4.1-1.3,3.3,0.8c-0.4,1.2-0.1,1.5,1.8,1.5c1.3,0,2.7-0.3,3.2-0.8s1.3-0.4,2.4,0.3
		c1.5,1,1.5,1.1-1,2.4c-1.9,1-2.5,1.8-2.2,2.7s0.1,1.3-0.6,1.2c-2.4-0.3-3.3,0.1-2.8,1.2c0.8,1.9-2.2,2.8-4.5,1.3
		c-1.5-0.9-1.7-1-1-0.1c1.4,1.6,0.1,3.2-2.1,2.6c-3.1-0.9-3.9,0.5-0.9,1.6c3.9,1.3,7.8,1.3,9.2-0.1c1.6-1.5,4.1-1.5,3.5,0
		c-0.4,0.9,0.2,1,3.2,0.7c4.4-0.6,4.9,0.7,0.9,2c-2,0.7-2.7,1.3-2.4,2.2c0.4,1.5-2.1,2.4-4.1,1.4c-1.1-0.6-1.4-0.3-1.4,1.2
		s-0.3,1.8-1.8,1.4c-1.4-0.3-1.7-0.2-1.2,0.9c0.4,1.1,0.2,1.3-1.1,1c-0.9-0.2-1.7-0.1-1.7,0.3c0,1.3-1.7,0.7-3.9-1.5
		c-2.6-2.6-4.2-3.1-6.1-2.2c-2.2,1.1-1.7,1.9,1,1.6c2.8-0.4,3.2,0.8,1.2,3.4c-1.2,1.6-1.2,1.7,0.3,1.7c0.9,0,2.2,0.5,2.9,1.1
		c0.7,0.6,1.8,1.1,2.5,1.1s1.5,0.3,1.7,0.7c0.3,0.4,1.9,0.7,3.7,0.7c1.7,0,3.7,0.2,4.2,0.6c0.6,0.3,2.3,0.5,3.7,0.4
		c2.2-0.1,2.7,0.1,2.9,1.6c0.2,1.2,0.8,1.7,2.3,1.8c1.1,0,2.4,0.2,2.9,0.3c0.5,0.1,1.5,0.1,2.2,0c0.8-0.1,1.4,0.2,1.4,0.5
		c0,1-4.5,3.2-6.6,3.2c-1.8,0-1.8,0-0.4,1.5c1.4,1.5,1.4,1.5-0.7,1.5c-1.6,0-2,0.3-1.7,1.2c0.4,0.9,0.1,1.1-1.9,0.7
		c-1.3-0.3-2.5-0.5-2.8-0.5c-2.6,0-3.1,0.3-2.8,1.2c0.9,2-1.3,2-2.5-0.1c-1.2-2-1.2-2-1.3-0.4c0,0.9-0.3,1.7-0.7,1.8
		c-5,0.7-5.8,0.4-6.8-1.8l-1-2.3l-0.7,1.8l-0.7,1.8l-1.6-1.9c-1.6-1.9-1.6-1.9-1.6-0.2c0,2.3-1.5,2.2-2.1-0.2
		c-0.3-1-0.9-1.9-1.3-1.9s-0.5,0.4-0.2,0.8c0.4,0.6-0.2,0.7-2.1,0.3c-2-0.4-2.6-0.3-2.3,0.4c0.5,1.4,5.6,3.7,8.2,3.7
		c1.2,0,2.3,0.4,2.6,0.9c0.2,0.6,1.8,0.9,4.2,0.9c2.1,0,3.8,0.2,3.8,0.5c0,1.4-2.8,3-5.1,2.8c-1.3-0.1-2.5,0.1-2.6,0.4
		c-0.2,1.3,4.6,2,16.2,2.4c13.1,0.5,18.4,1,18.4,1.8c0,0.3,0.9,0.4,2,0.2c1.2-0.2,2,0,2,0.4c0,1.1-2.7,2.4-4.8,2.4
		c-0.9,0-1.7,0.3-1.7,0.8c0,0.4,0.4,0.8,0.9,0.8s1.7,0.7,2.7,1.6l1.8,1.6l-2.7-0.3c-1.8-0.2-2.7,0-2.7,0.6s-0.7,0.8-1.6,0.5
		c-0.9-0.2-1.6,0-1.6,0.4c0,1.2-2.1,1-3.3-0.3c-0.6-0.6-1.4-1.1-1.8-1.1c-0.5,0-0.3,0.6,0.5,1.4c0.7,0.8,1.4,1.6,1.4,1.9
		c0,0.8-3.1,0.6-3.7-0.2c-0.8-1.2-1.9-0.9-2.5,0.8c-0.7,1.9-1.6,1.9-4.5,0l-2.4-1.6l0.5,2.3c0.6,2.8-0.9,3.1-4.2,0.7
		c-2.2-1.6-2.2-1.6-1.4-0.1c1,1.7,0.5,2.6-1.2,2c-0.6-0.2-1.7,0-2.4,0.5c-0.8,0.6-1.2,0.7-1.2,0.1c0-0.5-0.6-0.8-1.2-0.8
		s-1.2,0.5-1.2,1.1c0,0.7-0.7,1-2.2,0.8c-8.5-0.9,2.5,3.7,12.4,5.1c6.5,1,7.1,0.9,9.2-0.4c1.3-0.8,2.7-1.4,3.3-1.4
		c1.7,0,1.2,1.5-0.8,2.3c-1.4,0.5-0.9,0.6,1.8,0.2c2-0.3,4.6-0.5,5.7-0.4c1.1,0.1,3.9-0.4,6.1-1c2.2-0.6,4.1-1,4.3-0.8
		c0.9,0.8-4.4,3.9-7.3,4.3l-3.5,0.5l3.1,0.1c2.1,0.1,3.1,0.4,3.1,1.2c0,0.6-0.6,1.2-1.4,1.2c-0.8,0.1-1.8,0.2-2.2,0.3
		c-0.4,0.1-1.3,0.2-2,0.3c-0.9,0.1-0.8,0.4,0.4,1.2c2,1.4,1.1,2.3-1.2,1.2c-1.4-0.7-1.7-0.6-1.7,0.4s-0.6,1.2-2.7,0.9
		c-1.5-0.2-3.4-0.6-4.3-0.9c-1.6-0.5-1.6-0.5,0,0.6c1.6,1.2,1.3,1.5-1.4,1.2c-0.8-0.1-1.4,0.4-1.4,1.1c0,1.6-0.7,1.5-2.6-0.5
		l-1.7-1.7l1.3,2c0.7,1.1,1.3,2.4,1.3,2.8c0,1.2-4,0.3-5.9-1.3c-1.6-1.3-1.6-1.3-1,0.5c0.9,2.5,1.9,3.1,9.4,5.2
		c6.3,1.7,6.6,1.8,10,0.6c3.7-1.3,8.8-1.7,8.8-0.6c0,0.3-0.4,1-1,1.5c-0.7,0.6,0.4,0.5,3.3-0.3c2.4-0.7,4.9-1,5.6-0.8
		c1.1,0.4,1,0.7-0.6,2.3l-1.9,1.8l2.8-0.7c3.6-0.9,7.9-0.9,8.5,0c0.6,1-4.8,3-8,3h-2.6l2.4,1.8c2.4,1.7,2.3,4,0,3.2
		c-0.8-0.3-1.1,0.2-1.1,1.5s-0.4,1.9-1.6,1.9c-0.9,0-2.1,0.5-2.8,1.1c-1,1-1.5,1-2.9,0.2c-0.9-0.5-1.7-1.2-1.7-1.5s-0.6,0-1.5,0.8
		c-1.6,1.4-2,3.2-0.8,3.2c0.4,0,0.5,0.4,0.2,0.8c-0.4,0.6,0.2,0.7,2,0.3c1.6-0.3,2.6-0.2,2.6,0.3s1.6,0.8,3.7,0.8
		c3.8,0,4.6,0.7,2.5,2.3c-0.8,0.6-2.5,0.8-5.1,0.5l-3.9-0.4l3,1.5c2.1,1,2.9,1.8,2.6,2.7c-0.3,0.7-1,1-1.8,0.7
		c-0.7-0.3-1.9-0.6-2.6-0.7c-0.7-0.1-0.8,0-0.2,0.1c2.1,0.7,1,1.9-1.2,1.4c-1.6-0.3-1.9-0.3-1,0.3c2.2,1.3,0.2,1.7-2.3,0.5
		c-1.4-0.7-2.5-0.9-2.5-0.5s0.5,0.9,1,1.1c0.6,0.2,0.7,0.6,0.4,1c-0.4,0.3-1.7,0.3-3-0.2c-1.9-0.7-2.3-0.6-1.9,0.2
		c0.3,0.8,0,0.9-1.1,0.5c-1.3-0.4-1.4-0.3-0.5,0.6c0.8,0.8,3.7,1,12.9,0.9c7.1-0.1,11.8,0.1,11.8,0.6c0,0.4-0.6,0.7-1.3,0.7
		s-1.8,0.5-2.4,1.1c-1,0.9-1,1.1,0.1,1.5c0.7,0.2,2.4,0.4,3.9,0.4c3,0,5.1,1,4.3,2.1c-0.9,1.3-4.9,1.6-8.3,0.5
		c-4.5-1.4-4.7-1.4-2.4,0.8c2.9,2.6,2.7,4.2-0.4,3.4c-1.3-0.4-2.8-0.9-3.3-1.1c-0.5-0.3-0.9,0.1-0.9,0.9c-0.1,0.7-0.2,1.7-0.2,2.2
		s-0.3,1.1-0.6,1.4c-0.6,0.6-5.6-1.9-5.6-2.9c0-0.3-0.3-0.4-0.8-0.2c-0.5,0.3-0.5,1.1,0,2.3c0.4,1,0.8,2.2,0.8,2.7
		c0,1-3.9-1.6-7.7-5.1c-2.9-2.7-3.3-2.2-0.6,0.7c0.7,0.7,1,1.9,0.7,2.6c-0.5,1.1-0.7,1.1-2.6-0.5l-2.1-1.8l0.3,1.9
		c0.3,1.7,0.8,2,6.8,2.9c4.2,0.6,7,0.7,7.8,0.3c2-1.2,6.5-1.9,6.5-1c0,0.4-0.6,0.9-1.4,1.1c-0.8,0.2,0.4,0.2,2.7,0
		c3.3-0.3,3.9-0.2,3.1,0.6c-1.6,1.5-1.2,2,1,1.6c2.6-0.5,6.4,0.4,5.7,1.3c-0.3,0.4-1.3,0.7-2.4,0.7c-3.5,0-3,1,1.3,2.6
		c7.3,2.7,5.7,4.7-1.8,2.3c-3.8-1.2-5.3-1-2.5,0.4c0.9,0.5,1.7,1.4,1.7,2c0,0.9-0.5,1.1-2.2,0.7c-1.9-0.4-2.1-0.4-1.1,0.7
		c2.2,2.4-0.1,2.4-3.8,0c-1.7-1.1-1.8-1.1-1.3,0.5c0.4,1.6,0.4,1.6-0.9,0.7c-1.2-0.9-1.3-0.9-0.8,0.4c0.5,1.2,0.3,1.2-1.5-0.3
		c-2.1-1.7-3.4-1.6-2.6,0.3c0.6,1.5-1.3,1.3-4.4-0.4c-1.5-0.8-2.7-1.1-2.7-0.7c0,0.5-0.9,0.6-2.2,0.4c-1.5-0.3-1.9-0.2-1,0.2
		c0.7,0.4,3.2,1.1,5.7,1.5c5.3,1,7,1.8,6.2,3.1c-0.6,0.8-1.7,0.7-6.6-0.5c-1.3-0.3-1,0.2,1,2c1.5,1.3,2.7,2.5,2.7,2.7
		c0,0.7-4.5-0.2-7.2-1.5c-2.9-1.4-3.3-1-1.4,1.3c1.7,2,1.5,2.9-0.4,2.4c-1.1-0.3-1.6,0-1.6,0.7c0,1.4-0.7,1.3-2.7-0.3
		c-1.5-1.3-1.6-1.2-1.3,0.2c0.4,2.3-4.1,1.6-6.5-1l-1.9-2l0.5,2.4c0.7,3.2-1.3,3.3-4.5,0.2c-1.3-1.2-2.4-2.3-2.6-2.3
		s-0.3,0.9-0.4,1.9c-0.2,3-1.5,3.8-3.2,1.9c-1.3-1.4-1.5-1.5-2.5-0.3s-1.1,1.2-1.6-0.4c-0.3-1-0.9-1.5-1.6-1.2
		c-0.7,0.2-1.3-0.3-1.7-1.6c-0.4-1.4-0.8-1.7-1.2-1.1c-0.4,0.5-1.4,1.1-2.4,1.2c-1.3,0.2-2.1-0.5-3.5-3.1c-1.8-3.4-3.7-4.7-2.7-1.9
		c0.6,1.8,0.2,1.9-2.5,0.3c-1.1-0.7-2-1.9-2.1-2.8c-0.1-1.3-0.2-1.3-0.5-0.3c-0.6,2.2-1.9,0.7-1.9-2.3c0-2.2-0.2-2.5-0.8-1.5
		c-0.5,0.7-1.6,1.3-2.5,1.3 M31,34.4c-0.4,0-1.3,0.7-2.3,1.7c-1.7,1.7-2.5,3.3-2.5,5c0,1.4,0.2,2.5,0.3,2.5c0.4,0,1.5-2.3,1.9-4.1
		c0.2-0.8,0.8-2,1.5-2.7S31.1,35.1,31,34.4C31.2,34.4,31.1,34.4,31,34.4L31,34.4z M33,45.4c-1.6,0.1-5.3,2.5-5.9,3.9
		c-1.1,2.6-0.5,3.1,1.4,1.1c0.8-0.9,1.9-1.6,2.5-1.6c0.9,0,3.2-2.9,2.6-3.4C33.4,45.4,33.2,45.4,33,45.4L33,45.4z M10.7,51.6
		c-0.2,0-0.4,0-0.7,0.1c-1.3,0.3-1,0.8,2.1,3c2,1.4,4.4,2.7,5.3,2.7c0.9,0.1,1.5,0.4,1.5,0.7s0.4,0.6,0.9,0.6s0.8-0.8,0.6-1.7
		c-0.2-1.5-0.7-1.7-3.3-1.5c-2.4,0.2-3.1,0-3.1-0.9c0-0.7-0.6-1.2-1.2-1.2c-0.7,0-1.2-0.5-1.2-1.1C11.5,51.8,11.2,51.6,10.7,51.6
		L10.7,51.6z M20.1,62.3l-1.9,0.9c-1.1,0.5-2.8,0.6-3.9,0.4c-1.1-0.3-2-0.1-2,0.3c0,0.4,0.4,0.8,0.8,0.8s1.3,0.2,1.9,0.4
		s2-0.3,3.1-1.2L20.1,62.3L20.1,62.3z M11.2,64.2c-0.2,0-0.5,0.2-0.8,0.5c-0.9,0.7-1.2,0.7-1.2,0c0-0.5-0.4-0.6-0.9-0.4
		c-0.7,0.4-0.5,0.8,0.6,1.5c2.1,1.4,2.8,1.3,2.8-0.6C11.5,64.5,11.5,64.1,11.2,64.2L11.2,64.2z M-1.2,66.9c-0.7,0-1.1,0.3-0.8,0.8
		c0.7,1,2,1,2,0C0.1,67.3-0.5,66.9-1.2,66.9L-1.2,66.9z M18.1,78.9c-0.4,0-0.8,1.7-0.8,3.8c0,3.8,0.1,4.1,1.1,3.2
		C19.2,85.1,19,78.9,18.1,78.9L18.1,78.9z M24.3,89c-0.3,0-0.5,0.1-0.5,0.4c0,0.4,0.4,0.8,0.8,0.8c1,0,1-0.5,0-1.1
		C24.5,89,24.4,89,24.3,89L24.3,89z M17.7,90.6c0,0-0.1,0.1-0.2,0.2c-0.2,0.5-0.2,1.5,0,2.3c0.2,0.7,0.4,0.3,0.4-0.9
		C17.9,91.2,17.9,90.6,17.7,90.6L17.7,90.6z M27.9,91c-0.5,0-0.8,0.1-0.8,0.3s0.4,0.5,0.8,0.8s0.8,0.1,0.8-0.3
		C28.7,91.3,28.3,91,27.9,91z M32,92.5c-0.4,0-0.8,0.1-0.8,0.3s0.4,0.5,0.8,0.8c0.5,0.3,0.8,0.1,0.8-0.3
		C32.8,92.8,32.4,92.5,32,92.5z M49,92.5c-0.6,0.1-1.3,0.4-1.8,1c-1.7,1.9-4.4,2.2-5.9,0.5C40,92.6,38,92.5,39,94
		c0.3,0.4-0.1,0.7-0.8,0.7s-1.5-0.3-1.7-0.8c-0.7-1-2-1-2,0c0,0.4,1,1.1,2.2,1.6c1.2,0.4,4.4,1,6.9,1.2c4.1,0.3,4.7,0.2,5.5-1.1
		c0.5-0.8,0.9-1.9,0.9-2.3C50,92.7,49.6,92.4,49,92.5L49,92.5z M-26,132.3c-0.5,0-0.9,0.3-0.9,0.8c0,1,0.6,1,1.2,0
		C-25.4,132.6-25.5,132.3-26,132.3z M42.3,141.3c-0.5,0,0.5,0.7,2.1,1.5c3,1.5,4.7,1.9,4.7,1.1C49.2,143.5,43.5,141.3,42.3,141.3
		L42.3,141.3z M-28.3,173.4c-0.9,0-1.8,0.1-2.3,0.3c-1.1,0.4-0.6,0.6,1.9,0.6c1.9,0,3.5-0.1,3.5-0.2
		C-25.2,173.7-26.8,173.4-28.3,173.4z M-46.6,177.5c-0.3,0-0.6,0-0.9,0.1c-0.7,0.2-0.4,0.4,0.5,0.4c0.9,0,1.3-0.1,1.1-0.4
		C-46,177.5-46.3,177.5-46.6,177.5z M-46.8,196.2c0,0-0.1,0-0.2,0c-0.4,0-1.4,0.3-2,0.7c-0.7,0.4-0.9,0.7-0.4,0.7
		c0.5,0,1.4-0.3,2-0.7C-46.7,196.6-46.5,196.3-46.8,196.2L-46.8,196.2z M95.7,226.6c-0.4-0.1-0.5,0.1-0.3,0.4
		c0.3,0.4,0.8,0.8,1.3,0.8c1.2,0,0.9-0.6-0.5-1.1C96,226.6,95.8,226.6,95.7,226.6L95.7,226.6z M82.4,233l-1.9,1.8l-1.8,1.8l-1.4-2
		c-1.3-1.8-1.5-1.8-2.2-0.6c-0.6,1-1,1.1-1.5,0.4s-0.8-0.5-1.2,0.7c-0.6,1.6-2.1,2.3-2.1,0.9c0-0.4-1-0.8-2.2-0.8h-2.2l2.5,1.2
		c1.6,0.8,3.7,1,5.9,0.8c1.9-0.2,3.3,0,3,0.3c-0.6,1,0.6,0.8,3.1-0.4c1.3-0.6,2.3-0.8,2.5-0.3c0.1,0.4,0.9,0.5,1.7,0.2
		c1.4-0.5,1.3-0.6-0.4-2.3L82.4,233L82.4,233z M63.4,233.8c-0.2,0-0.3,0-0.5,0c-0.6,0.2-0.2,0.5,0.9,0.8c1.4,0.3,1.7,0.2,1.1-0.3
		C64.5,234,64,233.8,63.4,233.8z M71.7,264.8c-0.3,0-0.5,0.1-0.5,0.4c0,0.4,0.4,0.8,0.8,0.8c1,0,1-0.5,0-1.1
		C71.9,264.9,71.8,264.8,71.7,264.8L71.7,264.8z"/>
	<path class="st1" d="M26.2,281.1c0,0-1-0.3-0.4,5.3c0.4,3.9,1.2,14,2.6,16.5c0.8,1.4,1.4,2.7,1.8,3.4H9.7c-0.9-0.7-0.5-1.8,0.4-3.9
		c1.4-3.2,2-16.7,0.9-17.1"/>
</g>
</svg>
