<?xml version="1.0" encoding="utf-8"?>
<!-- Generator: Adobe Illustrator 23.0.1, SVG Export Plug-In . SVG Version: 6.00 Build 0)  -->
<svg version="1.1" id="Layer_1" xmlns="http://www.w3.org/2000/svg" xmlns:xlink="http://www.w3.org/1999/xlink" x="0px" y="0px"
	 viewBox="0 0 172 419.5" style="enable-background:new 0 0 172 419.5;" xml:space="preserve">
<style type="text/css">
	.st0{fill:#569E3F;}
	.st1{fill:#663C12;}
	.st2{fill:#1B5729;}
</style>
<g>
	<path class="st0" d="M68,386.8c-0.4-0.1-1.4,0.8-2.2,2c-1.5,2.3-3.3,3.2-2.5,1.2c1-2.3-0.6-1-1.7,1.4c-0.9,1.9-1.6,2.5-3.1,2.4
		c-1.1-0.1-2.5,0.2-3.1,0.7c-0.8,0.6-1.2,0.5-1.5-0.1c-0.2-0.6-0.9-0.4-1.9,0.6c-2.1,1.9-3.2,1.8-2.7-0.2c0.2-1,0.1-1.4-0.3-0.9
		c-0.9,1.1-3.6,1.9-3.6,1.1s-4.5-0.5-6.9,0.4c-1.2,0.5-1.5,0.3-1.1-0.6c0.3-0.7,0.1-1.3-0.5-1.5c-0.7-0.3-0.8-0.6,0-1.3
		c1.9-1.8,1.1-2-2-0.6c-3.4,1.6-4.3,1.4-2.7-0.6c0.9-1.1,0.9-1.1,0-0.4c-0.6,0.5-1.6,0.7-2.2,0.5s-1.1-0.1-1.1,0.3s-0.5,1.3-1.1,2.1
		c-1,1.2-1.3,1.3-2.5,0.4s-1.5-0.8-2.7,0.7l-1.3,1.7l-0.7-1.8c-0.7-1.7-0.8-1.7-1.8-0.5c-1.3,1.6-1.9,1.6-3.5,0.2
		c-1-0.9-1.1-1.4-0.3-2.3c0.5-0.6,0.8-1.1,0.5-1.1s-0.1-0.8,0.4-1.7c0.8-1.4,0.5-1.3-1.8,0.6c-5.1,4.2-5.4,4.4-6.9,3.1
		c-0.7-0.7-1-1.6-0.7-2.1s-0.1-0.4-1,0.2c-4.3,3.2-8.7,3.8-5.7,0.8c1.3-1.4,1.3-1.5-0.8-1.9l-2.2-0.5l2.4-1.8c3.1-2.4,1.5-2.4-3,0
		c-2,1-4,1.9-4.6,1.9c-1.6,0-1.2-1.2,0.8-2.1c1.7-0.7,1.5-0.8-1.5-0.9c-1.8,0-4-0.5-4.9-1.2c-1.5-1-1.5-1.1,0.8-1.1
		c3.5,0,16-2.1,18.6-3.1c3.2-1.2,3.8-3,0.6-1.9c-2.8,1-4.1,0.2-2.1-1.2c1.2-0.8,0.8-0.9-2.3-0.7c-4,0.3-4.8-0.6-1.9-2
		c1.6-0.7,1.3-0.8-2.1-0.7c-4.7,0.2-6-1.2-2-2.1l2.7-0.6l-2.7-0.3c-3.1-0.3-3.4-1.1-0.8-2.3c1.5-0.7,0.9-0.8-3.5-0.5
		c-4.9,0.4-5.2,0.3-3.7-0.8c0.9-0.6,2.2-1.2,3-1.2s1.7-0.4,2-0.8c0.3-0.5-0.2-0.8-1.4-0.7c-3.4,0.3-5.6,0-5.6-0.7
		c0-0.4,2.6-0.9,5.7-1.2c3.2-0.3,5.6-0.8,5.3-1.1c-0.2-0.3-2.6-1.1-5.2-1.6c-5-1-8.2-2.6-7.2-3.5c0.5-0.5,5.1,0.2,11.1,1.7
		c1.9,0.5,1.8,0.3-0.7-1.7c-4.2-3.3-1.8-3.7,4.2-0.6c6.1,3.1,9.6,3.3,16.4,1.2c7.7-2.4,20.1-8.2,21-9.8c1.1-2,0.5-1.9-1.6,0.1
		c-0.9,0.9-1.7,1.4-1.7,1c0-0.3-0.6-0.2-1.2,0.3c-1,0.8-1.2,0.7-1.2-0.4s-0.4-1-2.6,0.8l-2.6,2.2l0.5-2.4c0.5-2.4,0.5-2.4-1.7-1.6
		c-1.2,0.5-2.8,1.3-3.4,1.7c-3.2,2.2-3.5,2.2-3-0.4c0.4-2,0.3-2.3-0.4-1.6c-1.4,1.3-4.8,1.2-4.8-0.2c0-1.4-1.3-1.5-2.2-0.1
		c-0.4,0.6-1.7,1.6-2.9,2.3c-1.9,1.1-2.2,1.1-2.2,0.2c0-0.6,0.7-1.7,1.6-2.4c0.9-0.7,1.6-1.7,1.6-2.1s-0.2-0.5-0.5-0.3
		c0.1,0.2-0.7-0.1-1.4-0.8c-0.9-0.8-2.2-1.1-4.3-0.8c-2.1,0.3-3.2,0.1-3.5-0.6c-0.3-0.8-1.1-0.8-3.1-0.3c-7.2,1.9-8.5-0.3-1.6-2.6
		c4.7-1.6,5.3-2.4,0.9-1.2c-5.6,1.5-12.9,0.4-9.8-1.5c0.7-0.4,2.9-0.8,4.9-0.8c3.1-0.1,3.3-0.2,1.3-0.6c-1.3-0.3-2.5-0.9-2.8-1.5
		c-0.3-0.9,1-1,7.9-0.5c8.2,0.5,8.3,0.5,7.3-1c-1.5-2.2-0.5-2.6,3.6-1.3c2.2,0.7,5,1,7.2,0.7c4.7-0.5,20.4-5.3,22.2-6.8
		c1.9-1.6,1.8-2.6-0.2-2c-0.9,0.3-1.6,0.1-1.6-0.3c0-0.8-1.2-0.6-5.3,1.1c-1.3,0.5-4.3,1-6.6,1s-4.5,0.1-4.9,0.2
		c-1.9,0.3-2.1-0.2-0.7-1.7c1-1.1,0.7-1-0.9,0.4c-2.8,2.4-3.6,2.5-3.6,0.9c0-1-0.3-1-2.1,0.1c-1.2,0.7-2.3,1-2.7,0.6
		c-0.3-0.4-1.6-1.1-3-1.7c-2.3-0.9-2.4-1-0.9-2c1.9-1.2,1.4-1.3-1.5-0.3c-1.6,0.6-2.1,0.5-2.1-0.2c0-0.6-2.1-1.4-5.3-2
		c-2.9-0.6-5.3-1.3-5.3-1.7c0-0.4-0.3-0.4-0.8-0.2c-0.4,0.3-1.5,0.1-2.2-0.3c-1.2-0.6-1.1-0.8,0.8-1.3c1.7-0.4,2.1-0.9,1.8-1.9
		s0-1.4,1.4-1.6c1.3-0.2,0.4-0.7-3.2-1.8c-5.6-1.6-7-3.1-2.1-2.2c4.5,0.8,15.7,1,15.7,0.3c0-0.4-0.4-0.6-0.8-0.6
		c-0.5,0-0.8-0.3-0.8-0.8c0-0.4,1.7-0.7,3.9-0.7c5.4,0.1,13.9-1.5,14.5-2.8c0.3-0.7-0.2-1-1.6-1c-1.1,0-2-0.3-2-0.7
		c0-0.4-0.6-0.5-1.2-0.3c-0.7,0.2-1.2,0-1.2-0.4c0-0.6-0.6-0.5-1.8,0.3c-1,0.6-2.7,1.2-3.9,1.1H4.4l1.9-1.5l1.9-1.4l-3.9-0.2
		L0.2,299l2.9-1.3l2.9-1.3H3.5c-1.6,0-3.2-0.7-4.4-1.9c-1.1-1-2.3-1.9-2.8-1.9s-1.4-0.7-1.9-1.5c-1.5-2.2,0.4-2.6,5.1-1.2
		c5.1,1.6,6.1,1.5,5.6-0.3s-0.4-1.8,4.8-0.3c3.9,1.2,4.3,1.1,10.6-0.5c8.4-2.2,10.6-4.3,4.1-3.9c-0.7,0-1.5-0.3-1.8-0.8
		c-0.4-0.6-1.1-0.5-2.2,0.5c-1.3,1.1-2.4,1.2-5,0.8c-3.7-0.6-3.9-0.9-1.9-2.4c1.5-1.1,0.9-1.1-2.6,0.2c-1.3,0.5-1.5,0.3-1-0.7
		c0.4-0.9,0.1-1.2-1.2-1.2c-1.1,0-1.6-0.4-1.3-1.1c0.2-0.6,0-1.2-0.5-1.5c-0.7-0.3-0.6-0.7,0.4-1.4c1.2-0.9,1.2-1.2-0.6-2.7
		c-2.9-2.6-2.4-3.2,1.9-1.9c10.7,3.2,14.7,3.4,17.3,0.8c1.5-1.5,1.6-1.9,0.6-2.2c-0.7-0.2-2.3-0.1-3.7,0.4c-3.5,1.2-4.2,0-1.3-2.2
		c2-1.5,2.2-1.8,0.8-1.7c-2.9,0.2-4.5-0.1-4.5-0.8c0-0.4,0.6-0.8,1.4-0.8c1.2,0,1.1-0.2-0.3-0.7c-0.9-0.4-1.9-1.2-2.2-1.8
		c-0.4-1-0.3-1.1,1.3-0.3c2.9,1.5,19.9,1.2,23.5-0.3c2.5-1.1,2.6-1.2,0.9-1.3c-1.5,0-1.9-0.4-1.5-1.6c0.4-1.4,0.3-1.5-0.9-0.5
		c-1.8,1.4-4.2,2.2-4.2,1.4c0-0.4-0.7-0.5-1.6-0.3c-0.9,0.2-1.6,0-1.6-0.4c0-0.5-0.9-0.8-2-0.8c-2.7,0-2.6-0.7,0.6-3.1l2.6-2
		l-4.4,0.6c-4.5,0.7-6.1,0.4-5.3-0.9c0.8-1.2-1.4-2.9-3.8-2.9c-2.8,0-3.2-1.2-0.5-1.8c1-0.2,0.6-0.3-1-0.3c-1.9,0.1-2.8-0.2-2.7-0.8
		c0.1-0.5-0.2-0.9-0.7-0.9c-0.6,0-0.6-0.4,0.1-1.2c0.7-0.7,1.8-1.1,3.2-0.8c1.2,0.2,1.6,0.2,1.1,0c-1.9-0.8-1.1-2,1-1.5
		c1.7,0.4,1.9,0.2,1.5-0.8c-0.4-0.9-0.2-1.1,0.6-0.6c0.6,0.3,2,0.7,3.2,0.8s3,0.4,4.1,0.7l2,0.5l-2.2-1.8c-2.6-2-3-3.2-0.7-2.1
		c2.3,1.1,4,1,2.7-0.1c-1.8-1.7-1.1-3,0.8-1.4c1,0.8,2.9,2,4.3,2.6c5,2.2,18.5-0.8,18.5-4.1c0-0.7,0.5-1.6,1-2.1
		c0.7-0.6,0.7-0.9,0.1-0.9c-0.5,0-1.1,0.5-1.4,1.1c-0.3,0.7-1.5,1.1-3.2,1c-1.5,0-3.5,0.2-4.5,0.5c-1.5,0.5-1.8,0.3-1.8-1v-1.5
		l-2.8,1.5c-2,1.1-3,1.3-3.4,0.7c-0.3-0.5-0.1-1.2,0.5-1.6c1-0.6-3.8-0.5-7.1,0.1c-0.5,0.1-1.7-0.1-2.7-0.4
		c-1.7-0.5-1.8-0.7-0.6-1.9c1.2-1.2,1.1-1.3-0.8-1.8c-2.4-0.5-2.8-2-0.7-2c0.9,0,0.5-0.4-1-1.1c-1.3-0.6-3.5-1.9-4.9-2.9l-2.4-1.8
		l3-0.5c1.7-0.3,3-0.8,3-1.2s1-0.5,2.2-0.2c2,0.4,2.1,0.4,1.2-0.6c-1.6-1.8,0.8-2.3,3.2-0.7c1.1,0.7,3.6,1.3,6,1.3
		c3.2,0,3.7-0.1,2.3-0.7c-1.6-0.7-1.7-1.3-1-4.1c0-0.1,1.3,0.5,2.8,1.3c1.5,0.9,4,1.6,5.5,1.6c5.1,0,13.9-3.1,19.4-6.9
		c2.1-1.5,1.7-1.8-0.8-0.5c-1.3,0.6-1.6,0.5-1.6-0.6c0-1.3-0.1-1.3-0.9,0c-0.5,0.7-1.2,1.1-1.6,0.9c-0.4-0.2-1.7,0.1-2.8,0.8
		c-2,1.2-2.1,1.2-2.1-0.9c0-1.2-0.3-1.8-0.6-1.3c-0.7,1-3.8,2.6-5,2.6c-0.5,0-0.9-0.8-1-1.7c-0.1-1.6-0.1-1.6-0.6,0.2
		c-0.3,1-0.7,1.7-0.9,1.6c-0.2-0.2-1.1,0.1-2.1,0.5c-1.4,0.7-1.9,0.6-2.8-0.6c-0.6-0.8-1.4-1.2-1.8-1c-0.4,0.2-0.4-0.5-0.2-1.6
		c0.5-1.9,0.4-1.9-1.7-1.2c-2.7,0.9-3.5,0.5-2-1.1c0.9-1,0.8-1.1-0.4-1.1c-1.4,0-1.4-0.1,0-1.4c0.8-0.8,1.1-1.6,0.6-1.9
		c-0.4-0.2-1.4,0.2-2.2,1c-1.2,1.3-2,1.4-5.2,0.8c-0.2,0,0.1-0.5,0.6-1.1c1.1-1.2,0.4-2-1.6-2c-0.8,0-2.3-0.7-3.3-1.5l-1.9-1.5
		l2.5-0.1c1.3-0.1,3.4-0.1,4.4,0c1.7,0.1,1.9,0,0.9-1c-1.8-2-0.5-2,2.6,0c3.4,2.1,5.5,2.5,3.9,0.7c-0.9-1-0.8-1.1,0.3-0.7
		c1.6,0.6,1.8-0.5,0.4-1.8c-2.1-1.9,0.1-1.6,2.7,0.4c5.1,3.9,5.7,4,11.4,2.4c6-1.7,10.1-3.8,11.3-5.8c0.7-1.3,0.6-1.5-1.2-1.4
		c-1.1,0.1-2.2,0.6-2.4,1.3c-0.2,0.6-1.2,1.2-2.1,1.3c-1.4,0.1-1.6-0.2-1.3-1.5c0.4-1.4,0.2-1.4-1.5,0.4c-1,1.1-2.7,2-3.7,2
		c-1.6,0-1.8-0.3-1.4-2.2c0.6-2.8-1.3-3.6-3.3-1.3c-1.4,1.6-6,2.7-6,1.4c0-0.3,1.2-1.5,2.7-2.6c2-1.6,2.3-2.1,1.2-2.1
		c-0.8,0-1.7,0.5-1.9,1.1c-0.3,0.6-0.8,1-1.2,0.8s-0.9,0-1.2,0.4s-1.5,0.8-2.7,0.8c-2.1,0-2.1-0.1-0.6-1.1s1.5-1.1-0.7-1.9
		c-1.3-0.4-2.7-0.8-3.3-0.8c-0.5,0-0.1-0.5,1.1-1.1c2-1,2-1-1.1-0.8c-2,0.2-3.6-0.1-4.3-0.8c-1.8-1.7-0.5-2.6,3.5-2.6
		c2.3,0,3.5-0.3,3.2-0.8c-1-1.5,2-1.6,5.4,0c4.2,1.9,4.9,1.9,4.3,0.4c-0.3-0.7,0-1.1,0.8-1.1s1.1-0.4,0.8-1.1
		c-0.6-1.3-0.3-1.4,2.4-0.4c1.8,0.6,1.9,0.5,1.6-0.8c-0.4-1.5,0.9-2,1.8-0.7c0.3,0.4,2,1.5,3.9,2.3c3,1.4,3.7,1.5,6.6,0.7
		c2.7-0.7,3.1-1,1.9-1.6c-0.8-0.4-1.4-1.2-1.4-1.9c0-0.9,0.8-1.1,3.7-0.9c2.8,0.2,4.1-0.2,5.3-1.3c1.8-1.7,3.5-7.6,2.4-8.3
		c-0.7-0.4-1.1,1.2-0.8,3.3c0.1,0.5-0.6,2-1.6,3.2c-1.4,1.8-2,2.1-2.9,1.4c-0.6-0.5-1.2-1.8-1.2-2.8c-0.1-1.6-0.2-1.7-0.5-0.5
		c-0.6,2.3-2.7,4.1-4.9,4.1c-1.7,0-1.8-0.2-1.1-1.5c1.1-1.8,1.1-2.5,0-1.9c-0.5,0.3-0.8,0.1-0.8-0.3c0-0.4-0.4-0.8-0.8-0.8
		c-0.4,0-0.8,0.5-0.8,1.1c0,1.3-4.8,5.1-5.8,4.5c-0.4-0.2-0.8-1.1-0.8-1.9c0-0.8-0.4-1.5-0.8-1.5c-0.5,0-0.6-0.4-0.4-0.9
		c0.3-0.5-0.2-0.2-1,0.8c-0.8,0.9-1.8,1.5-2.1,1.2s-1.4-0.7-2.4-0.8c-2.2-0.3-5.5-1.8-5.5-2.5c0-0.3,1.1-0.9,2.4-1.5
		c1.3-0.5,2.3-1.3,2.2-1.8s0.9-0.9,2.3-0.9c2.9-0.1,7-1.9,5.5-2.3c-0.6-0.2-1-0.8-1-1.4c0-1.2,4.1-1.5,5.4-0.4
		c1.2,1.1,4.4,1.8,4.4,1c0-0.4-0.9-0.9-2.1-1.2c-1.7-0.4-1.9-0.7-1.1-1.6c0.8-0.9,0.7-1.1-0.6-1.1c-1.8,0-4.9-2-4.2-2.7
		c0.3-0.3,2.2-0.6,4.2-0.8c4.1-0.4,4.1-0.4,2.9-2.5c-0.8-1.3-1-1.4-2.8-0.3c-1.8,1.1-2,1.1-2.5-0.4c-0.3-0.9-0.9-1.4-1.3-1.1
		c-0.4,0.2-0.8,0.1-0.8-0.4c0-0.4-0.7-0.8-1.6-0.8s-1.6-0.5-1.6-1.1c0-1.1,1.7-1.9,4.2-1.9c1.9,0,2.1-1.4,0.4-2
		c-0.7-0.2-1.1-0.7-0.8-1c0.2-0.3-0.5-1-1.7-1.6c-2.8-1.4-2.1-2.6,1.4-2.6h2.9l-2.1-2.5c-1.6-1.9-1.8-2.7-1-3.4s1.6-0.3,3.7,1.8
		c2.5,2.5,2.8,2.6,3.6,1.3c0.5-0.8,1.3-1.4,1.7-1.4c1,0,3.6,4.2,4.1,6.7c0.4,1.9,7.9,7.8,9.1,7.1c0.3-0.2,0.5-2.2,0.4-4.5
		s0.1-4.1,0.5-4.1s0.6-1.2,0.5-2.8c-0.2-2.3-0.6-2.9-2.5-3.3c-2-0.5-2.2-0.4-1.8,0.8c0.7,2.2-1.2,2.7-2.8,0.8
		c-0.8-1-1.6-1.4-1.9-0.9c-0.6,0.8-3.8,0.4-3.8-0.5c0-0.7,4.1-4.2,4.8-4.1c0.3,0,1.2-0.1,2-0.3c2.3-0.6,0.8-1.6-1.6-1.2
		c-4.1,0.8-7.8,0.6-8.2-0.3c-0.2-0.5,0.2-0.9,0.8-0.9c0.7,0,1.6-0.5,2.2-1.1s1.3-0.9,1.7-0.7c0.4,0.2,0.7,0.1,0.7-0.2
		s-1.1-1.3-2.5-2.1c-2.5-1.5-3.2-2.6-1.6-2.6c1.5,0,6.8,2.3,7.6,3.2c0.4,0.6,0.5,0.3,0.2-0.7c-0.3-0.9-0.1-1.8,0.3-2.1
		c0.9-0.5,4.2,4.3,4.2,6.1c0,0.7,0.2,1,0.5,0.7s1,0.1,1.7,0.8c1,1.1,1.1,0.8,0.7-2.4c-0.3-3-1.1-4.4-4.1-7.6c-2-2.2-3.7-4.4-3.7-5
		c0-1.8,4.1-0.6,5,1.4c1.4,3.3,2.8,2.1,2.5-1.9c-0.2-3,0.1-4.1,1.4-5.4l1.7-1.7l0,0l0,0l0.1,1.8c0,1,0.1,4,0.2,6.8l0.1,4.9l3-2.9
		c3.5-3.3,4-3.5,3.9-1.2c0,0.9-1.4,3.1-3.1,4.9c-2.7,2.8-3.1,3.7-3.3,7.4c-0.1,2.8,0.1,4.1,0.7,3.7c0.5-0.3,0.8-1,0.8-1.6
		s0.4-1.1,0.8-1.1c0.5,0,0.8-1.3,0.8-2.9c0-3.3,2.1-5.7,3.3-3.8c0.4,0.6,0.6,1.5,0.4,2c-0.4,1.1,1.9,0.4,3.5-1.1
		c0.6-0.5,1.6-1,2.1-1c2.2,0,1.9,2.1-0.8,5c-3.2,3.4-3.4,4-1.3,4.6c1,0.3,1.4,0.8,1.1,1.8c-0.5,1.6-2.7,1.9-4.1,0.5
		c-1.1-1-1.1-1-1.3,1.9c-0.2,2.4,0,2.4,2.8,0.9c2.7-1.4,7.3-4.2,7.3-2.5c0,0.8-5.2,5.1-6.7,6.1c-2,1.4-2.2,1.8-0.9,1.5
		c1.1-0.3,1.9,0,2.2,0.8c0.7,1.7,1.3,1.5,6.7-1.7c2.7-1.6,5.3-2.8,5.7-2.6c1.7,0.6,0.6,3.5-1.8,4.7l-2.4,1.2l2.2,0.2
		c1.2,0.1,2.4,0.7,2.6,1.3c0.5,1.1-1.6,2.2-2.8,1.5c-0.4-0.2-0.8-0.1-0.8,0.4c0,0.4-0.6,0.8-1.4,0.8c-1,0-1.1,0.2-0.3,0.5
		c0.9,0.3,0.7,0.7-0.7,1.7l-2,1.5l3.4,0.5c3.5,0.5,4.3,1.8,2.2,3.4c-0.8,0.6-1.6,0.7-2.6,0.2c-1.5-0.8-4.4-0.4-4.4,0.7
		c0,0.4-0.7,0.7-1.6,0.7s-1.6-0.3-1.6-0.8c0-0.4-0.8-0.7-1.8-0.7h-1.8l2,1.5c1.6,1.2,1.8,1.7,0.9,2.2c-1.2,0.7-3.3,0.2-4.4-1.1
		c-0.4-0.5-0.5,0.1-0.2,1.3c0.4,1.7,0.2,2.1-1.2,2.1c-0.9,0-1.7-0.4-1.7-0.9c0-0.6-0.2-0.6-0.5,0.1c-0.3,0.8-0.7,0.6-1.5-0.8l-1-1.8
		l-1,2.1c-0.6,1.1-0.8,2.3-0.4,2.6c0.3,0.3,3.3,0.7,6.5,0.8c5.4,0.3,6.2,0.1,9.8-2c3.6-2.1,6.2-2.4,6.2-0.8c0,0.4-1,1.2-2.2,1.8
		l-2.2,1.2l2.9-0.5c2.8-0.5,7.6-2.7,9.7-4.6c0.6-0.5,1.8-1,2.7-1c1.7,0,2.1,1.5,0.8,2.7c-0.5,0.5,0.8,0.8,3.4,1
		c2.3,0.1,4.5,0.4,4.9,0.6c2.7,1.5-3.9,4.3-8.7,3.7l-3.3-0.4l2.3,1.2c1.4,0.7,2.2,1.7,2,2.5c-0.4,1.8-3.9,1.2-6.2-1.1
		c-1-1.1-2.5-1.8-3.3-1.6c-1.1,0.2-1,0.5,0.7,1.2c2.8,1.1,3.6,2.3,1.9,2.9c-0.7,0.3-1.1,0.9-0.9,1.4s-0.1,1.2-0.8,1.4
		c-0.6,0.2-1.2,0.1-1.2-0.2c0-0.6-2.6-1.7-4.6-1.9c-0.5,0-1.7-0.7-2.7-1.5c-0.9-0.8-1.7-1.2-1.7-0.9c0,0.8,1.8,2.3,3.9,3.4
		c1,0.5,1.8,1.2,1.8,1.6c0,1.4-2.5,1.6-4.1,0.4c-1.5-1.2-1.5-1.2-1.1,0.3c0.6,2.2-1.1,2-2.7-0.4c-1-1.5-1.5-1.7-2.1-0.9
		s-0.8,0.8-1.4,0c-0.4-0.6-1.4-0.9-2.2-0.8c-3.3,0.4-7.6-2.3-7.8-4.9c-0.1-1.4-0.2-1.3-0.7,0.3s-0.1,2.3,2.3,4.3
		c1.6,1.3,5.2,3.5,8,4.9l5.1,2.4l3.9-1.8c2.2-1,4.4-1.9,5-2c1.5-0.3,1.3,1.2-0.4,3c-1.3,1.4-1.3,1.4,0,0.5c0.8-0.5,1.7-0.8,2.1-0.6
		s1.7-0.1,3-0.7c3-1.4,4-1.4,3.4,0.2c-0.4,1.1,0,1.3,2,1.2c1.3,0,2.6-0.3,2.9-0.5c1-0.9,3.6,0.4,3.6,1.9c0,1.2-0.4,1.4-1.7,1.1
		c-1.6-0.4-1.7-0.4-0.3,1c1.5,1.5,1.2,1.7-1.9,1.5c-1.4-0.1-1.7,0.1-1.3,1.2c0.4,1.1,0.2,1.2-1.5,0.9s-2-0.1-1.7,1
		c0.4,1.5-0.1,1.7-2.1,0.7s-4.5,2.1-2.9,3.5c0.9,0.8,1.2,0.8,1.6-0.1c0.2-0.6,1.7-1.1,3.3-1.1c1.6-0.1,2.7,0.2,2.4,0.6
		c-0.2,0.4,0.3,0.5,1.2,0.3c2.1-0.5,2.1,0.6,0.1,1.8c-1.1,0.6-1.4,1.4-1.1,2.8c0.5,2.4,0.6,2.4,3.6,0.1c1.3-1,3-1.9,3.6-1.9
		c1.4,0,1.4,0.4,0.4,2.2c-0.9,1.5-0.3,1.5,5.9,0.4c2-0.4,3.1-0.3,3.1,0.3c0,1-4.2,3.1-6.2,3.1c-1.1,0-1.2,0.2-0.4,1.1
		c0.8,0.9,0.8,1.2-0.2,1.5c-0.7,0.2-1.5,0.4-1.9,0.3c-1.7-0.3-2.8,0.1-2.6,1c0.1,0.6-0.7,0.9-2,0.9c-1.7,0-2.3,0.3-2.3,1.5
		c0,1.5-0.1,1.5-1.6-0.2c-1.3-1.4-1.6-1.5-1.6-0.5c0,0.7-0.4,1.1-0.8,0.8c-0.5-0.3-1.2,0.4-1.6,1.5s-1.4,2.1-2,2.4
		c-0.7,0.2-1.3,0.9-1.3,1.5s-0.6,1.1-1.3,1.1c-0.7,0-1.8,0.6-2.4,1.3c-1,1.2-1.2,1.2-3-0.2l-1.9-1.5l1.5,1.6c0.9,1,3.6,2.1,7.1,2.8
		c7.2,1.6,8.9,1.5,11.9-0.2c2.7-1.7,4.1-1.3,3.3,0.8c-0.4,1.2-0.1,1.5,1.8,1.5c1.3,0,2.7-0.3,3.2-0.8s1.3-0.4,2.4,0.3
		c1.5,1,1.5,1.1-1,2.4c-1.9,1-2.5,1.8-2.2,2.7s0.1,1.3-0.6,1.2c-2.4-0.3-3.3,0.1-2.8,1.2c0.8,1.9-2.2,2.8-4.5,1.3
		c-1.5-0.9-1.7-1-1-0.1c1.4,1.6,0.1,3.2-2.1,2.6c-3.1-0.9-3.9,0.5-0.9,1.6c3.9,1.3,7.8,1.3,9.2-0.1c1.6-1.5,4.1-1.5,3.5,0
		c-0.4,0.9,0.2,1,3.2,0.7c4.4-0.6,4.9,0.7,0.9,2c-2,0.7-2.7,1.3-2.4,2.2c0.4,1.5-2.1,2.4-4.1,1.4c-1.1-0.6-1.4-0.3-1.4,1.2
		s-0.3,1.8-1.8,1.4c-1.4-0.3-1.7-0.2-1.2,0.9c0.4,1.1,0.2,1.3-1.1,1c-0.9-0.2-1.7-0.1-1.7,0.3c0,1.3-1.7,0.7-3.9-1.5
		c-2.6-2.6-4.2-3.1-6.1-2.2c-2.2,1.1-1.7,1.9,1,1.6c2.8-0.4,3.2,0.8,1.2,3.4c-1.2,1.6-1.2,1.7,0.3,1.7c0.9,0,2.2,0.5,2.9,1.1
		c0.7,0.6,1.8,1.1,2.5,1.1s1.5,0.3,1.7,0.7c0.3,0.4,1.9,0.7,3.7,0.7c1.7,0,3.7,0.2,4.2,0.6c0.6,0.3,2.3,0.5,3.7,0.4
		c2.2-0.1,2.7,0.1,2.9,1.6c0.2,1.2,0.8,1.7,2.3,1.8c1.1,0,2.4,0.2,2.9,0.3c0.5,0.1,1.5,0.1,2.2,0c0.8-0.1,1.4,0.2,1.4,0.5
		c0,1-4.5,3.2-6.6,3.2c-1.8,0-1.8,0-0.4,1.5c1.4,1.5,1.4,1.5-0.7,1.5c-1.6,0-2,0.3-1.7,1.2c0.4,0.9,0.1,1.1-1.9,0.7
		c-1.3-0.3-2.5-0.5-2.8-0.5c-2.6,0-3.1,0.3-2.8,1.2c0.9,2-1.3,2-2.5-0.1c-1.2-2-1.2-2-1.3-0.4c0,0.9-0.3,1.7-0.7,1.8
		c-5,0.7-5.8,0.4-6.8-1.8l-1-2.3l-0.7,1.8l-0.7,1.8l-1.6-1.9c-1.6-1.9-1.6-1.9-1.6-0.2c0,2.3-1.5,2.2-2.1-0.2
		c-0.3-1-0.9-1.9-1.3-1.9s-0.5,0.4-0.2,0.8c0.4,0.6-0.2,0.7-2.1,0.3c-2-0.4-2.6-0.3-2.3,0.4c0.5,1.4,5.6,3.7,8.2,3.7
		c1.2,0,2.3,0.4,2.6,0.9c0.2,0.6,1.8,0.9,4.2,0.9c2.1,0,3.8,0.2,3.8,0.5c0,1.4-2.8,3-5.1,2.8c-1.3-0.1-2.5,0.1-2.6,0.4
		c-0.2,1.3,4.6,2,16.2,2.4c13.1,0.5,18.4,1,18.4,1.8c0,0.3,0.9,0.4,2,0.2c1.2-0.2,2,0,2,0.4c0,1.1-2.7,2.4-4.8,2.4
		c-0.9,0-1.7,0.3-1.7,0.8c0,0.4,0.4,0.8,0.9,0.8s1.7,0.7,2.7,1.6l1.8,1.6l-2.7-0.3c-1.8-0.2-2.7,0-2.7,0.6s-0.7,0.8-1.6,0.5
		c-0.9-0.2-1.6,0-1.6,0.4c0,1.2-2.1,1-3.3-0.3c-0.6-0.6-1.4-1.1-1.8-1.1c-0.5,0-0.3,0.6,0.5,1.4c0.7,0.8,1.4,1.6,1.4,1.9
		c0,0.8-3.1,0.6-3.7-0.2c-0.8-1.2-1.9-0.9-2.5,0.8c-0.7,1.9-1.6,1.9-4.5,0l-2.4-1.6l0.5,2.3c0.6,2.8-0.9,3.1-4.2,0.7
		c-2.2-1.6-2.2-1.6-1.4-0.1c1,1.7,0.5,2.6-1.2,2c-0.6-0.2-1.7,0-2.4,0.5c-0.8,0.6-1.2,0.7-1.2,0.1c0-0.5-0.6-0.8-1.2-0.8
		s-1.2,0.5-1.2,1.1c0,0.7-0.7,1-2.2,0.8c-8.5-0.9,2.5,3.7,12.4,5.1c6.5,1,7.1,0.9,9.2-0.4c1.3-0.8,2.7-1.4,3.3-1.4
		c1.7,0,1.2,1.5-0.8,2.3c-1.4,0.5-0.9,0.6,1.8,0.2c2-0.3,4.6-0.5,5.7-0.4c1.1,0.1,3.9-0.4,6.1-1c2.2-0.6,4.1-1,4.3-0.8
		c0.9,0.8-4.4,3.9-7.3,4.3l-3.5,0.5l3.1,0.1c2.1,0.1,3.1,0.4,3.1,1.2c0,0.6-0.6,1.2-1.4,1.2c-0.8,0.1-1.8,0.2-2.2,0.3
		c-0.4,0.1-1.3,0.2-2,0.3c-0.9,0.1-0.8,0.4,0.4,1.2c2,1.4,1.1,2.3-1.2,1.2c-1.4-0.7-1.7-0.6-1.7,0.4s-0.6,1.2-2.7,0.9
		c-1.5-0.2-3.4-0.6-4.3-0.9c-1.6-0.5-1.6-0.5,0,0.6c1.6,1.2,1.3,1.5-1.4,1.2c-0.8-0.1-1.4,0.4-1.4,1.1c0,1.6-0.7,1.5-2.6-0.5
		l-1.7-1.7l1.3,2c0.7,1.1,1.3,2.4,1.3,2.8c0,1.2-4,0.3-5.9-1.3c-1.6-1.3-1.6-1.3-1,0.5c0.9,2.5,1.9,3.1,9.4,5.2
		c6.3,1.7,6.6,1.8,10,0.6c3.7-1.3,8.8-1.7,8.8-0.6c0,0.3-0.4,1-1,1.5c-0.7,0.6,0.4,0.5,3.3-0.3c2.4-0.7,4.9-1,5.6-0.8
		c1.1,0.4,1,0.7-0.6,2.3l-1.9,1.8l2.8-0.7c3.6-0.9,7.9-0.9,8.5,0c0.6,1-4.8,3-8,3h-2.6l2.4,1.8c2.4,1.7,2.3,4,0,3.2
		c-0.8-0.3-1.1,0.2-1.1,1.5s-0.4,1.9-1.6,1.9c-0.9,0-2.1,0.5-2.8,1.1c-1,1-1.5,1-2.9,0.2c-0.9-0.5-1.7-1.2-1.7-1.5s-0.6,0-1.5,0.8
		c-1.6,1.4-2,3.2-0.8,3.2c0.4,0,0.5,0.4,0.2,0.8c-0.4,0.6,0.2,0.7,2,0.3c1.6-0.3,2.6-0.2,2.6,0.3s1.6,0.8,3.7,0.8
		c3.8,0,4.6,0.7,2.5,2.3c-0.8,0.6-2.5,0.8-5.1,0.5l-3.9-0.4l3,1.5c2.1,1,2.9,1.8,2.6,2.7c-0.3,0.7-1,1-1.8,0.7
		c-0.7-0.3-1.9-0.6-2.6-0.7c-0.7-0.1-0.8,0-0.2,0.1c2.1,0.7,1,1.9-1.2,1.4c-1.6-0.3-1.9-0.3-1,0.3c2.2,1.3,0.2,1.7-2.3,0.5
		c-1.4-0.7-2.5-0.9-2.5-0.5s0.5,0.9,1,1.1c0.6,0.2,0.7,0.6,0.4,1c-0.4,0.3-1.7,0.3-3-0.2c-1.9-0.7-2.3-0.6-1.9,0.2
		c0.3,0.8,0,0.9-1.1,0.5c-1.3-0.4-1.4-0.3-0.5,0.6c0.8,0.8,3.7,1,12.9,0.9c7.1-0.1,11.8,0.1,11.8,0.6c0,0.4-0.6,0.7-1.3,0.7
		s-1.8,0.5-2.4,1.1c-1,0.9-1,1.1,0.1,1.5c0.7,0.2,2.4,0.4,3.9,0.4c3,0,5.1,1,4.3,2.1c-0.9,1.3-4.9,1.6-8.3,0.5
		c-4.5-1.4-4.7-1.4-2.4,0.8c2.9,2.6,2.7,4.2-0.4,3.4c-1.3-0.4-2.8-0.9-3.3-1.1c-0.5-0.3-0.9,0.1-0.9,0.9c-0.1,0.7-0.2,1.7-0.2,2.2
		s-0.3,1.1-0.6,1.4c-0.6,0.6-5.6-1.9-5.6-2.9c0-0.3-0.3-0.4-0.8-0.2c-0.5,0.3-0.5,1.1,0,2.3c0.4,1,0.8,2.2,0.8,2.7
		c0,1-3.9-1.6-7.7-5.1c-2.9-2.7-3.3-2.2-0.6,0.7c0.7,0.7,1,1.9,0.7,2.6c-0.5,1.1-0.7,1.1-2.6-0.5l-2.1-1.8l0.3,1.9
		c0.3,1.7,0.8,2,6.8,2.9c4.2,0.6,7,0.7,7.8,0.3c2-1.2,6.5-1.9,6.5-1c0,0.4-0.6,0.9-1.4,1.1c-0.8,0.2,0.4,0.2,2.7,0
		c3.3-0.3,3.9-0.2,3.1,0.6c-1.6,1.5-1.2,2,1,1.6c2.6-0.5,6.4,0.4,5.7,1.3c-0.3,0.4-1.3,0.7-2.4,0.7c-3.5,0-3,1,1.3,2.6
		c7.3,2.7,5.7,4.7-1.8,2.3c-3.8-1.2-5.3-1-2.5,0.4c0.9,0.5,1.7,1.4,1.7,2c0,0.9-0.5,1.1-2.2,0.7c-1.9-0.4-2.1-0.4-1.1,0.7
		c2.2,2.4-0.1,2.4-3.8,0c-1.7-1.1-1.8-1.1-1.3,0.5c0.4,1.6,0.4,1.6-0.9,0.7c-1.2-0.9-1.3-0.9-0.8,0.4c0.5,1.2,0.3,1.2-1.5-0.3
		c-2.1-1.7-3.4-1.6-2.6,0.3c0.6,1.5-1.3,1.3-4.4-0.4c-1.5-0.8-2.7-1.1-2.7-0.7c0,0.5-0.9,0.6-2.2,0.4c-1.5-0.3-1.9-0.2-1,0.2
		c0.7,0.4,3.2,1.1,5.7,1.5c5.3,1,7,1.8,6.2,3.1c-0.6,0.8-1.7,0.7-6.6-0.5c-1.3-0.3-1,0.2,1,2c1.5,1.3,2.7,2.5,2.7,2.7
		c0,0.7-4.5-0.2-7.2-1.5c-2.9-1.4-3.3-1-1.4,1.3c1.7,2,1.5,2.9-0.4,2.4c-1.1-0.3-1.6,0-1.6,0.7c0,1.4-0.7,1.3-2.7-0.3
		c-1.5-1.3-1.6-1.2-1.3,0.2c0.4,2.3-4.1,1.6-6.5-1l-1.9-2l0.5,2.4c0.7,3.2-1.3,3.3-4.5,0.2c-1.3-1.2-2.4-2.3-2.6-2.3
		s-0.3,0.9-0.4,1.9c-0.2,3-1.5,3.8-3.2,1.9c-1.3-1.4-1.5-1.5-2.5-0.3s-1.1,1.2-1.6-0.4c-0.3-1-0.9-1.5-1.6-1.2
		c-0.7,0.2-1.3-0.3-1.7-1.6c-0.4-1.4-0.8-1.7-1.2-1.1c-0.4,0.5-1.4,1.1-2.4,1.2c-1.3,0.2-2.1-0.5-3.5-3.1c-1.8-3.4-3.7-4.7-2.7-1.9
		c0.6,1.8,0.2,1.9-2.5,0.3c-1.1-0.7-2-1.9-2.1-2.8c-0.1-1.3-0.2-1.3-0.5-0.3c-0.6,2.2-1.9,0.7-1.9-2.3c0-2.2-0.2-2.5-0.8-1.5
		c-0.5,0.7-1.6,1.3-2.5,1.3 M88.7,135.4c-0.4,0-1.3,0.7-2.3,1.7c-1.7,1.7-2.5,3.3-2.5,5c0,1.4,0.2,2.5,0.3,2.5
		c0.4,0,1.5-2.3,1.9-4.1c0.2-0.8,0.8-2,1.5-2.7S88.8,136.1,88.7,135.4C88.9,135.4,88.8,135.4,88.7,135.4L88.7,135.4z M90.7,146.4
		c-1.6,0.1-5.3,2.5-5.9,3.9c-1.1,2.6-0.5,3.1,1.4,1.1c0.8-0.9,1.9-1.6,2.5-1.6c0.9,0,3.2-2.9,2.6-3.4
		C91.1,146.4,90.9,146.4,90.7,146.4L90.7,146.4z M68.4,152.6c-0.2,0-0.4,0-0.7,0.1c-1.3,0.3-1,0.8,2.1,3c2,1.4,4.4,2.7,5.3,2.7
		c0.9,0.1,1.5,0.4,1.5,0.7s0.4,0.6,0.9,0.6s0.8-0.8,0.6-1.7c-0.2-1.5-0.7-1.7-3.3-1.5c-2.4,0.2-3.1,0-3.1-0.9c0-0.7-0.6-1.2-1.2-1.2
		c-0.7,0-1.2-0.5-1.2-1.1C69.2,152.8,68.9,152.6,68.4,152.6L68.4,152.6z M77.8,163.3l-1.9,0.9c-1.1,0.5-2.8,0.6-3.9,0.4
		c-1.1-0.3-2-0.1-2,0.3c0,0.4,0.4,0.8,0.8,0.8s1.3,0.2,1.9,0.4s2-0.3,3.1-1.2L77.8,163.3L77.8,163.3z M68.9,165.2
		c-0.2,0-0.5,0.2-0.8,0.5c-0.9,0.7-1.2,0.7-1.2,0c0-0.5-0.4-0.6-0.9-0.4c-0.7,0.4-0.5,0.8,0.6,1.5c2.1,1.4,2.8,1.3,2.8-0.6
		C69.2,165.5,69.2,165.1,68.9,165.2L68.9,165.2z M56.5,167.9c-0.7,0-1.1,0.3-0.8,0.8c0.7,1,2,1,2,0
		C57.8,168.3,57.2,167.9,56.5,167.9L56.5,167.9z M75.8,179.9c-0.4,0-0.8,1.7-0.8,3.8c0,3.8,0.1,4.1,1.1,3.2
		C76.9,186.1,76.7,179.9,75.8,179.9L75.8,179.9z M82,190c-0.3,0-0.5,0.1-0.5,0.4c0,0.4,0.4,0.8,0.8,0.8c1,0,1-0.5,0-1.1
		C82.2,190,82.1,190,82,190L82,190z M75.4,191.6c0,0-0.1,0.1-0.2,0.2c-0.2,0.5-0.2,1.5,0,2.3c0.2,0.7,0.4,0.3,0.4-0.9
		C75.6,192.2,75.6,191.6,75.4,191.6L75.4,191.6z M85.6,192c-0.5,0-0.8,0.1-0.8,0.3s0.4,0.5,0.8,0.8s0.8,0.1,0.8-0.3
		C86.4,192.3,86,192,85.6,192z M89.7,193.5c-0.4,0-0.8,0.1-0.8,0.3s0.4,0.5,0.8,0.8c0.5,0.3,0.8,0.1,0.8-0.3
		C90.5,193.8,90.1,193.5,89.7,193.5z M106.7,193.5c-0.6,0.1-1.3,0.4-1.8,1c-1.7,1.9-4.4,2.2-5.9,0.5c-1.3-1.4-3.3-1.5-2.3,0
		c0.3,0.4-0.1,0.7-0.8,0.7s-1.5-0.3-1.7-0.8c-0.7-1-2-1-2,0c0,0.4,1,1.1,2.2,1.6c1.2,0.4,4.4,1,6.9,1.2c4.1,0.3,4.7,0.2,5.5-1.1
		c0.5-0.8,0.9-1.9,0.9-2.3C107.7,193.7,107.3,193.4,106.7,193.5L106.7,193.5z M31.7,233.3c-0.5,0-0.9,0.3-0.9,0.8c0,1,0.6,1,1.2,0
		C32.3,233.6,32.2,233.3,31.7,233.3z M100,242.3c-0.5,0,0.5,0.7,2.1,1.5c3,1.5,4.7,1.9,4.7,1.1C106.9,244.5,101.2,242.3,100,242.3
		L100,242.3z M29.4,274.4c-0.9,0-1.8,0.1-2.3,0.3c-1.1,0.4-0.6,0.6,1.9,0.6c1.9,0,3.5-0.1,3.5-0.2C32.5,274.7,30.9,274.4,29.4,274.4
		z M11.1,278.5c-0.3,0-0.6,0-0.9,0.1c-0.7,0.2-0.4,0.4,0.5,0.4s1.3-0.1,1.1-0.4C11.7,278.5,11.4,278.5,11.1,278.5z M10.9,297.2
		c0,0-0.1,0-0.2,0c-0.4,0-1.4,0.3-2,0.7c-0.7,0.4-0.9,0.7-0.4,0.7s1.4-0.3,2-0.7C11,297.6,11.2,297.3,10.9,297.2L10.9,297.2z
		 M153.4,327.6c-0.4-0.1-0.5,0.1-0.3,0.4c0.3,0.4,0.8,0.8,1.3,0.8c1.2,0,0.9-0.6-0.5-1.1C153.7,327.6,153.5,327.6,153.4,327.6
		L153.4,327.6z M140.1,334l-1.9,1.8l-1.8,1.8l-1.4-2c-1.3-1.8-1.5-1.8-2.2-0.6c-0.6,1-1,1.1-1.5,0.4s-0.8-0.5-1.2,0.7
		c-0.6,1.6-2.1,2.3-2.1,0.9c0-0.4-1-0.8-2.2-0.8h-2.2l2.5,1.2c1.6,0.8,3.7,1,5.9,0.8c1.9-0.2,3.3,0,3,0.3c-0.6,1,0.6,0.8,3.1-0.4
		c1.3-0.6,2.3-0.8,2.5-0.3c0.1,0.4,0.9,0.5,1.7,0.2c1.4-0.5,1.3-0.6-0.4-2.3L140.1,334L140.1,334z M121.1,334.8c-0.2,0-0.3,0-0.5,0
		c-0.6,0.2-0.2,0.5,0.9,0.8c1.4,0.3,1.7,0.2,1.1-0.3C122.2,335,121.7,334.8,121.1,334.8z M129.4,365.8c-0.3,0-0.5,0.1-0.5,0.4
		c0,0.4,0.4,0.8,0.8,0.8c1,0,1-0.5,0-1.1C129.6,365.9,129.5,365.8,129.4,365.8L129.4,365.8z"/>
	<path class="st1" d="M83.9,382.1c0,0-1-0.3-0.4,5.3c0.4,3.9,1.2,14,2.6,16.5c0.8,1.4,1.4,2.7,1.8,3.4H67.4
		c-0.9-0.7-0.5-1.8,0.4-3.9c1.4-3.2,2-16.7,0.9-17.1"/>
</g>
<path class="st1" d="M10.7,378.9c2,0,2.1,0.4,1.4,8c-0.4,5.3-1.5,24.7-3.1,28c-1,1.9-1.8,3.7-2.2,4.6h24.9c1.1-0.9,0.6-2.5-0.5-5.3
	c-1.8-4.4-2.5-28.3-1.1-28.8"/>
<path class="st2" d="M30.2,385.4c0.5-0.2,1.8,1,2.8,2.7c1.8,3.2,4.1,4.4,3,1.6c-1.2-3.2,0.7-1.4,2,1.9c1.1,2.7,1.9,3.5,3.8,3.3
	c1.3-0.1,3,0.3,3.8,0.9c1,0.8,1.5,0.7,1.8-0.1c0.3-0.8,1.1-0.6,2.4,0.8c2.6,2.7,3.9,2.5,3.3-0.3c-0.3-1.4-0.1-1.9,0.3-1.2
	c1.2,1.5,4.4,2.6,4.4,1.5c0-1,5.5-0.7,8.4,0.5c1.5,0.6,1.8,0.4,1.3-0.9c-0.3-0.9-0.1-1.8,0.6-2.1c0.9-0.3,0.9-0.8,0-1.8
	c-2.3-2.5-1.3-2.8,2.4-0.8c4.1,2.2,5.3,1.9,3.3-0.9c-1.1-1.5-1.1-1.6,0-0.6c0.7,0.7,1.9,1,2.7,0.7c0.8-0.3,1.4-0.1,1.4,0.4
	s0.6,1.8,1.4,2.9c1.2,1.7,1.6,1.8,3.1,0.5c1.4-1.2,1.8-1.1,3.3,1l1.6,2.4l0.9-2.5c0.8-2.3,1-2.4,2.2-0.7c1.6,2.2,2.3,2.2,4.3,0.2
	c1.2-1.3,1.3-1.9,0.3-3.1c-0.7-0.8-0.9-1.5-0.6-1.5c0.4,0,0.1-1-0.5-2.3c-1-1.9-0.6-1.8,2.2,0.8c6.2,5.8,6.7,6,8.4,4.2
	c0.9-0.9,1.3-2.2,0.8-2.9c-0.4-0.7,0.1-0.6,1.2,0.3c5.3,4.4,10.7,5.2,7,1.1c-1.6-1.9-1.6-2,1-2.7l2.7-0.7l-2.9-2.5
	c-3.9-3.2-1.8-3.2,3.7,0c2.4,1.4,5,2.6,5.6,2.6c2,0,1.4-1.6-1-2.8c-2-1-1.9-1.1,1.8-1.2c2.2,0,4.9-0.7,6-1.6c1.9-1.4,1.8-1.5-1-1.5
	c-4.3,0-19.6-2.9-22.7-4.3c-3.9-1.6-4.6-4.2-0.8-2.7c3.4,1.3,5.1,0.2,2.6-1.6c-1.4-1.1-1-1.2,2.9-0.9c4.9,0.4,5.9-0.9,2.3-2.8
	c-2-1-1.6-1.1,2.6-0.9c5.7,0.3,7.4-1.7,2.4-2.9l-3.3-0.8l3.3-0.4c3.8-0.5,4.2-1.5,1-3.2c-1.8-1-1.1-1.1,4.3-0.6c6,0.5,6.3,0.4,4.5-1
	c-1.1-0.9-2.7-1.6-3.7-1.6s-2-0.5-2.4-1.1c-0.4-0.7,0.2-1.1,1.7-0.9c4.2,0.4,6.9,0,6.9-0.9c0-0.5-3.2-1.2-7-1.6
	c-3.9-0.4-6.8-1.1-6.5-1.5c0.3-0.5,3.2-1.4,6.4-2.2c6.1-1.4,10-3.5,8.8-4.8c-0.6-0.6-6.2,0.3-13.7,2.3c-2.3,0.6-2.2,0.4,0.9-2.4
	c5.2-4.6,2.2-5.1-5.2-0.8c-7.5,4.2-11.8,4.6-20.1,1.6c-9.4-3.3-24.6-11.3-25.8-13.5c-1.4-2.7-0.6-2.6,1.9,0.2
	c1.1,1.2,2.1,1.9,2.1,1.4s0.7-0.3,1.5,0.5c1.2,1.1,1.5,1,1.5-0.6s0.5-1.4,3.1,1.2l3.1,3l-0.6-3.3c-0.6-3.3-0.6-3.3,2.1-2.1
	c1.5,0.7,3.4,1.7,4.2,2.4c3.9,3.1,4.3,3,3.6-0.6c-0.5-2.7-0.4-3.2,0.5-2.2c1.7,1.8,5.9,1.6,5.9-0.3s1.6-2,2.7-0.2
	c0.4,0.8,2.1,2.2,3.6,3.2c2.3,1.5,2.8,1.6,2.8,0.3c0-0.8-0.9-2.3-2-3.4c-1.1-1-2-2.4-2-2.9c0-0.6,0.3-0.7,0.6-0.4
	c0.3,0.4,1.3-0.1,2.2-1c1.1-1.1,2.7-1.5,5.3-1.1c2.6,0.4,3.9,0.1,4.3-0.9c0.4-1.1,1.3-1.2,3.8-0.4c8.8,2.6,10.5-0.4,1.9-3.5
	c-5.8-2.2-6.5-3.2-1.1-1.6c6.9,2,15.8,0.5,12-2.1c-0.8-0.6-3.5-1.1-6-1.2c-3.8-0.1-4.1-0.2-1.6-0.8c1.6-0.4,3.1-1.3,3.4-2.1
	c0.4-1.2-1.2-1.3-9.7-0.7c-10,0.7-10.2,0.7-9-1.3c1.8-3,0.6-3.6-4.4-1.8c-2.7,0.9-6.2,1.3-8.9,1c-5.8-0.7-25-7.3-27.2-9.4
	c-2.4-2.1-2.2-3.6,0.2-2.8c1.1,0.4,2,0.2,2-0.4c0-1.1,1.5-0.8,6.5,1.5c1.7,0.7,5.3,1.4,8.1,1.4c2.8,0,5.5,0.1,6,0.2
	c2.3,0.5,2.6-0.2,0.8-2.4c-1.3-1.5-0.9-1.4,1.2,0.5c3.5,3.2,4.4,3.5,4.4,1.3c0-1.4,0.3-1.4,2.6,0.2c1.5,1,2.9,1.3,3.3,0.8
	s2-1.6,3.7-2.3c2.9-1.3,2.9-1.4,1.1-2.8c-2.3-1.7-1.7-1.8,1.9-0.5c1.9,0.8,2.6,0.7,2.6-0.3c0-0.8,2.5-1.9,6.5-2.7
	c3.6-0.8,6.5-1.8,6.5-2.3s0.4-0.6,1-0.3c0.5,0.3,1.8,0.2,2.8-0.4c1.5-0.9,1.4-1.1-1-1.7c-2.1-0.5-2.6-1.2-2.2-2.6s0-1.9-1.7-2.2
	c-1.6-0.2-0.5-1,3.9-2.4c6.8-2.2,8.5-4.3,2.5-3.1c-5.5,1.1-19.3,1.4-19.3,0.4c0-0.5,0.4-0.9,1-0.9s1-0.5,1-1c0-0.6-2.1-1-4.8-0.9
	c-6.6,0.1-17.1-2.1-17.7-3.8c-0.4-1,0.3-1.4,2-1.4c1.4,0,2.5-0.4,2.5-1c0-0.5,0.7-0.7,1.5-0.4c0.8,0.3,1.5,0,1.5-0.6
	c0-0.8,0.8-0.6,2.2,0.4c1.2,0.9,3.4,1.6,4.8,1.6h2.5l-2.3-2l-2.3-2l4.8-0.3l4.8-0.4l-3.5-1.7l-3.5-1.7h3.1c2,0,4-1,5.5-2.6
	c1.3-1.4,2.8-2.6,3.4-2.6s1.7-0.9,2.4-2.1c1.8-3-0.5-3.6-6.3-1.6c-6.2,2.2-7.5,2.1-6.9-0.4s0.5-2.5-5.8-0.4
	c-4.8,1.6-5.3,1.6-12.9-0.7c-10.3-3-13-5.9-5-5.4c0.8,0,1.8-0.4,2.2-1.1c0.5-0.8,1.3-0.6,2.7,0.7c1.6,1.5,2.9,1.7,6.1,1.2
	c4.6-0.8,4.8-1.2,2.3-3.3c-1.8-1.5-1.1-1.5,3.2,0.3c1.5,0.6,1.8,0.4,1.3-0.9c-0.5-1.3-0.1-1.7,1.4-1.7c1.4,0,1.9-0.5,1.5-1.5
	c-0.3-0.8,0-1.7,0.6-2c0.8-0.4,0.7-1-0.4-1.9c-1.5-1.3-1.5-1.6,0.8-3.8c3.6-3.6,2.9-4.3-2.4-2.6c-13.2,4.3-18,4.6-21.2,1.1
	c-1.8-2-1.9-2.6-0.7-3c0.8-0.3,2.8-0.1,4.5,0.6c4.3,1.7,5.2,0,1.6-3c-2.5-2.1-2.7-2.5-1-2.3c3.5,0.3,5.5-0.1,5.5-1.2
	c0-0.6-0.8-1.1-1.8-1.1c-1.4-0.1-1.4-0.3,0.3-1c1.2-0.5,2.4-1.6,2.7-2.5c0.5-1.4,0.3-1.5-1.6-0.4c-3.5,2-24.4,1.7-28.8-0.4
	c-3.1-1.5-3.2-1.7-1.2-1.8c1.9-0.1,2.3-0.5,1.8-2.2c-0.5-1.9-0.4-2,1.1-0.7c2.2,1.9,5.2,3,5.2,1.9c0-0.5,0.9-0.7,2-0.4s2,0,2-0.6
	s1.1-1.1,2.5-1.1c3.3,0,3.2-1-0.7-4.3l-3.2-2.7l5.4,0.9c5.5,0.9,7.5,0.5,6.5-1.2s1.7-4,4.7-4c3.4,0,3.9-1.7,0.7-2.4
	c-1.3-0.3-0.7-0.5,1.3-0.4c2.3,0.1,3.4-0.3,3.3-1.1c-0.1-0.7,0.2-1.3,0.8-1.3c0.8,0,0.7-0.5-0.2-1.6c-0.8-1-2.2-1.4-3.9-1.1
	c-1.4,0.3-2,0.3-1.3,0c2.3-1,1.3-2.7-1.3-2c-2,0.5-2.3,0.3-1.8-1.1c0.5-1.3,0.3-1.5-0.7-0.9c-0.7,0.5-2.5,0.9-3.9,1.1
	c-1.4,0.1-3.7,0.5-5.1,0.9l-2.5,0.7l2.8-2.4c3.2-2.8,3.6-4.5,0.8-2.9c-2.8,1.5-4.8,1.4-3.3-0.2c2.3-2.3,1.4-4.1-0.9-1.9
	c-1.2,1.1-3.5,2.7-5.3,3.6c-6.1,3-22.7-1.1-22.7-5.6c0-0.9-0.6-2.2-1.2-2.9c-0.8-0.8-0.8-1.2-0.1-1.2c0.6,0,1.3,0.7,1.7,1.5
	c0.4,1,1.8,1.5,3.9,1.4c1.8-0.1,4.3,0.2,5.5,0.6c1.9,0.6,2.3,0.3,2.3-1.4v-2.1l3.4,2.1c2.5,1.5,3.6,1.8,4.1,0.9
	c0.4-0.7,0.1-1.6-0.7-2.2c-1.2-0.8,4.7-0.7,8.6,0.2c0.6,0.1,2-0.1,3.3-0.5c2.1-0.7,2.2-0.9,0.7-2.6c-1.5-1.7-1.4-1.8,1-2.5
	c2.9-0.7,3.5-2.7,0.8-2.7c-1.1,0-0.6-0.6,1.3-1.5c1.7-0.8,4.3-2.6,6-3.9l2.9-2.5l-3.7-0.7c-2-0.4-3.7-1.2-3.7-1.7
	c0-0.6-1.2-0.7-2.8-0.3c-2.4,0.6-2.6,0.5-1.5-0.9c1.9-2.4-0.9-3.2-3.9-1c-1.4,1-4.4,1.8-7.3,1.8c-4,0.1-4.5-0.1-2.8-0.9
	c2-0.9,2.1-1.7,1.3-5.7c0-0.2-1.6,0.6-3.4,1.8c-1.9,1.2-4.9,2.1-6.8,2.1c-6.3,0-17-4.3-23.8-9.5c-2.6-2-2.1-2.4,1-0.7
	c1.6,0.9,1.9,0.7,2-0.8c0-1.8,0.1-1.8,1.1,0c0.6,1,1.4,1.6,1.9,1.3s2.1,0.2,3.4,1.1c2.5,1.7,2.5,1.7,2.5-1.3c0-1.6,0.3-2.4,0.8-1.8
	c0.9,1.4,4.7,3.5,6.2,3.5c0.6,0,1.1-1,1.2-2.3c0.1-2.2,0.1-2.2,0.8,0.3c0.4,1.4,0.9,2.4,1.2,2.1c0.2-0.2,1.4,0.1,2.5,0.7
	c1.7,0.9,2.3,0.8,3.4-0.8c0.8-1.1,1.8-1.7,2.2-1.4c0.5,0.3,0.5-0.7,0.2-2.1c-0.6-2.6-0.5-2.6,2.1-1.6c3.3,1.3,4.3,0.6,2.5-1.5
	c-1.1-1.3-1-1.5,0.5-1.5c1.7,0,1.7-0.1,0-2c-0.9-1.1-1.3-2.2-0.8-2.5s1.7,0.3,2.7,1.4c1.5,1.7,2.5,1.9,6.4,1.1
	c0.2,0-0.1-0.7-0.7-1.5c-1.3-1.6-0.5-2.7,1.9-2.7c1,0,2.8-0.9,4.1-2l2.4-2l-3-0.2c-1.7-0.1-4.1-0.1-5.4,0c-2.1,0.2-2.3,0-1.1-1.4
	c2.2-2.7,0.6-2.7-3.2,0c-4.2,2.9-6.7,3.5-4.7,1c1.1-1.3,1-1.5-0.4-0.9c-1.9,0.8-2.2-0.6-0.5-2.4c2.6-2.6-0.2-2.2-3.3,0.5
	c-6.2,5.4-7,5.5-14,3.4c-7.4-2.3-12.3-5.2-13.8-8c-0.9-1.8-0.7-2,1.5-1.9c1.4,0.1,2.7,0.9,3,1.7c0.3,0.9,1.4,1.7,2.6,1.7
	c1.7,0.1,2-0.3,1.5-2.1c-0.5-2-0.3-1.9,1.8,0.6c1.3,1.5,3.3,2.8,4.6,2.8c2,0,2.2-0.4,1.7-3c-0.8-3.9,1.6-5,4-1.8
	c1.7,2.1,7.3,3.7,7.3,2c0-0.4-1.5-2-3.3-3.5c-2.5-2.1-2.8-2.8-1.5-2.8c1,0,2,0.6,2.4,1.5c0.3,0.8,1,1.3,1.4,1
	c0.5-0.3,1.1-0.1,1.4,0.5c0.3,0.6,1.8,1.1,3.3,1.1c2.5,0,2.6-0.1,0.7-1.5s-1.8-1.5,0.9-2.6c1.6-0.6,3.4-1.1,4-1.1
	c0.7,0,0.1-0.7-1.3-1.5c-2.4-1.4-2.4-1.4,1.4-1.1c2.5,0.2,4.4-0.2,5.3-1.1c2.2-2.3,0.6-3.5-4.3-3.5c-2.8,0-4.3-0.4-3.9-1.1
	c1.3-2.1-2.4-2.1-6.6-0.1c-5.1,2.5-6.1,2.7-5.3,0.6c0.4-1,0-1.5-1-1.5s-1.4-0.6-1-1.5c0.7-1.8,0.3-1.9-3-0.6c-2.1,0.8-2.4,0.7-1.9-1
	c0.5-2.1-1.2-2.8-2.3-1c-0.3,0.6-2.5,2-4.7,3.2c-3.6,1.9-4.6,2-8.1,0.9c-3.3-1-3.8-1.4-2.4-2.2c0.9-0.5,1.7-1.7,1.7-2.5
	c0-1.2-1-1.5-4.5-1.3c-3.4,0.2-5-0.2-6.5-1.7c-2.2-2.3-4.3-10.5-2.9-11.4c0.9-0.5,1.3,1.7,1,4.5c-0.1,0.7,0.8,2.7,2,4.4
	c1.7,2.5,2.4,2.9,3.6,1.9c0.8-0.7,1.4-2.4,1.5-3.9c0.1-2.1,0.2-2.3,0.6-0.6c0.8,3.2,3.4,5.7,6,5.7c2,0,2.2-0.3,1.3-2
	c-1.3-2.5-1.3-3.5,0-2.6c0.6,0.3,1,0.1,1-0.5s0.5-1.1,1-1.1c0.6,0,1,0.7,1,1.5c0,1.9,5.9,7,7.1,6.2c0.5-0.3,0.9-1.5,0.9-2.6
	s0.5-2,1-2c0.6,0,0.8-0.6,0.4-1.3c-0.4-0.7,0.2-0.2,1.2,1.1c1,1.3,2.2,2,2.6,1.6c0.4-0.4,1.7-0.9,2.9-1.1c2.7-0.4,6.8-2.4,6.8-3.5
	c0-0.4-1.3-1.3-3-2c-1.6-0.7-2.9-1.8-2.8-2.5c0.1-0.7-1.2-1.2-2.9-1.3c-3.5-0.1-8.6-2.6-6.7-3.2c0.7-0.2,1.3-1.1,1.3-1.9
	c0-1.6-5-2.1-6.6-0.5c-1.5,1.5-5.5,2.4-5.5,1.3c0-0.5,1.1-1.3,2.6-1.6c2.1-0.6,2.4-1,1.4-2.2s-0.8-1.5,0.7-1.5c2.2,0,6-2.8,5.1-3.7
	c-0.3-0.4-2.7-0.9-5.2-1.2c-5-0.6-5-0.6-3.5-3.4c1-1.8,1.2-1.9,3.4-0.4s2.4,1.5,3-0.5c0.4-1.2,1.1-1.9,1.6-1.5
	c0.5,0.3,0.9,0.1,0.9-0.5s0.9-1.1,2-1.1s2-0.7,2-1.5c0-1.6-2.1-2.7-5.1-2.7c-2.3,0-2.6-1.9-0.4-2.7c0.8-0.3,1.3-0.9,1-1.4
	c-0.3-0.4,0.7-1.4,2-2.1c3.4-1.9,2.5-3.6-1.8-3.6h-3.5l2.5-3.4c2-2.7,2.2-3.7,1.3-4.6c-1-1-1.9-0.4-4.5,2.5
	c-3.1,3.4-3.4,3.6-4.4,1.8c-0.6-1-1.6-1.9-2.1-1.9c-1.2,0-4.4,5.8-5,9.2c-0.5,2.5-9.7,10.7-11.1,9.8c-0.4-0.3-0.6-3-0.5-6.1
	s-0.2-5.7-0.7-5.7s-0.7-1.7-0.6-3.8c0.3-3.2,0.8-3.9,3.1-4.6c2.4-0.7,2.7-0.5,2.2,1.1c-0.9,3,1.5,3.7,3.5,1.1c1-1.4,2-1.9,2.4-1.3
	c0.7,1.1,4.7,0.5,4.7-0.7c0-1-5-5.8-5.9-5.6c-0.4,0.1-1.5-0.1-2.4-0.4c-2.8-0.8-1-2.2,2-1.6c5,1.1,9.6,0.9,10-0.5
	c0.2-0.7-0.2-1.3-1-1.3s-2-0.7-2.7-1.5s-1.6-1.3-2.1-1s-0.9,0.2-0.9-0.3s1.4-1.8,3-2.9c3-2.1,3.9-3.6,2-3.6c-1.8,0-8.4,3.1-9.3,4.4
	c-0.5,0.8-0.6,0.4-0.3-1c0.3-1.2,0.2-2.5-0.3-2.8c-1.1-0.7-5.1,5.9-5.1,8.4c0,0.9-0.3,1.4-0.7,1c-0.4-0.4-1.3,0.1-2,1.1
	c-1.2,1.6-1.3,1.1-0.8-3.3c0.4-4.1,1.4-6.1,5-10.5c2.5-3,4.5-6.1,4.5-6.9c0-2.5-5-0.8-6.1,2c-1.7,4.5-3.5,2.9-3.1-2.6
	c0.3-4.1-0.1-5.6-1.8-7.4l-2.1-2.3l0,0l-0.1,2.5c-0.1,1.4-0.2,5.6-0.3,9.3l-0.1,6.8l-3.7-3.9c-4.3-4.6-4.8-4.8-4.8-1.6
	c0,1.3,1.8,4.3,3.9,6.7c3.4,3.8,3.8,5.1,4,10.2c0.2,3.9-0.1,5.6-0.8,5.1c-0.6-0.4-1-1.3-1-2.2c0-0.8-0.5-1.5-1-1.5c-0.6,0-1-1.8-1-4
	c0-4.6-2.5-7.8-4.1-5.2C2,26.8,1.7,28,2,28.7c0.5,1.5-2.4,0.5-4.3-1.5c-0.7-0.7-1.9-1.3-2.6-1.3c-2.7,0-2.3,2.9,1,6.8
	C0,37.4,0.2,38.3-2.4,39c-1.3,0.3-1.7,1.1-1.4,2.5c0.6,2.2,3.3,2.6,5.1,0.7c1.4-1.4,1.4-1.3,1.6,2.5c0.2,3.2,0,3.3-3.4,1.3
	s-4-1.9-4,0.4c0,1.1,1.5,3.2,3.3,4.6c2.4,2,2.7,2.5,1.1,2.1c-1.4-0.4-2.3,0-2.7,1.1c-0.9,2.3-1.6,2.1-8.2-2.4
	c-3.3-2.2-6.5-3.8-7-3.6c-2.1,0.8-0.8,4.8,2.2,6.4l2.9,1.6l-2.7,0.3c-1.5,0.2-2.9,1-3.2,1.7c-0.6,1.5,1.9,3,3.4,2
	c0.5-0.3,0.9-0.1,0.9,0.5s0.8,1.1,1.8,1.2c1.3,0.1,1.4,0.2,0.3,0.6c-1.1,0.4-0.9,1,0.9,2.4l2.3,1.8l-4.2,0.7
	c-4.3,0.8-5.3,2.4-2.7,4.6c1,0.8,2,0.9,3.1,0.3c1.9-1.1,5.5-0.5,5.5,0.9c0,0.5,0.9,0.9,2,0.9s2-0.5,2-1c0-0.6,1-1,2.3-1h2.3
	l-2.5,2.1c-1.9,1.6-2.2,2.3-1.1,3c1.5,1,4.1,0.3,5.4-1.5c0.5-0.6,0.6,0.2,0.3,1.7c-0.5,2.4-0.3,2.8,1.4,2.8c1.1,0,2.1-0.6,2.1-1.3
	c0.1-0.9,0.2-0.8,0.6,0.2c0.4,1.1,0.9,0.8,1.8-1l1.3-2.5l1.3,2.8c0.7,1.6,0.9,3.2,0.5,3.6s-4,0.9-8,1.1c-6.7,0.3-7.6,0.1-12.1-2.7
	c-4.4-2.9-7.6-3.3-7.6-1.1c0,0.5,1.2,1.6,2.8,2.5l2.8,1.6l-3.5-0.7c-3.5-0.7-9.3-3.8-11.9-6.3c-0.7-0.7-2.2-1.3-3.3-1.3
	c-2,0-2.6,2-1,3.6c0.6,0.6-0.9,1.1-4.2,1.3c-2.8,0.2-5.5,0.6-6,0.8c-3.3,2.1,4.8,5.9,10.7,5l4-0.6l-2.8,1.6c-1.7,1-2.7,2.3-2.5,3.4
	c0.5,2.5,4.8,1.7,7.6-1.5c1.3-1.5,3-2.4,4-2.2c1.4,0.3,1.2,0.7-0.9,1.6c-3.4,1.5-4.4,3.1-2.4,4c0.9,0.4,1.4,1.2,1.1,2
	c-0.3,0.7,0.2,1.6,1,1.9s1.4,0.2,1.4-0.3c0-0.8,3.2-2.3,5.7-2.5c0.6-0.1,2.1-1,3.3-2.1s2.1-1.6,2.1-1.2c0,1.1-2.2,3.2-4.8,4.6
	c-1.2,0.7-2.2,1.7-2.2,2.3c0,1.9,3.1,2.2,5,0.5c1.8-1.7,1.9-1.7,1.3,0.4c-0.8,3,1.3,2.7,3.3-0.5c1.3-2,1.9-2.3,2.5-1.3
	c0.7,1.1,1,1.1,1.7,0c0.5-0.8,1.7-1.3,2.8-1.1c4,0.5,9.4-3.2,9.5-6.7c0.1-1.9,0.2-1.8,0.8,0.4c0.6,2.1,0.1,3.2-2.9,5.9
	c-2,1.8-6.4,4.8-9.8,6.7l-6.2,3.4l-4.8-2.5c-2.7-1.4-5.4-2.6-6.1-2.7c-1.8-0.4-1.5,1.6,0.5,4.1c1.6,1.9,1.6,2,0,0.7
	c-0.9-0.7-2.1-1.1-2.6-0.8c-0.5,0.3-2.1-0.1-3.7-0.9c-3.7-2-4.8-1.9-4.2,0.3c0.4,1.5,0,1.8-2.4,1.7c-1.6-0.1-3.2-0.4-3.5-0.7
	c-1.2-1.3-4.4,0.6-4.4,2.5c0,1.6,0.5,2,2.1,1.5c2-0.5,2-0.5,0.3,1.4c-1.8,2.1-1.5,2.3,2.3,2c1.7-0.1,2.1,0.2,1.6,1.6
	c-0.5,1.5-0.2,1.7,1.9,1.3c2.1-0.4,2.4-0.2,2,1.4c-0.5,2.1,0.1,2.3,2.6,1s5.6,2.9,3.5,4.9c-1.1,1.1-1.5,1-1.9-0.1
	c-0.3-0.8-2.1-1.5-4-1.5c-1.9-0.1-3.3,0.3-3,0.8s-0.3,0.7-1.4,0.4c-2.5-0.7-2.6,0.9-0.1,2.5c1.3,0.8,1.7,2,1.4,3.8
	c-0.6,3.3-0.8,3.3-4.4,0.1c-1.6-1.4-3.6-2.6-4.4-2.6c-1.7,0-1.8,0.5-0.5,3c1.1,2,0.4,2.1-7.2,0.6c-2.5-0.5-3.8-0.3-3.8,0.4
	c0,1.3,5.2,4.3,7.6,4.3c1.4,0,1.5,0.3,0.4,1.5c-1,1.2-1,1.7,0.2,2.1c0.8,0.3,1.9,0.5,2.4,0.4c2.1-0.4,3.4,0.2,3.2,1.4
	c-0.2,0.8,0.8,1.3,2.5,1.2c2.1,0,2.8,0.4,2.8,2.1c0,2,0.1,2,2-0.3c1.6-1.9,2-2.1,2-0.7c0,0.9,0.4,1.4,1,1.1c0.6-0.4,1.4,0.6,2,2
	c0.5,1.5,1.7,2.9,2.5,3.3c0.8,0.3,1.5,1.2,1.5,2s0.7,1.5,1.6,1.5s2.2,0.8,2.9,1.8c1.2,1.7,1.4,1.7,3.6-0.3l2.3-2l-1.8,2.2
	c-1.1,1.3-4.4,2.8-8.6,3.9c-8.8,2.2-11,2.1-14.6-0.3c-3.3-2.3-5-1.8-4.1,1.1c0.5,1.6,0.1,2-2.3,2c-1.6,0-3.3-0.5-3.9-1
	c-0.7-0.7-1.6-0.6-2.9,0.4c-1.9,1.4-1.8,1.5,1.3,3.4c2.3,1.4,3.1,2.4,2.7,3.8c-0.4,1.2-0.1,1.8,0.8,1.7c2.9-0.4,4,0.1,3.5,1.6
	c-1,2.6,2.7,3.8,5.5,1.8c1.8-1.3,2.1-1.4,1.2-0.2c-1.7,2.2-0.1,4.4,2.6,3.6c3.8-1.2,4.8,0.7,1.1,2.1c-4.8,1.8-9.6,1.7-11.3-0.1
	c-2-2-5-2.1-4.3,0c0.5,1.3-0.2,1.4-3.9,0.9c-5.4-0.8-6.1,1-1.1,2.8c2.4,0.9,3.3,1.8,2.9,3c-0.5,2.1,2.6,3.3,5.1,1.9
	c1.3-0.8,1.7-0.5,1.7,1.6s0.4,2.5,2.2,2s2-0.3,1.5,1.2s-0.3,1.8,1.3,1.3c1.1-0.3,2-0.1,2,0.4c0,1.8,2.1,0.9,4.8-2
	c3.2-3.5,5.1-4.3,7.5-3.1c2.7,1.5,2.1,2.6-1.3,2.1c-3.5-0.5-4,1.1-1.5,4.7c1.5,2.1,1.4,2.3-0.4,2.3c-1.1,0-2.7,0.7-3.5,1.5
	c-0.8,0.9-2.2,1.5-3,1.5s-1.8,0.4-2.1,1c-0.3,0.5-2.3,0.9-4.5,0.9c-2.1,0-4.5,0.3-5.2,0.8s-2.8,0.7-4.5,0.6
	c-2.7-0.2-3.3,0.2-3.5,2.1c-0.2,1.7-1,2.4-2.8,2.5c-1.4,0.1-3,0.2-3.5,0.4c-0.6,0.1-1.8,0.2-2.8,0.1c-1-0.1-1.8,0.2-1.8,0.7
	c0,1.4,5.5,4.4,8.1,4.4c2.2,0,2.2,0.1,0.5,2.1c-1.8,2-1.8,2.1,0.8,2.1c2,0,2.5,0.4,2,1.6c-0.5,1.3-0.1,1.5,2.3,0.9
	c1.6-0.4,3.1-0.7,3.4-0.7c3.1,0.1,3.9,0.4,3.4,1.7c-1,2.8,1.6,2.7,3-0.1c1.4-2.7,1.5-2.7,1.5-0.5c0,1.3,0.4,2.4,0.8,2.4
	c6.1,0.9,7.1,0.6,8.4-2.5l1.3-3.1l0.9,2.5l0.9,2.5l1.9-2.6c1.9-2.6,1.9-2.6,1.9-0.3c0,3.1,1.8,3,2.6-0.3c0.3-1.4,1.1-2.6,1.6-2.6
	s0.6,0.5,0.3,1.1c-0.5,0.8,0.3,0.9,2.6,0.4c2.4-0.5,3.2-0.4,2.9,0.5c-0.6,1.9-6.9,5.1-10,5.1c-1.5,0-2.9,0.6-3.1,1.3
	c-0.3,0.8-2.3,1.2-5.1,1.2c-2.6,0-4.6,0.3-4.6,0.7c0,2,3.5,4.1,6.2,3.8c1.6-0.2,3.1,0.1,3.1,0.6c0.3,1.7-5.6,2.7-19.9,3.3
	c-16.1,0.6-22.6,1.4-22.6,2.5c0,0.4-1.1,0.6-2.5,0.3s-2.5,0-2.5,0.6c0,1.4,3.3,3.3,5.9,3.3c1.1,0,2.1,0.5,2.1,1c0,0.6-0.5,1-1.1,1
	s-2,1-3.3,2.2l-2.2,2.2l3.3-0.5c2.2-0.3,3.3,0,3.3,0.8s0.8,1.1,2,0.7c1.1-0.3,2,0,2,0.6c0,1.7,2.6,1.4,4-0.4
	c0.7-0.9,1.7-1.5,2.3-1.5s0.3,0.8-0.6,1.9c-0.9,1-1.7,2.2-1.7,2.6c0,1.1,3.8,0.8,4.5-0.3c1-1.7,2.3-1.2,3,1c0.8,2.6,2,2.6,5.6-0.1
	l2.9-2.1l-0.6,3.2c-0.8,3.9,1.1,4.2,5.1,0.9c2.7-2.2,2.7-2.2,1.7-0.1c-1.2,2.4-0.6,3.5,1.4,2.7c0.8-0.3,2.1,0,2.9,0.7
	c1,0.9,1.5,0.9,1.5,0.1c0-0.6,0.7-1.2,1.5-1.2s1.5,0.6,1.5,1.5c0,1,0.9,1.4,2.8,1.2c10.4-1.2-3.1,5-15.2,7
	c-7.9,1.3-8.7,1.3-11.3-0.5c-1.5-1-3.4-1.9-4-1.9c-2.1,0-1.4,2.1,1,3.1c1.7,0.7,1.1,0.8-2.3,0.3c-2.5-0.4-5.6-0.7-7-0.6
	s-4.7-0.5-7.5-1.4c-2.7-0.8-5.1-1.3-5.3-1.2c-1,1.1,5.4,5.3,9,5.9l4.3,0.7l-3.8,0.1c-2.6,0.1-3.8,0.6-3.8,1.7c0,0.9,0.8,1.6,1.8,1.7
	s2.2,0.3,2.8,0.4s1.6,0.3,2.4,0.4c1.1,0.1,0.9,0.5-0.5,1.6c-2.5,1.9-1.3,3.2,1.5,1.7c1.7-1,2.1-0.9,2.1,0.5c0,1.3,0.7,1.6,3.3,1.2
	c1.8-0.3,4.2-0.8,5.3-1.2c2-0.7,2-0.7,0,0.9s-1.5,2,1.7,1.7c1-0.1,1.8,0.5,1.8,1.5c0,2.2,0.8,2,3.2-0.7l2-2.3l-1.6,2.8
	c-0.9,1.5-1.6,3.3-1.6,3.9c0,1.6,4.9,0.4,7.3-1.7c2-1.8,2-1.8,1.2,0.7c-1.1,3.5-2.3,4.2-11.5,7.1c-7.7,2.4-8.1,2.4-12.3,0.8
	c-4.5-1.8-10.7-2.3-10.7-0.9c0,0.5,0.5,1.4,1.2,2.1c0.8,0.8-0.5,0.7-4.1-0.4c-2.9-0.9-6-1.4-6.9-1c-1.3,0.5-1.2,1,0.8,3.2l2.3,2.5
	l-3.4-1c-4.4-1.3-9.7-1.3-10.4,0c-0.8,1.3,5.9,4.2,9.9,4.2h3.2l-2.9,2.4c-2.9,2.4-2.9,5.5,0,4.4c1-0.4,1.4,0.2,1.4,2
	s0.5,2.5,1.9,2.5c1.1,0,2.6,0.7,3.5,1.6c1.3,1.3,1.9,1.3,3.6,0.3c1.1-0.7,2.1-1.7,2.1-2.1s0.8,0,1.8,1c1.9,1.9,2.5,4.4,1,4.4
	c-0.5,0-0.6,0.5-0.2,1.1c0.5,0.8-0.3,0.9-2.4,0.5c-2-0.5-3.1-0.3-3.1,0.4c0,0.6-2,1.1-4.5,1.1c-4.7,0-5.6,0.9-3,3.1
	c1,0.9,3.1,1.1,6.3,0.7l4.8-0.6l-3.7,2c-2.6,1.4-3.5,2.5-3.1,3.6c0.4,1,1.2,1.3,2.2,0.9c0.9-0.4,2.3-0.8,3.1-0.9
	c0.8-0.1,0.9-0.1,0.2,0.2c-2.5,0.9-1.2,2.6,1.5,1.9c2-0.5,2.3-0.4,1.3,0.4c-2.7,1.8-0.3,2.3,2.9,0.6c1.7-0.9,3.1-1.2,3.1-0.7
	s-0.6,1.2-1.3,1.5s-0.9,0.8-0.5,1.3s2.1,0.4,3.7-0.3c2.4-0.9,2.8-0.9,2.4,0.3c-0.4,1,0,1.2,1.3,0.7c1.6-0.6,1.7-0.4,0.6,0.8
	c-1,1.1-4.5,1.4-15.8,1.2c-8.8-0.1-14.5,0.2-14.5,0.8c0,0.5,0.7,1,1.6,1s2.2,0.7,3,1.5c1.2,1.2,1.2,1.5-0.2,2.1
	c-0.9,0.3-3,0.6-4.7,0.6c-3.7,0-6.2,1.4-5.3,2.8c1.1,1.8,6.1,2.2,10.2,0.7c5.5-2,5.8-1.9,2.9,1.1c-3.5,3.6-3.3,5.8,0.5,4.7
	c1.6-0.5,3.4-1.2,4-1.5c0.6-0.4,1.1,0.2,1.2,1.2s0.2,2.4,0.3,3.1c0.1,0.7,0.4,1.6,0.8,1.9c0.8,0.8,6.8-2.7,6.8-3.9
	c0-0.5,0.4-0.6,0.9-0.3c0.6,0.4,0.6,1.6,0,3.2c-0.5,1.4-0.9,3.1-0.9,3.6c0,1.4,4.7-2.2,9.5-7.1c3.5-3.7,4.1-3,0.8,0.9
	c-0.8,1-1.2,2.6-0.8,3.5c0.6,1.5,0.9,1.5,3.2-0.7l2.6-2.5l-0.3,2.6c-0.3,2.4-1,2.7-8.4,3.9c-5.2,0.9-8.6,1-9.6,0.4
	c-2.5-1.6-8-2.5-8-1.4c0,0.6,0.8,1.3,1.8,1.5c1,0.3-0.5,0.2-3.3,0c-4-0.4-4.8-0.2-3.8,0.8c1.9,2,1.5,2.7-1.3,2.2
	c-3.2-0.6-7.8,0.6-7,1.8c0.3,0.6,1.6,1,2.9,1c4.3,0,3.7,1.4-1.5,3.6c-8.9,3.7-7,6.4,2.2,3.1c4.6-1.7,6.4-1.4,3,0.5
	c-1.1,0.6-2.1,1.9-2.1,2.8c0,1.2,0.6,1.5,2.7,0.9c2.4-0.6,2.5-0.5,1.4,0.9c-2.7,3.4,0.2,3.4,4.6,0c2.1-1.6,2.2-1.6,1.6,0.7
	c-0.5,2.2-0.4,2.3,1.1,1s1.6-1.2,1,0.5s-0.4,1.7,1.8-0.4c2.6-2.4,4.1-2.2,3.2,0.4c-0.8,2.1,1.6,1.8,5.5-0.6c1.8-1.1,3.3-1.5,3.3-0.9
	c0,0.7,1.1,0.9,2.8,0.5c1.9-0.4,2.3-0.3,1.3,0.3c-0.8,0.5-4,1.5-7,2.1c-6.5,1.4-8.6,2.5-7.6,4.2c0.7,1.1,2,1,8.1-0.6
	c1.5-0.4,1.2,0.2-1.3,2.7c-1.8,1.8-3.3,3.5-3.3,3.7c0,1,5.6-0.2,8.8-2c3.5-1.9,4.1-1.3,1.7,1.8c-2,2.8-1.8,4,0.5,3.4
	c1.3-0.3,2,0,2,0.9c0,1.9,0.9,1.8,3.3-0.4c1.8-1.7,1.9-1.7,1.6,0.3c-0.5,3.1,5,2.2,8-1.4l2.3-2.8l-0.7,3.4c-0.9,4.4,1.6,4.6,5.5,0.3
	c1.5-1.7,2.9-3.1,3.1-3.1s0.4,1.2,0.5,2.7c0.2,4.1,1.9,5.2,3.9,2.6c1.6-2,1.9-2,3.1-0.4s1.3,1.6,1.9-0.5c0.4-1.3,1.2-2,2-1.7
	c0.9,0.3,1.6-0.5,2-2.2c0.5-1.9,0.9-2.4,1.5-1.5c0.4,0.7,1.7,1.5,2.9,1.6c1.6,0.3,2.6-0.7,4.3-4.3c2.2-4.7,4.5-6.4,3.3-2.6
	c-0.8,2.5-0.2,2.6,3,0.4c1.4-0.9,2.5-2.7,2.6-3.9c0.1-1.8,0.2-1.8,0.6-0.4c0.8,3,2.3,0.9,2.4-3.2c0-3.1,0.2-3.5,1-2
	c0.6,1,2,1.8,3.1,1.8 M4.8,40.1c0.5,0,1.5,0.9,2.8,2.4c2.1,2.4,3,4.5,3,6.9c0,1.9-0.2,3.5-0.4,3.5c-0.5,0-1.8-3.2-2.3-5.6
	c-0.2-1.1-1-2.8-1.8-3.7s-1.5-2.3-1.5-3.1C4.6,40.2,4.6,40.1,4.8,40.1L4.8,40.1z M2.3,55.2c1.9,0.1,6.5,3.4,7.3,5.4
	c1.3,3.5,0.6,4.2-1.7,1.5c-1-1.2-2.4-2.2-3-2.2c-1.2,0-3.9-4-3.2-4.6C1.8,55.3,2.1,55.2,2.3,55.2L2.3,55.2z M29.7,63.7
	c0.2,0,0.5,0,0.8,0.1c1.7,0.4,1.3,1.1-2.6,4.1c-2.5,2-5.4,3.7-6.5,3.7c-1,0.1-1.9,0.5-1.9,0.9s-0.5,0.8-1.1,0.8s-0.9-1-0.8-2.3
	c0.3-2,0.9-2.3,4.1-2c2.9,0.3,3.8,0,3.8-1.3c0-0.9,0.7-1.6,1.5-1.6s1.5-0.7,1.5-1.5C28.6,64,29,63.7,29.7,63.7L29.7,63.7z
	 M18.1,78.4l2.3,1.2c1.3,0.6,3.4,0.9,4.8,0.5c1.4-0.4,2.4-0.2,2.4,0.4s-0.4,1.1-0.9,1.1s-1.6,0.2-2.4,0.5s-2.5-0.4-3.8-1.6
	L18.1,78.4L18.1,78.4z M29.1,81c0.2,0,0.6,0.3,1,0.7c1.1,1,1.5,1,1.5,0.1c0-0.7,0.5-0.9,1.1-0.5c0.8,0.5,0.6,1.2-0.7,2.1
	c-2.6,1.9-3.4,1.7-3.4-0.8C28.6,81.4,28.7,80.9,29.1,81L29.1,81z M44.2,84.8c0.9,0,1.3,0.5,1,1c-0.8,1.3-2.5,1.3-2.5,0
	C42.7,85.2,43.3,84.8,44.2,84.8L44.2,84.8z M20.6,101.3c0.6,0,1,2.3,1,5.2c0,5.2-0.2,5.7-1.3,4.5C19.2,109.8,19.5,101.3,20.6,101.3
	L20.6,101.3z M13,115c0.4-0.1,0.6,0.2,0.6,0.6c0,0.6-0.5,1.1-1,1.1c-1.3,0-1.3-0.7,0-1.5C12.7,115.1,12.8,115.1,13,115L13,115z
	 M21,117.2c0.1,0,0.1,0.1,0.2,0.3c0.3,0.7,0.3,2.1,0,3.1s-0.5,0.4-0.5-1.3C20.8,118,20.9,117.2,21,117.2L21,117.2z M8.6,117.8
	c0.6,0,1,0.2,1,0.5c0,0.2-0.4,0.7-1,1.1s-1,0.2-1-0.5C7.6,118.3,8,117.8,8.6,117.8L8.6,117.8z M3.6,119.8c0.6,0,1,0.2,1,0.5
	c0,0.2-0.5,0.7-1,1.1c-0.6,0.4-1,0.1-1-0.5S3,119.8,3.6,119.8L3.6,119.8z M-17.3,119.9c0.7,0.1,1.5,0.5,2.2,1.4c2,2.6,5.4,3,7.3,0.7
	c1.7-2,4-2,2.8,0c-0.3,0.5,0.1,1,0.9,1s1.8-0.5,2.1-1c0.8-1.3,2.5-1.4,2.5,0c0,0.6-1.2,1.6-2.8,2.2c-1.5,0.6-5.3,1.3-8.5,1.6
	c-5,0.5-5.8,0.3-6.8-1.5c-0.6-1.2-1.1-2.6-1.1-3.2C-18.5,120.2-18,119.8-17.3,119.9L-17.3,119.9z M74.7,174.5c0.6,0,1.1,0.5,1.1,1
	c0,1.3-0.7,1.3-1.5,0C73.9,175,74.1,174.5,74.7,174.5L74.7,174.5z M-9.1,186.9c0.6,0-0.6,0.9-2.6,2.1c-3.6,2-5.7,2.6-5.7,1.5
	C-17.5,189.9-10.6,186.9-9.1,186.9L-9.1,186.9z M77.4,231c1.1,0,2.2,0.1,2.9,0.4c1.4,0.6,0.7,0.8-2.3,0.8c-2.3,0-4.3-0.1-4.3-0.3
	C73.7,231.4,75.6,231,77.4,231z M99.9,236.6c0.3,0,0.8,0,1.1,0.2c0.8,0.3,0.5,0.6-0.6,0.6s-1.6-0.2-1.3-0.5
	C99.2,236.7,99.5,236.6,99.9,236.6L99.9,236.6z M100.1,262.3c0,0,0.1,0,0.2,0c0.6,0,1.7,0.4,2.5,1s1.1,1,0.5,1s-1.7-0.4-2.5-1
	C100.1,262.8,99.8,262.4,100.1,262.3L100.1,262.3z M-74.5,304c0.5-0.1,0.6,0.1,0.3,0.6c-0.3,0.6-1,1-1.5,1c-1.4,0-1.1-0.8,0.6-1.5
	C-74.9,304.1-74.7,304-74.5,304L-74.5,304z M-58.3,312.9l2.3,2.5l2.3,2.5l1.7-2.7c1.6-2.5,1.8-2.5,2.7-0.8c0.7,1.4,1.2,1.5,1.8,0.5
	c0.6-0.9,1-0.7,1.4,0.9c0.7,2.2,2.6,3.1,2.6,1.2c0-0.6,1.2-1,2.8-1h2.8l-3,1.6c-1.9,1.1-4.5,1.4-7.3,1.1c-2.3-0.3-4,0-3.7,0.5
	c0.8,1.3-0.7,1.1-3.8-0.6c-1.6-0.8-2.8-1-3-0.5s-1.1,0.7-2.1,0.3c-1.7-0.7-1.6-0.9,0.4-3.1L-58.3,312.9L-58.3,312.9z M-35,314
	c0.2,0,0.4,0,0.6,0.1c0.8,0.3,0.3,0.7-1.1,1.1c-1.7,0.4-2.1,0.3-1.3-0.5C-36.4,314.2-35.6,314-35,314L-35,314z M-45.2,356.5
	c0.4-0.1,0.6,0.2,0.6,0.6c0,0.6-0.5,1.1-1,1.1c-1.3,0-1.3-0.7,0-1.5C-45.4,356.6-45.3,356.5-45.2,356.5L-45.2,356.5z"/>
</svg>
