<?xml version="1.0" encoding="utf-8"?>
<!-- Generator: Adobe Illustrator 23.0.1, SVG Export Plug-In . SVG Version: 6.00 Build 0)  -->
<svg version="1.1" id="Layer_1" xmlns="http://www.w3.org/2000/svg" xmlns:xlink="http://www.w3.org/1999/xlink" x="0px" y="0px"
	 viewBox="0 0 172 419.5" style="enable-background:new 0 0 172 419.5;" xml:space="preserve">
<style type="text/css">
	.st0{fill:#569E3F;}
	.st1{fill:#663C12;}
	.st2{fill:#1B5729;}
</style>
<g>
	<path class="st0" d="M91.9,382.1c-0.9,0-2.1-0.6-2.5-1.3c-0.7-1.1-0.8-0.8-0.8,1.5c0,3-1.3,4.5-1.9,2.3c-0.3-1.1-0.4-1-0.5,0.3
		c-0.1,0.9-1,2.2-2.1,2.8c-2.6,1.6-3.1,1.5-2.5-0.3c1-2.8-0.9-1.5-2.7,1.9c-1.4,2.6-2.2,3.3-3.5,3.1c-0.9-0.1-2-0.7-2.4-1.2
		c-0.4-0.7-0.8-0.3-1.2,1.1c-0.4,1.3-1,1.9-1.7,1.6c-0.7-0.2-1.3,0.3-1.6,1.2c-0.5,1.5-0.6,1.5-1.6,0.4c-1-1.2-1.2-1.2-2.5,0.3
		c-1.7,1.8-3,1-3.2-1.9c-0.1-1.1-0.3-1.9-0.4-1.9c-0.2,0-1.3,1-2.6,2.3c-3.2,3.1-5.2,3-4.5-0.2l0.5-2.4l-1.9,2c-2.4,2.6-7,3.3-6.5,1
		c0.3-1.4,0.2-1.4-1.3-0.2c-1.9,1.6-2.7,1.7-2.7,0.3c0-0.7-0.6-0.9-1.6-0.7c-1.9,0.5-2.1-0.4-0.4-2.4c1.9-2.3,1.5-2.7-1.4-1.3
		c-2.6,1.3-7.2,2.2-7.2,1.5c0-0.2,1.2-1.4,2.7-2.7c2-1.8,2.3-2.3,1-2c-4.9,1.2-6,1.3-6.6,0.5c-0.8-1.2,0.8-2,6.2-3.1
		c2.5-0.5,5-1.2,5.7-1.5c0.8-0.5,0.5-0.5-1-0.2c-1.4,0.3-2.2,0.2-2.2-0.4c0-0.5-1.2-0.2-2.7,0.7c-3.1,1.7-5.1,1.9-4.4,0.4
		c0.8-1.9-0.5-2-2.6-0.3c-1.8,1.5-2,1.5-1.5,0.3c0.5-1.3,0.4-1.3-0.8-0.4c-1.2,0.9-1.3,0.9-0.9-0.7c0.5-1.7,0.4-1.7-1.3-0.5
		c-3.6,2.4-6,2.4-3.8,0c1-1.1,0.8-1.1-1.1-0.7c-1.7,0.4-2.2,0.2-2.2-0.7c0-0.6,0.7-1.6,1.7-2c2.8-1.4,1.3-1.6-2.5-0.4
		c-7.5,2.4-9,0.4-1.8-2.3c4.3-1.6,4.7-2.6,1.3-2.6c-1,0-2.1-0.3-2.4-0.7c-0.6-0.9,3.1-1.8,5.7-1.3c2.2,0.4,2.6-0.1,1-1.6
		c-0.8-0.8-0.2-0.9,3.1-0.6c2.2,0.2,3.4,0.2,2.7,0c-0.8-0.2-1.4-0.7-1.4-1.1c0-0.8,4.5-0.2,6.5,1c0.8,0.5,3.6,0.4,7.8-0.3
		c6-0.9,6.6-1.1,6.8-2.9l0.3-1.9l-2.1,1.8c-1.9,1.6-2.1,1.7-2.6,0.5c-0.3-0.7,0-1.9,0.7-2.6c2.7-2.9,2.3-3.3-0.6-0.7
		c-3.9,3.6-7.7,6.1-7.7,5.1c0-0.4,0.3-1.6,0.8-2.7c0.5-1.2,0.5-2.1,0-2.3c-0.4-0.2-0.8-0.2-0.8,0.2c0,0.9-4.9,3.5-5.6,2.9
		c-0.3-0.3-0.6-0.9-0.6-1.4c0-0.5-0.2-1.5-0.2-2.2c-0.1-0.7-0.5-1.2-0.9-0.9c-0.5,0.3-1.9,0.8-3.3,1.1c-3.1,0.8-3.3-0.8-0.4-3.4
		c2.3-2.1,2.1-2.2-2.4-0.8c-3.4,1.1-7.4,0.8-8.3-0.5c-0.7-1.1,1.3-2.1,4.3-2.1c1.4,0,3.2-0.2,3.9-0.4c1.1-0.4,1.1-0.6,0.1-1.5
		c-0.6-0.6-1.7-1.1-2.4-1.1c-0.7,0-1.3-0.3-1.3-0.7c0-0.4,4.7-0.7,11.8-0.6c9.2,0.1,12-0.1,12.9-0.9c0.9-0.9,0.8-1-0.5-0.6
		c-1.1,0.4-1.4,0.2-1.1-0.5c0.4-0.9,0-0.9-1.9-0.2c-1.3,0.5-2.6,0.5-3,0.2c-0.4-0.3-0.2-0.8,0.4-1c0.6-0.2,1-0.7,1-1.1
		c0-0.4-1.1-0.2-2.5,0.5c-2.6,1.2-4.5,0.9-2.3-0.5c0.9-0.5,0.6-0.6-1-0.3c-2.2,0.5-3.3-0.7-1.2-1.4c0.6-0.2,0.5-0.2-0.2-0.1
		c-0.7,0.1-1.8,0.4-2.6,0.7c-0.8,0.3-1.5,0.1-1.8-0.7c-0.3-0.8,0.4-1.6,2.6-2.7l3-1.5l-3.9,0.4c-2.6,0.3-4.3,0.1-5.1-0.5
		c-2.1-1.6-1.4-2.3,2.5-2.3c2.1,0,3.7-0.4,3.7-0.8c0-0.5,0.9-0.6,2.6-0.3c1.8,0.4,2.4,0.2,2-0.3c-0.3-0.5-0.2-0.8,0.2-0.8
		c1.2,0,0.8-1.8-0.8-3.2c-0.8-0.7-1.5-1.1-1.5-0.8c0,0.3-0.8,1-1.7,1.5c-1.4,0.8-1.9,0.8-2.9-0.2c-0.7-0.6-2-1.1-2.8-1.1
		c-1.1,0-1.6-0.5-1.6-1.9c0-1.3-0.4-1.7-1.1-1.5c-2.4,0.8-2.4-1.5,0-3.2l2.4-1.8h-2.6c-3.2,0-8.7-2.1-8-3c0.6-0.9,5-0.9,8.5,0
		l2.8,0.7l-1.9-1.8c-1.6-1.6-1.7-1.9-0.6-2.3c0.7-0.2,3.2,0.1,5.6,0.8c2.9,0.8,4,0.9,3.3,0.3c-0.5-0.5-1-1.2-1-1.5
		c0-1,5.1-0.7,8.8,0.6c3.4,1.2,3.8,1.2,10-0.6c7.5-2.1,8.5-2.6,9.4-5.2c0.6-1.8,0.6-1.9-1-0.5c-1.9,1.6-5.9,2.4-5.9,1.3
		c0-0.4,0.6-1.7,1.3-2.8l1.3-2l-1.7,1.7c-1.9,2-2.6,2.1-2.6,0.5c0-0.7-0.6-1.1-1.4-1.1c-2.7,0.2-3,0-1.4-1.2c1.6-1.2,1.6-1.2,0-0.6
		c-0.9,0.3-2.8,0.7-4.3,0.9c-2.1,0.3-2.7,0.1-2.7-0.9c0-1-0.3-1.1-1.7-0.4c-2.3,1.1-3.2,0.1-1.2-1.2c1.2-0.8,1.3-1.1,0.4-1.2
		c-0.6,0-1.5-0.2-2-0.3c-0.5-0.1-1.5-0.2-2.2-0.3c-0.8-0.1-1.4-0.6-1.4-1.2c0-0.8,0.9-1.2,3.1-1.2l3.1-0.1l-3.5-0.5
		c-2.9-0.4-8.2-3.5-7.3-4.3c0.1-0.1,2.1,0.3,4.3,0.8c2.2,0.6,5,1,6.1,1c1.1-0.1,3.7,0.1,5.7,0.4c2.7,0.4,3.2,0.3,1.8-0.2
		c-2-0.8-2.5-2.3-0.8-2.3c0.6,0,2,0.6,3.3,1.4c2.1,1.3,2.8,1.3,9.2,0.4c9.9-1.5,20.9-6,12.4-5.1c-1.5,0.2-2.2-0.1-2.2-0.8
		c0-0.6-0.6-1.1-1.2-1.1s-1.2,0.4-1.2,0.8c0,0.6-0.4,0.6-1.2-0.1c-0.7-0.5-1.7-0.7-2.4-0.5c-1.7,0.6-2.2-0.2-1.2-2
		c0.9-1.5,0.8-1.5-1.4,0.1c-3.3,2.4-4.8,2.2-4.2-0.7l0.5-2.3l-2.4,1.6c-3,1.9-3.9,1.9-4.5,0c-0.6-1.6-1.6-2-2.5-0.8
		c-0.6,0.8-3.7,1-3.7,0.2c0-0.3,0.6-1.1,1.4-1.9c0.7-0.8,0.9-1.4,0.5-1.4c-0.5,0-1.3,0.5-1.8,1.1c-1.2,1.3-3.3,1.5-3.3,0.3
		c0-0.5-0.7-0.7-1.6-0.4c-1,0.2-1.6,0-1.6-0.5c0-0.6-0.9-0.8-2.7-0.6l-2.7,0.3l1.8-1.6c1-0.9,2.2-1.6,2.7-1.6c0.5,0,0.9-0.3,0.9-0.8
		c0-0.4-0.8-0.8-1.7-0.8c-2.2,0-4.8-1.3-4.8-2.4c0-0.5,0.9-0.6,2-0.4c1.1,0.2,2,0.1,2-0.2c0-0.8,5.3-1.3,18.4-1.8
		c11.6-0.4,16.4-1.1,16.2-2.4c-0.1-0.4-1.2-0.6-2.6-0.4c-2.2,0.2-5.1-1.3-5.1-2.8c0-0.3,1.7-0.5,3.8-0.5c2.3,0,3.9-0.3,4.2-0.9
		c0.2-0.5,1.4-0.9,2.6-0.9c2.5,0,7.6-2.3,8.2-3.7c0.3-0.7-0.4-0.8-2.3-0.4c-1.9,0.4-2.5,0.3-2.1-0.3c0.3-0.5,0.2-0.8-0.2-0.8
		c-0.4,0-1,0.8-1.3,1.9c-0.6,2.3-2.1,2.5-2.1,0.2c0-1.7,0-1.7-1.6,0.2l-1.6,1.9l-0.7-1.8l-0.7-1.8l-1,2.3c-1,2.2-1.8,2.5-6.8,1.8
		c-0.3,0-0.6-0.8-0.7-1.8c0-1.6-0.1-1.6-1.3,0.4c-1.2,2.1-3.3,2.1-2.5,0.1c0.4-0.9-0.2-1.2-2.8-1.2c-0.2,0-1.5,0.2-2.8,0.5
		c-1.9,0.4-2.3,0.3-1.9-0.7c0.4-0.9-0.1-1.2-1.7-1.2c-2.1,0-2.1,0-0.7-1.5c1.4-1.5,1.4-1.5-0.4-1.5c-2,0-6.6-2.2-6.6-3.2
		c0-0.4,0.6-0.6,1.4-0.5c0.8,0.1,1.8,0.1,2.2,0c0.4-0.1,1.7-0.2,2.9-0.3c1.5-0.1,2.1-0.6,2.3-1.8c0.2-1.4,0.7-1.7,2.9-1.6
		c1.4,0.1,3.1-0.1,3.7-0.4c0.6-0.3,2.5-0.6,4.2-0.6c1.7,0,3.4-0.3,3.7-0.7c0.3-0.4,1-0.7,1.7-0.7c0.7,0,1.8-0.5,2.5-1.1
		c0.7-0.6,2-1.1,2.9-1.1c1.5,0,1.5-0.1,0.3-1.7c-2-2.7-1.6-3.8,1.2-3.4c2.7,0.4,3.3-0.5,1-1.6c-1.9-0.9-3.5-0.3-6.1,2.2
		c-2.2,2.1-3.9,2.8-3.9,1.5c0-0.4-0.8-0.5-1.7-0.3c-1.3,0.3-1.5,0.1-1.1-1c0.5-1.1,0.2-1.2-1.2-0.9c-1.5,0.4-1.8,0.1-1.8-1.4
		c0-1.5-0.3-1.7-1.4-1.2c-2,1-4.6,0.2-4.1-1.4c0.3-0.9-0.4-1.6-2.4-2.2c-4.1-1.3-3.5-2.6,0.9-2c3,0.4,3.6,0.3,3.2-0.7
		c-0.6-1.5,1.9-1.5,3.5,0c1.5,1.3,5.3,1.4,9.2,0.1c3-1,2.2-2.5-0.9-1.6c-2.1,0.6-3.5-1-2.1-2.6c0.7-0.8,0.5-0.8-1,0.1
		c-2.3,1.4-5.3,0.5-4.5-1.3c0.5-1.1-0.5-1.4-2.8-1.2c-0.7,0.1-0.9-0.3-0.6-1.2c0.3-1-0.3-1.7-2.2-2.7c-2.5-1.3-2.6-1.4-1-2.4
		c1.1-0.7,1.9-0.8,2.4-0.3c0.5,0.4,1.9,0.8,3.2,0.8c1.9,0,2.2-0.3,1.8-1.5c-0.7-2.1,0.6-2.4,3.3-0.8c2.9,1.8,4.7,1.8,11.9,0.2
		c3.4-0.8,6.2-1.9,7.1-2.8l1.5-1.6l-1.9,1.5c-1.8,1.4-2,1.4-3,0.2c-0.6-0.7-1.6-1.3-2.4-1.3c-0.7,0-1.3-0.5-1.3-1.1
		c0-0.6-0.6-1.2-1.3-1.5c-0.7-0.2-1.6-1.3-2-2.4s-1.2-1.7-1.6-1.5c-0.5,0.3-0.8-0.1-0.8-0.8c0-1-0.3-0.9-1.6,0.5
		c-1.5,1.7-1.6,1.7-1.6,0.2c0-1.2-0.5-1.5-2.3-1.5c-1.4,0-2.2-0.3-2-0.9c0.2-0.9-0.9-1.3-2.6-1c-0.4,0.1-1.3,0-1.9-0.3
		c-1-0.3-1-0.6-0.2-1.5c0.8-0.9,0.8-1.1-0.4-1.1c-1.9,0-6.2-2.2-6.2-3.1c0-0.5,1-0.6,3.1-0.3c6.2,1.1,6.7,1.1,5.9-0.4
		c-1.1-1.8-1-2.2,0.4-2.2c0.6,0,2.3,0.8,3.6,1.9c3,2.3,3.1,2.3,3.6-0.1c0.3-1.4-0.1-2.2-1.1-2.8c-2-1.2-2-2.3,0.1-1.8
		c0.9,0.2,1.4,0.1,1.2-0.3c-0.2-0.4,0.9-0.6,2.4-0.6c1.6,0.1,3.1,0.5,3.3,1.1c0.4,0.9,0.6,0.9,1.6,0.1c1.6-1.4-0.9-4.5-2.9-3.5
		c-2,1-2.6,0.8-2.1-0.7c0.3-1.1,0-1.3-1.7-1c-1.7,0.3-2,0.1-1.5-0.9c0.4-1,0.1-1.3-1.3-1.2c-3.1,0.2-3.3,0-1.9-1.5
		c1.4-1.4,1.4-1.4-0.3-1c-1.3,0.3-1.7,0.1-1.7-1.1c0-1.4,2.6-2.8,3.6-1.9c0.2,0.2,1.5,0.5,2.9,0.5c2,0.1,2.4-0.2,2-1.2
		c-0.6-1.6,0.4-1.7,3.4-0.2c1.3,0.6,2.6,0.9,3,0.7c0.4-0.2,1.3,0,2.1,0.6c1.3,0.9,1.3,0.9,0-0.5c-1.7-1.8-1.9-3.3-0.4-3
		c0.6,0.1,2.8,1,5,2l3.9,1.8l5.1-2.4c2.8-1.3,6.4-3.5,8-4.9c2.4-2,2.8-2.7,2.3-4.3c-0.5-1.6-0.6-1.7-0.7-0.3
		c-0.1,2.5-4.5,5.2-7.8,4.9c-0.8-0.1-1.9,0.3-2.2,0.8c-0.6,0.8-0.8,0.8-1.4,0c-0.5-0.7-1-0.5-2.1,0.9c-1.7,2.3-3.3,2.5-2.7,0.4
		c0.4-1.5,0.4-1.5-1.1-0.3c-1.5,1.3-4.1,1.1-4.1-0.4c0-0.4,0.8-1.2,1.8-1.6c2.1-1,3.9-2.6,3.9-3.4c0-0.3-0.8,0.1-1.7,0.9
		c-0.9,0.8-2.1,1.5-2.7,1.5c-2,0.2-4.6,1.2-4.6,1.9c0,0.4-0.5,0.5-1.2,0.2c-0.6-0.2-1-0.9-0.8-1.4c0.2-0.5-0.2-1.2-0.9-1.4
		c-1.7-0.6-0.8-1.8,1.9-2.9c1.7-0.7,1.9-0.9,0.7-1.2c-0.8-0.2-2.2,0.5-3.3,1.6c-2.3,2.3-5.8,2.9-6.2,1.1c-0.2-0.8,0.7-1.7,2-2.5
		l2.3-1.2l-3.3,0.4c-4.8,0.6-11.4-2.1-8.7-3.7c0.4-0.2,2.6-0.5,4.9-0.6c2.7-0.1,3.9-0.5,3.4-1c-1.3-1.2-0.9-2.7,0.8-2.7
		c0.9,0,2.1,0.4,2.7,1c2.1,1.9,6.9,4.1,9.7,4.6l2.9,0.5l-2.2-1.2c-1.2-0.6-2.2-1.5-2.2-1.8c0-1.6,2.6-1.3,6.2,0.8
		c3.6,2.1,4.4,2.2,9.8,2c3.3-0.2,6.2-0.5,6.5-0.8c0.3-0.3,0.1-1.5-0.4-2.6l-1-2.1l-1,1.8c-0.8,1.3-1.2,1.5-1.5,0.8
		c-0.3-0.7-0.5-0.8-0.5-0.1c0,0.5-0.8,0.9-1.7,0.9c-1.4,0-1.6-0.3-1.2-2.1c0.3-1.2,0.2-1.7-0.2-1.3c-1,1.2-3.2,1.8-4.4,1.1
		c-0.9-0.5-0.7-1,0.9-2.2l2-1.5l-1.8,0c-1,0-1.8,0.3-1.8,0.7c0,0.4-0.7,0.8-1.6,0.8c-0.9,0-1.6-0.3-1.6-0.7c0-1-2.9-1.5-4.4-0.7
		c-0.9,0.5-1.8,0.4-2.6-0.2c-2.1-1.6-1.3-2.8,2.2-3.4l3.4-0.5l-1.9-1.3c-1.4-1-1.6-1.4-0.7-1.7c0.8-0.3,0.8-0.4-0.3-0.5
		c-0.8,0-1.4-0.4-1.4-0.8c0-0.4-0.4-0.6-0.8-0.4c-1.2,0.7-3.3-0.4-2.8-1.5c0.2-0.6,1.4-1.1,2.6-1.3l2.2-0.2l-2.4-1.2
		c-2.4-1.2-3.5-4.1-1.8-4.7c0.5-0.2,3.1,1,5.7,2.6c5.4,3.3,6,3.4,6.7,1.7c0.3-0.8,1.1-1,2.2-0.8c1.3,0.3,1.1-0.1-0.9-1.5
		c-1.5-1.1-6.7-5.3-6.7-6.1c0-1.7,4.5,1,7.3,2.5c2.8,1.5,2.9,1.4,2.8-0.9c-0.2-2.8-0.2-2.9-1.3-1.9c-1.5,1.4-3.7,1.1-4.1-0.5
		c-0.3-1,0.1-1.6,1.1-1.8c2.1-0.5,2-1.2-1.3-4.6c-2.7-2.8-3.1-5-0.8-5c0.6,0,1.6,0.4,2.1,1c1.6,1.4,3.9,2.2,3.5,1.1
		c-0.2-0.5,0-1.4,0.4-2c1.3-1.9,3.3,0.5,3.3,3.8c0,1.6,0.4,2.9,0.8,2.9c0.4,0,0.8,0.5,0.8,1.1c0,0.6,0.4,1.3,0.8,1.6
		c0.6,0.3,0.8-0.9,0.7-3.7c-0.2-3.7-0.5-4.6-3.3-7.4c-1.7-1.7-3.1-3.9-3.1-4.9c0-2.3,0.4-2.2,3.9,1.2l3,2.9l0.1-4.9
		c0.1-2.7,0.2-5.8,0.2-6.8l0.1-1.8l0,0h0l1.7,1.7c1.4,1.3,1.7,2.5,1.4,5.4c-0.3,4.1,1.2,5.2,2.5,1.9c0.8-2.1,5-3.2,5-1.4
		c0,0.6-1.7,2.9-3.7,5c-3,3.2-3.8,4.7-4.1,7.6c-0.4,3.2-0.3,3.5,0.7,2.4c0.6-0.7,1.4-1.1,1.7-0.8c0.3,0.3,0.5-0.1,0.5-0.7
		c0-1.8,3.3-6.6,4.2-6.1c0.4,0.2,0.6,1.2,0.3,2.1c-0.3,1-0.2,1.3,0.2,0.7c0.7-0.9,6.1-3.2,7.6-3.2c1.5,0,0.9,1.1-1.6,2.6
		c-1.3,0.8-2.5,1.8-2.5,2.1c0,0.3,0.3,0.4,0.7,0.2c0.4-0.2,1.2,0.1,1.7,0.7c0.6,0.6,1.5,1.1,2.2,1.1c0.7,0,1,0.4,0.8,0.9
		c-0.4,1-4.1,1.1-8.2,0.3c-2.4-0.5-3.9,0.6-1.6,1.2c0.8,0.2,1.7,0.3,2,0.3c0.7-0.1,4.8,3.4,4.8,4.1c0,0.9-3.3,1.3-3.8,0.5
		c-0.3-0.5-1.1-0.1-1.9,0.9c-1.6,1.9-3.6,1.4-2.8-0.8c0.4-1.2,0.2-1.3-1.8-0.8c-1.9,0.5-2.3,1-2.5,3.3c-0.1,1.5,0.1,2.8,0.5,2.8
		c0.4,0,0.6,1.9,0.5,4.1c-0.1,2.3,0.1,4.3,0.4,4.5c1.1,0.6,8.7-5.3,9.1-7.1c0.6-2.5,3.1-6.7,4.1-6.7c0.4,0,1.2,0.6,1.7,1.4
		c0.9,1.3,1.1,1.2,3.6-1.3c2.1-2.1,2.9-2.5,3.7-1.8c0.8,0.7,0.6,1.4-1,3.4l-2.1,2.5h2.9c3.5,0,4.2,1.3,1.4,2.6
		c-1.1,0.6-1.9,1.2-1.7,1.6c0.2,0.3-0.2,0.7-0.8,1c-1.7,0.6-1.5,2,0.4,2c2.4,0,4.2,0.8,4.2,1.9c0,0.6-0.7,1.1-1.6,1.1
		s-1.6,0.4-1.6,0.8c0,0.4-0.3,0.6-0.8,0.4c-0.4-0.2-1,0.3-1.3,1.1c-0.5,1.5-0.7,1.5-2.5,0.4c-1.8-1.1-2-1.1-2.8,0.3
		c-1.2,2.1-1.2,2.1,2.9,2.5c2,0.2,4,0.6,4.2,0.8c0.7,0.7-2.3,2.7-4.2,2.7c-1.2,0-1.4,0.2-0.6,1.1c0.8,0.9,0.6,1.2-1.1,1.6
		c-1.2,0.3-2.1,0.8-2.1,1.2c0,0.8,3.2,0.1,4.4-1c1.3-1.1,5.4-0.8,5.4,0.4c0,0.6-0.5,1.2-1,1.4c-1.6,0.5,2.6,2.3,5.5,2.3
		c1.4,0,2.4,0.5,2.3,0.9c-0.1,0.5,0.9,1.3,2.2,1.8c1.3,0.5,2.4,1.2,2.4,1.5c0,0.7-3.3,2.2-5.5,2.5c-1,0.1-2.1,0.5-2.4,0.8
		c-0.3,0.3-1.3-0.2-2.1-1.2c-0.8-0.9-1.3-1.3-1-0.8c0.3,0.5,0.1,0.9-0.4,0.9c-0.5,0-0.8,0.7-0.8,1.5c0,0.8-0.4,1.6-0.8,1.9
		c-1,0.6-5.8-3.2-5.8-4.5c0-0.6-0.4-1.1-0.8-1.1c-0.5,0-0.8,0.4-0.8,0.8c0,0.4-0.4,0.6-0.8,0.3c-1.1-0.6-1,0.1,0,1.9
		c0.7,1.2,0.6,1.5-1.1,1.5c-2.1,0-4.3-1.8-4.9-4.1c-0.3-1.2-0.4-1.1-0.5,0.5c-0.1,1.1-0.6,2.4-1.2,2.8c-0.9,0.7-1.5,0.4-2.9-1.4
		c-1-1.2-1.7-2.7-1.6-3.2c0.3-2.1-0.1-3.7-0.8-3.3c-1.1,0.6,0.6,6.6,2.4,8.3c1.2,1.1,2.5,1.4,5.3,1.3c2.9-0.2,3.7,0,3.7,0.9
		c0,0.6-0.6,1.5-1.4,1.9c-1.1,0.6-0.8,0.9,1.9,1.6c2.9,0.8,3.7,0.7,6.6-0.7c1.8-0.9,3.6-1.9,3.9-2.3c0.9-1.3,2.3-0.8,1.8,0.7
		c-0.4,1.3-0.2,1.4,1.6,0.8c2.7-0.9,3-0.9,2.4,0.4c-0.3,0.7,0,1.1,0.8,1.1c0.8,0,1.1,0.4,0.8,1.1c-0.6,1.5,0.1,1.4,4.3-0.4
		c3.4-1.5,6.4-1.5,5.4,0c-0.3,0.5,0.9,0.8,3.2,0.8c4,0,5.3,0.9,3.5,2.6c-0.7,0.7-2.3,1-4.3,0.8c-3.1-0.3-3.1-0.2-1.1,0.8
		c1.1,0.6,1.6,1.1,1.1,1.1c-0.5,0-2,0.4-3.3,0.8c-2.2,0.8-2.2,0.8-0.7,1.9c1.5,1,1.5,1.1-0.6,1.1c-1.2,0-2.4-0.4-2.7-0.8
		c-0.3-0.4-0.8-0.6-1.2-0.4c-0.4,0.2-0.9-0.1-1.2-0.8c-0.3-0.6-1.1-1.1-1.9-1.1c-1.1,0-0.8,0.5,1.2,2.1c1.5,1.1,2.7,2.3,2.7,2.6
		c0,1.2-4.6,0.1-6-1.4c-2-2.3-3.9-1.5-3.3,1.3c0.4,1.9,0.2,2.2-1.4,2.2c-1,0-2.7-0.9-3.7-2c-1.7-1.8-1.9-1.9-1.5-0.4
		c0.4,1.3,0.1,1.6-1.3,1.5c-0.9-0.1-1.9-0.6-2.1-1.3c-0.2-0.6-1.3-1.2-2.4-1.3c-1.8-0.1-1.9,0.1-1.2,1.4c1.2,2.1,5.2,4.2,11.3,5.8
		c5.7,1.6,6.4,1.5,11.4-2.4c2.6-2,4.8-2.3,2.7-0.4c-1.4,1.3-1.2,2.3,0.4,1.8c1.1-0.4,1.2-0.3,0.3,0.7c-1.6,1.8,0.4,1.4,3.9-0.7
		c3.2-2,4.4-2,2.6,0c-0.9,1-0.8,1.2,0.9,1c1.1-0.1,3.1-0.1,4.4,0l2.5,0.1l-1.9,1.5c-1.1,0.8-2.6,1.5-3.3,1.5c-2,0-2.6,0.8-1.6,2
		c0.5,0.6,0.8,1,0.6,1.1c-3.2,0.6-4,0.5-5.2-0.8c-0.8-0.8-1.8-1.3-2.2-1c-0.4,0.2-0.1,1.1,0.6,1.9c1.3,1.4,1.3,1.4,0,1.4
		c-1.2,0-1.3,0.2-0.4,1.1c1.4,1.6,0.6,2.1-2,1.1c-2.2-0.8-2.2-0.7-1.7,1.2c0.3,1.1,0.2,1.8-0.2,1.6c-0.4-0.2-1.2,0.2-1.8,1
		c-0.9,1.2-1.4,1.3-2.8,0.6c-0.9-0.5-1.9-0.7-2.1-0.5c-0.2,0.2-0.6-0.5-0.9-1.6c-0.5-1.8-0.6-1.8-0.6-0.2c0,0.9-0.5,1.7-1,1.7
		c-1.2,0-4.3-1.6-5-2.6c-0.3-0.5-0.6,0.1-0.6,1.3c0,2.1,0,2.1-2.1,0.9c-1.1-0.7-2.4-1.1-2.8-0.8c-0.4,0.2-1.1-0.2-1.6-0.9
		c-0.8-1.3-0.8-1.3-0.9,0c0,1.1-0.3,1.2-1.6,0.6c-2.5-1.2-2.9-0.9-0.8,0.5c5.6,3.8,14.3,6.9,19.4,6.9c1.5,0,4-0.7,5.5-1.6
		c1.5-0.9,2.8-1.5,2.8-1.3c0.7,2.9,0.5,3.5-1,4.1c-1.4,0.6-0.9,0.7,2.3,0.7c2.4,0,4.8-0.6,6-1.3c2.4-1.6,4.8-1,3.2,0.7
		c-0.9,1-0.7,1.1,1.2,0.6c1.3-0.3,2.2-0.2,2.2,0.2c0,0.4,1.4,1,3,1.2l3,0.5l-2.4,1.8c-1.3,1-3.5,2.3-4.9,2.9c-1.5,0.7-1.9,1-1,1.1
		c2.2,0,1.7,1.5-0.7,2c-1.9,0.4-2,0.6-0.8,1.8c1.2,1.2,1.2,1.4-0.6,1.9c-1,0.3-2.2,0.5-2.7,0.4c-3.2-0.6-8-0.7-7.1-0.1
		c0.6,0.4,0.9,1.1,0.5,1.6c-0.4,0.6-1.4,0.4-3.4-0.7l-2.8-1.5v1.5c0,1.3-0.3,1.5-1.8,1c-1-0.3-3-0.5-4.5-0.5c-1.7,0.1-2.9-0.3-3.2-1
		c-0.3-0.6-0.9-1.1-1.4-1.1c-0.6,0-0.6,0.3,0.1,0.9c0.5,0.5,1,1.4,1,2.1c0,3.3,13.5,6.2,18.5,4.1c1.4-0.6,3.3-1.8,4.3-2.6
		c1.9-1.6,2.6-0.3,0.8,1.4c-1.3,1.2,0.4,1.3,2.7,0.1c2.3-1.1,1.9,0.1-0.7,2.1l-2.2,1.8l2-0.5c1.1-0.3,3-0.6,4.1-0.7
		c1.2-0.1,2.6-0.4,3.2-0.8c0.8-0.5,1-0.3,0.6,0.6c-0.4,1-0.2,1.2,1.5,0.8c2.1-0.5,2.9,0.7,1,1.5c-0.6,0.2-0.1,0.2,1.1,0
		c1.3-0.3,2.5,0,3.2,0.8c0.7,0.8,0.7,1.2,0.1,1.2c-0.5,0-0.8,0.4-0.7,0.9c0.1,0.6-0.8,0.9-2.7,0.8c-1.6-0.1-2.1,0.1-1,0.3
		c2.6,0.5,2.2,1.8-0.5,1.8c-2.5,0-4.7,1.7-3.8,2.9c0.9,1.3-0.8,1.5-5.3,0.9l-4.4-0.6l2.6,2c3.1,2.4,3.3,3.1,0.6,3.1
		c-1.1,0-2,0.4-2,0.8c0,0.5-0.7,0.7-1.6,0.4c-0.9-0.2-1.6-0.1-1.6,0.3c0,0.8-2.5,0-4.2-1.4c-1.2-1-1.3-0.9-0.9,0.5
		c0.4,1.3,0,1.6-1.5,1.6c-1.7,0.1-1.6,0.2,0.9,1.3c3.6,1.5,20.6,1.8,23.5,0.3c1.6-0.8,1.7-0.8,1.3,0.3c-0.3,0.7-1.3,1.5-2.2,1.8
		c-1.4,0.5-1.4,0.7-0.3,0.7c0.8,0,1.4,0.4,1.4,0.8c0,0.8-1.6,1.1-4.5,0.8c-1.4-0.1-1.2,0.2,0.8,1.7c2.9,2.2,2.2,3.4-1.3,2.2
		c-1.4-0.5-3-0.7-3.7-0.4c-1,0.3-0.9,0.7,0.6,2.2c2.6,2.6,6.6,2.4,17.3-0.8c4.3-1.3,4.9-0.7,1.9,1.9c-1.8,1.6-1.9,1.8-0.6,2.7
		c0.9,0.7,1,1.1,0.4,1.4c-0.5,0.2-0.8,0.9-0.5,1.5c0.3,0.7-0.1,1.1-1.3,1.1c-1.3,0-1.6,0.3-1.2,1.2c0.4,1,0.2,1.1-1,0.7
		c-3.5-1.3-4.1-1.3-2.6-0.2c2.1,1.6,1.8,1.8-1.9,2.4c-2.6,0.4-3.7,0.2-5-0.8c-1.1-1-1.8-1.1-2.2-0.5c-0.3,0.5-1.1,0.8-1.8,0.8
		c-6.5-0.3-4.3,1.7,4.1,3.9c6.2,1.6,6.6,1.7,10.6,0.5c5.1-1.5,5.3-1.5,4.8,0.3c-0.5,1.8,0.5,1.9,5.6,0.3c4.7-1.5,6.6-1,5.1,1.2
		c-0.6,0.8-1.5,1.5-1.9,1.5c-0.5,0-1.7,0.8-2.8,1.9c-1.2,1.2-2.9,1.9-4.4,1.9l-2.5,0l2.9,1.3l2.9,1.3l-3.9,0.3l-3.9,0.2l1.9,1.4
		l1.9,1.5l-2.1,0c-1.1,0-2.9-0.5-3.9-1.1c-1.2-0.8-1.8-0.9-1.8-0.3c0,0.5-0.6,0.7-1.2,0.4c-0.7-0.2-1.2-0.1-1.2,0.3
		c0,0.4-0.9,0.7-2,0.7c-1.4,0-1.9,0.3-1.6,1c0.5,1.2,9.1,2.9,14.5,2.8c2.1,0,3.9,0.3,3.9,0.7c0,0.4-0.4,0.8-0.8,0.8
		c-0.5,0-0.8,0.3-0.8,0.6c0,0.7,11.2,0.6,15.7-0.3c4.9-0.9,3.5,0.6-2.1,2.2c-3.6,1.1-4.5,1.6-3.2,1.8c1.4,0.2,1.8,0.6,1.4,1.6
		c-0.4,1,0.1,1.5,1.8,1.9c2,0.5,2.1,0.6,0.8,1.3c-0.8,0.4-1.8,0.5-2.2,0.3c-0.4-0.3-0.8-0.2-0.8,0.2c0,0.4-2.4,1.1-5.3,1.7
		c-3.2,0.6-5.3,1.4-5.3,2c0,0.7-0.5,0.8-2.1,0.2c-2.9-1-3.4-0.9-1.5,0.3c1.5,1,1.5,1.1-0.9,2c-1.3,0.5-2.7,1.3-3,1.7
		c-0.3,0.4-1.4,0.2-2.7-0.6c-1.8-1.1-2.1-1.1-2.1-0.1c0,1.6-0.8,1.4-3.6-0.9c-1.6-1.4-2-1.5-0.9-0.4c1.4,1.6,1.2,2.1-0.7,1.7
		c-0.4-0.1-2.6-0.2-4.9-0.2c-2.3,0-5.2-0.5-6.6-1c-4.1-1.6-5.3-1.9-5.3-1.1c0,0.4-0.7,0.6-1.6,0.3c-2-0.6-2.1,0.5-0.2,2
		c1.8,1.5,17.5,6.3,22.2,6.8c2.2,0.2,5,0,7.2-0.7c4.1-1.3,5.1-0.9,3.6,1.3c-1,1.5-0.9,1.5,7.3,1c6.9-0.4,8.2-0.3,7.9,0.5
		c-0.2,0.6-1.4,1.3-2.8,1.5c-2,0.4-1.8,0.5,1.3,0.6c2,0.1,4.2,0.4,4.9,0.8c3.1,1.9-4.2,3-9.8,1.5c-4.4-1.2-3.8-0.4,0.9,1.2
		c7,2.3,5.6,4.5-1.6,2.6c-2.1-0.5-2.8-0.5-3.1,0.3c-0.3,0.7-1.4,0.9-3.5,0.6c-2.1-0.3-3.5,0-4.3,0.8c-0.7,0.6-1.5,1-1.8,0.7
		c-0.3-0.3-0.5-0.1-0.5,0.3c0,0.4,0.7,1.4,1.6,2.1c0.9,0.7,1.6,1.8,1.6,2.4c0,0.9-0.4,0.9-2.2-0.2c-1.2-0.7-2.6-1.8-2.9-2.3
		c-0.9-1.4-2.2-1.3-2.2,0.1c0,1.4-3.4,1.5-4.8,0.2c-0.8-0.7-0.9-0.4-0.4,1.6c0.6,2.6,0.2,2.7-3,0.4c-0.7-0.5-2.2-1.3-3.4-1.7
		c-2.2-0.9-2.2-0.8-1.7,1.6l0.5,2.4l-2.6-2.2c-2.1-1.8-2.6-2-2.6-0.8c0,1.1-0.2,1.2-1.2,0.4c-0.7-0.5-1.2-0.7-1.2-0.3
		c0,0.3-0.8-0.1-1.7-1c-2.1-2.1-2.7-2.1-1.6-0.1c0.9,1.6,13.4,7.4,21,9.8c6.8,2.1,10.2,1.9,16.4-1.2c6.1-3.1,8.5-2.7,4.2,0.6
		c-2.6,2-2.6,2.2-0.7,1.7c6.1-1.5,10.6-2.2,11.1-1.7c1,0.9-2.2,2.5-7.2,3.5c-2.7,0.5-5,1.3-5.2,1.6c-0.2,0.3,2.2,0.8,5.3,1.1
		c3.2,0.3,5.7,0.8,5.7,1.2c0,0.7-2.2,0.9-5.6,0.7c-1.2-0.1-1.7,0.2-1.4,0.7c0.3,0.4,1.2,0.8,2,0.8c0.8,0,2.1,0.5,3,1.2
		c1.5,1.1,1.2,1.1-3.7,0.8c-4.3-0.3-5-0.2-3.5,0.5c2.6,1.2,2.3,2-0.8,2.3l-2.7,0.3l2.7,0.6c4,0.9,2.7,2.3-2,2.1
		c-3.5-0.2-3.7-0.1-2.1,0.7c3,1.4,2.1,2.3-1.9,2c-3.1-0.2-3.5-0.1-2.3,0.7c2,1.4,0.6,2.2-2.1,1.2c-3.1-1.1-2.5,0.7,0.6,1.9
		c2.6,1,15,3.1,18.6,3.1c2.3,0,2.4,0.1,0.8,1.1c-0.9,0.6-3.1,1.1-4.9,1.2c-3,0-3.1,0.1-1.5,0.9c2,0.9,2.5,2.1,0.8,2.1
		c-0.6,0-2.6-0.9-4.6-1.9c-4.5-2.4-6.2-2.4-3,0l2.4,1.8l-2.2,0.5c-2.1,0.5-2.2,0.6-0.8,1.9c2.9,3-1.4,2.4-5.7-0.8
		c-0.9-0.7-1.3-0.7-1-0.2c0.3,0.5,0,1.5-0.7,2.1c-1.4,1.3-1.8,1.2-6.9-3.1c-2.3-1.9-2.6-2-1.8-0.6c0.5,0.9,0.7,1.7,0.4,1.7
		c-0.3,0-0.1,0.5,0.5,1.1c0.8,0.9,0.7,1.3-0.3,2.3c-1.6,1.5-2.2,1.4-3.5-0.2c-1-1.2-1.1-1.2-1.8,0.5l-0.7,1.8l-1.3-1.7
		c-1.2-1.5-1.5-1.6-2.7-0.7c-1.2,0.9-1.5,0.8-2.5-0.4c-0.6-0.8-1.1-1.7-1.1-2.1c0-0.4-0.5-0.5-1.1-0.3c-0.6,0.2-1.6,0-2.2-0.5
		c-0.9-0.7-0.8-0.6,0,0.4c1.6,2,0.7,2.2-2.7,0.6c-3.1-1.4-3.8-1.2-2,0.6c0.8,0.8,0.8,1.1,0,1.3c-0.5,0.2-0.7,0.9-0.5,1.5
		c0.4,1,0.2,1.1-1.1,0.6c-2.4-0.9-6.9-1.2-6.9-0.4c0,0.8-2.6,0-3.6-1.1c-0.4-0.5-0.5-0.1-0.3,0.9c0.5,2.1-0.6,2.2-2.7,0.2
		c-1.1-1-1.7-1.2-1.9-0.6c-0.2,0.6-0.7,0.7-1.5,0.1c-0.6-0.4-2-0.7-3.1-0.7c-1.5,0.1-2.2-0.5-3.1-2.4c-1.1-2.4-2.6-3.7-1.7-1.4
		c0.8,2-1,1.2-2.5-1.2c-0.8-1.2-1.8-2.1-2.2-2 M87,135.4c-0.1,0-0.2,0-0.2,0.2c0,0.6,0.5,1.6,1.2,2.3c0.7,0.7,1.3,1.9,1.5,2.7
		c0.4,1.8,1.4,4.1,1.9,4.1c0.2,0,0.3-1.1,0.3-2.5c0-1.7-0.8-3.3-2.5-5C88.3,136.1,87.4,135.4,87,135.4L87,135.4z M85,146.4
		c-0.2,0-0.4,0-0.5,0.1c-0.6,0.5,1.6,3.4,2.6,3.4c0.6,0,1.7,0.7,2.5,1.6c1.8,2,2.4,1.5,1.4-1.1C90.3,148.9,86.6,146.5,85,146.4
		L85,146.4z M107.3,152.6c-0.6,0-0.9,0.3-0.9,0.8c0,0.6-0.6,1.1-1.2,1.1c-0.7,0-1.2,0.5-1.2,1.2c0,0.9-0.7,1.1-3.1,0.9
		c-2.7-0.2-3.1,0-3.3,1.5c-0.1,0.9,0.1,1.7,0.6,1.7c0.5,0,0.9-0.3,0.9-0.6c0-0.3,0.7-0.6,1.5-0.7c0.9-0.1,3.2-1.3,5.3-2.7
		c3.2-2.2,3.5-2.7,2.1-3C107.8,152.6,107.5,152.6,107.3,152.6L107.3,152.6z M97.9,163.3l2,1.6c1.1,0.9,2.5,1.4,3.1,1.2
		c0.6-0.2,1.5-0.4,1.9-0.4c0.4,0,0.8-0.4,0.8-0.8c0-0.4-0.9-0.6-2-0.3c-1.1,0.3-2.8,0.1-3.9-0.4L97.9,163.3L97.9,163.3z
		 M106.8,165.2c-0.3,0-0.4,0.3-0.4,1.2c0,1.9,0.7,2,2.8,0.6c1-0.7,1.2-1.2,0.6-1.5c-0.5-0.3-0.9-0.1-0.9,0.4c0,0.7-0.3,0.6-1.2,0
		C107.3,165.4,107,165.2,106.8,165.2L106.8,165.2z M119.1,167.9c-0.7,0-1.3,0.3-1.3,0.8c0,1,1.4,1,2,0
		C120.2,168.3,119.9,167.9,119.1,167.9L119.1,167.9z M99.9,179.9c-0.9,0-1.2,6.2-0.3,7c1,0.9,1.1,0.6,1.1-3.2
		C100.7,181.6,100.4,179.9,99.9,179.9L99.9,179.9z M93.7,190c-0.1,0-0.2,0.1-0.3,0.1c-1,0.6-1,1.1,0,1.1c0.5,0,0.8-0.4,0.8-0.8
		C94.2,190.1,94,189.9,93.7,190L93.7,190z M100.3,191.6c-0.1,0-0.2,0.6-0.2,1.5c0,1.2,0.2,1.6,0.4,0.9c0.2-0.7,0.2-1.7,0-2.3
		C100.4,191.6,100.3,191.6,100.3,191.6L100.3,191.6z M89.3,192.8c0,0.4,0.4,0.6,0.8,0.3c0.5-0.3,0.8-0.6,0.8-0.8
		c0-0.2-0.4-0.3-0.8-0.3C89.6,192,89.3,192.3,89.3,192.8z M85.2,194.3c0,0.4,0.4,0.6,0.8,0.3c0.4-0.3,0.8-0.6,0.8-0.8
		c0-0.2-0.4-0.3-0.8-0.3C85.6,193.5,85.2,193.8,85.2,194.3z M69,193.5c-0.6-0.1-1,0.2-1,0.8c0,0.4,0.4,1.5,0.9,2.3
		c0.8,1.3,1.5,1.5,5.5,1.1c2.5-0.2,5.7-0.7,6.9-1.2c1.2-0.4,2.2-1.2,2.2-1.6c0-1-1.4-1-2,0c-0.3,0.4-1.1,0.8-1.7,0.8s-1-0.3-0.8-0.7
		c1-1.4-1-1.4-2.3,0c-1.5,1.6-4.3,1.4-5.9-0.5C70.2,193.9,69.6,193.5,69,193.5L69,193.5z M143.7,234c0.6,1,1.2,1,1.2,0
		c0-0.4-0.4-0.8-0.9-0.8C143.5,233.3,143.4,233.6,143.7,234z M75.7,242.3c-1.2,0-6.8,2.2-6.8,2.6c0,0.7,1.7,0.3,4.7-1.1
		C75.2,243,76.2,242.3,75.7,242.3L75.7,242.3z M143.2,275.1c0,0.2,1.6,0.3,3.5,0.2c2.5,0,3-0.2,1.9-0.6c-0.6-0.2-1.5-0.3-2.3-0.3
		C144.8,274.4,143.2,274.7,143.2,275.1z M163.9,278.7c-0.3,0.3,0.2,0.4,1.1,0.4c1,0,1.2-0.2,0.5-0.4c-0.3-0.1-0.6-0.2-0.9-0.1
		C164.3,278.5,164,278.5,163.9,278.7z M164.8,297.2c-0.3,0.1,0,0.4,0.6,0.7c0.7,0.4,1.6,0.7,2,0.7c0.4,0,0.3-0.3-0.4-0.7
		c-0.7-0.4-1.6-0.7-2-0.7C164.9,297.2,164.8,297.2,164.8,297.2L164.8,297.2z M22.3,327.6c-0.1,0-0.3,0.1-0.5,0.1
		c-1.4,0.5-1.7,1.1-0.5,1.1c0.4,0,1-0.3,1.3-0.8C22.8,327.7,22.7,327.5,22.3,327.6L22.3,327.6z M35.5,334l-1.8,1.8
		c-1.7,1.6-1.7,1.8-0.4,2.3c0.8,0.3,1.6,0.2,1.7-0.2c0.2-0.4,1.2-0.3,2.5,0.3c2.5,1.2,3.7,1.4,3.1,0.4c-0.2-0.4,1.1-0.5,3-0.3
		c2.2,0.2,4.3-0.1,5.9-0.8l2.5-1.2h-2.2c-1.2,0-2.2,0.3-2.2,0.8c0,1.4-1.5,0.7-2.1-0.9c-0.4-1.1-0.7-1.3-1.2-0.7
		c-0.5,0.7-0.8,0.6-1.5-0.4c-0.7-1.2-0.9-1.2-2.2,0.6l-1.4,2l-1.8-1.8L35.5,334L35.5,334z M53.1,335.4c-0.6,0.6-0.3,0.7,1.1,0.3
		c1.1-0.3,1.5-0.6,0.9-0.8c-0.1,0-0.3,0-0.5,0C54,334.8,53.5,335,53.1,335.4z M46.3,365.8c-0.1,0-0.2,0.1-0.3,0.1
		c-1,0.6-1,1.1,0,1.1c0.4,0,0.8-0.4,0.8-0.8C46.8,365.9,46.5,365.8,46.3,365.8L46.3,365.8z"/>
	<path class="st1" d="M107,386.3c-1.1,0.3-0.6,13.9,0.9,17.1c0.9,2,1.3,3.2,0.4,3.9H87.9c0.3-0.7,1-2,1.8-3.4
		c1.3-2.4,2.2-12.6,2.6-16.5c0.5-5.5-0.4-5.3-0.4-5.3"/>
</g>
<path class="st1" d="M145.5,385.4c1.4,0.5,0.7,24.4-1.1,28.8c-1.1,2.8-1.6,4.4-0.5,5.3h24.9c-0.4-1-1.2-2.7-2.2-4.6
	c-1.6-3.3-2.7-22.7-3.1-28c-0.6-7.6-0.6-8,1.4-8"/>
<path class="st2" d="M165,378.9c1.1,0,2.5-0.8,3.1-1.8c0.8-1.5,1-1.1,1,2c0,4.1,1.6,6.2,2.4,3.2c0.4-1.5,0.5-1.4,0.6,0.4
	c0.1,1.2,1.2,3,2.6,3.9c3.2,2.2,3.8,2.1,3-0.4c-1.2-3.9,1.1-2.1,3.3,2.6c1.7,3.6,2.7,4.5,4.3,4.3c1.2-0.2,2.4-0.9,2.9-1.6
	c0.5-0.9,1-0.4,1.5,1.5c0.4,1.8,1.2,2.6,2,2.2c0.8-0.3,1.6,0.4,2,1.7c0.6,2.1,0.7,2.1,1.9,0.5c1.2-1.6,1.5-1.6,3.1,0.4
	c2.1,2.5,3.7,1.4,3.9-2.6c0.1-1.5,0.3-2.7,0.5-2.7c0.2,0,1.6,1.4,3.1,3.1c3.9,4.3,6.4,4.2,5.5-0.3l-0.7-3.4l2.3,2.8
	c3,3.6,8.5,4.5,8,1.4c-0.3-2-0.3-2,1.6-0.3c2.3,2.2,3.3,2.3,3.3,0.4c0-0.9,0.7-1.3,2-0.9c2.4,0.6,2.6-0.6,0.5-3.4
	c-2.3-3.2-1.8-3.8,1.7-1.8c3.2,1.8,8.8,3,8.8,2c0-0.3-1.5-2-3.3-3.7c-2.5-2.5-2.8-3.1-1.3-2.7c6,1.7,7.4,1.8,8.1,0.6
	c1-1.7-1-2.8-7.6-4.2c-3-0.6-6.2-1.6-7-2.1c-1-0.6-0.6-0.7,1.3-0.3c1.7,0.4,2.8,0.2,2.8-0.5c0-0.6,1.4-0.2,3.3,0.9
	c3.8,2.4,6.2,2.7,5.5,0.6c-1-2.6,0.6-2.8,3.2-0.4c2.2,2,2.4,2.1,1.8,0.4c-0.6-1.7-0.5-1.8,1-0.5c1.5,1.3,1.6,1.2,1.1-1
	c-0.6-2.3-0.5-2.3,1.6-0.7c4.5,3.4,7.3,3.4,4.6,0c-1.2-1.4-1-1.5,1.4-0.9c2.1,0.5,2.7,0.3,2.7-0.9c0-0.9-0.9-2.1-2.1-2.8
	c-3.4-1.9-1.6-2.2,3-0.5c9.1,3.3,11.1,0.6,2.2-3.1c-5.2-2.2-5.8-3.6-1.5-3.6c1.3,0,2.6-0.4,2.9-1c0.8-1.3-3.8-2.5-7-1.8
	c-2.7,0.5-3.2-0.2-1.3-2.2c1-1,0.3-1.2-3.8-0.8c-2.8,0.2-4.2,0.3-3.3,0c1-0.3,1.8-0.9,1.8-1.5c0-1.2-5.5-0.2-8,1.4
	c-1,0.6-4.4,0.5-9.6-0.4c-7.4-1.3-8-1.6-8.4-3.9l-0.3-2.6l2.6,2.5c2.3,2.2,2.6,2.3,3.2,0.7c0.4-1,0-2.5-0.8-3.5
	c-3.3-4-2.8-4.6,0.8-0.9c4.8,4.9,9.5,8.4,9.5,7.1c0-0.6-0.4-2.2-0.9-3.6c-0.6-1.7-0.6-2.8,0-3.2c0.5-0.3,0.9-0.2,0.9,0.3
	c0,1.3,6,4.7,6.8,3.9c0.4-0.4,0.7-1.3,0.8-1.9c0.1-0.7,0.2-2,0.3-3.1c0.1-1,0.6-1.6,1.2-1.2c0.6,0.4,2.4,1.1,4,1.5
	c3.8,1.1,4.1-1.1,0.5-4.7c-2.8-2.9-2.5-3,2.9-1.1c4.1,1.5,9.1,1.1,10.2-0.7c0.9-1.5-1.6-2.8-5.3-2.8c-1.7,0-3.9-0.3-4.7-0.6
	c-1.3-0.5-1.4-0.8-0.2-2.1c0.8-0.8,2.1-1.5,3-1.5c0.9,0,1.6-0.5,1.6-1c0-0.6-5.7-0.9-14.5-0.8c-11.3,0.2-14.8-0.1-15.8-1.2
	c-1.1-1.2-1-1.3,0.6-0.8c1.3,0.5,1.7,0.3,1.3-0.7c-0.4-1.2,0-1.2,2.4-0.3c1.6,0.6,3.2,0.7,3.7,0.3c0.4-0.5,0.2-1.1-0.5-1.3
	c-0.7-0.3-1.3-0.9-1.3-1.5c0-0.5,1.4-0.2,3.1,0.7c3.2,1.7,5.5,1.2,2.9-0.6c-1.1-0.7-0.7-0.8,1.3-0.4c2.7,0.7,4-1,1.5-1.9
	c-0.7-0.2-0.6-0.3,0.2-0.2c0.8,0.1,2.2,0.6,3.1,0.9c1,0.4,1.9,0.1,2.2-0.9c0.4-1.1-0.5-2.2-3.1-3.6l-3.7-2l4.8,0.6
	c3.1,0.4,5.3,0.2,6.3-0.7c2.6-2.2,1.7-3.1-3-3.1c-2.6,0-4.5-0.5-4.5-1.1c0-0.7-1.1-0.8-3.1-0.4c-2.2,0.5-2.9,0.3-2.4-0.5
	c0.4-0.6,0.3-1.1-0.2-1.1c-1.5,0-0.9-2.5,1-4.4c1-1,1.8-1.5,1.8-1c0,0.4,0.9,1.4,2.1,2.1c1.7,1.1,2.3,1.1,3.6-0.3
	c0.8-0.9,2.4-1.6,3.5-1.6c1.4,0,1.9-0.7,1.9-2.5c0-1.8,0.4-2.4,1.4-2c2.9,1.1,2.9-2,0-4.4l-2.9-2.4h3.2c4,0,10.7-2.8,9.9-4.2
	c-0.8-1.3-6.1-1.3-10.4,0l-3.4,1l2.3-2.5c1.9-2.1,2.1-2.6,0.8-3.2c-0.9-0.3-3.9,0.1-6.9,1c-3.6,1.1-4.9,1.2-4.1,0.4
	c0.7-0.7,1.2-1.6,1.2-2.1c0-1.4-6.2-0.9-10.7,0.9c-4.1,1.6-4.6,1.6-12.3-0.8c-9.2-2.9-10.5-3.6-11.5-7.1c-0.8-2.5-0.7-2.6,1.2-0.7
	c2.4,2.2,7.3,3.3,7.3,1.7c0-0.6-0.7-2.3-1.6-3.9l-1.6-2.8l2,2.3c2.4,2.7,3.2,2.9,3.2,0.7c0-0.9,0.8-1.6,1.8-1.5
	c3.3,0.3,3.7,0,1.7-1.7c-1.9-1.6-1.9-1.6,0-0.9c1.1,0.4,3.5,1,5.3,1.2c2.5,0.4,3.3,0.1,3.3-1.2c0-1.4,0.4-1.5,2.1-0.5
	c2.8,1.5,3.9,0.2,1.5-1.7c-1.4-1.1-1.6-1.5-0.5-1.6c0.8-0.1,1.9-0.2,2.4-0.4c0.6-0.1,1.8-0.3,2.8-0.4c1-0.1,1.8-0.9,1.8-1.7
	c0-1.1-1.1-1.6-3.8-1.7l-3.8-0.1l4.3-0.7c3.6-0.6,10-4.9,9-5.9c-0.2-0.2-2.6,0.3-5.3,1.2c-2.7,0.8-6.1,1.4-7.5,1.4
	c-1.4-0.1-4.5,0.2-7,0.6c-3.3,0.5-3.9,0.4-2.3-0.3c2.4-1.1,3.1-3.1,1-3.1c-0.7,0-2.5,0.9-4,1.9c-2.6,1.8-3.4,1.8-11.3,0.5
	c-12.1-2-25.6-8.2-15.2-7c1.9,0.2,2.8-0.2,2.8-1.2c0-0.8,0.7-1.5,1.5-1.5c0.8,0,1.5,0.5,1.5,1.2c0,0.8,0.5,0.8,1.5-0.1
	c0.8-0.7,2.1-1,2.9-0.7c2.1,0.8,2.7-0.3,1.4-2.7c-1.1-2-1-2,1.7,0.1c4.1,3.3,5.9,3,5.1-0.9l-0.6-3.2l2.9,2.1
	c3.6,2.7,4.8,2.7,5.6,0.1c0.7-2.2,2-2.7,3-1c0.7,1.1,4.5,1.4,4.5,0.3c0-0.4-0.7-1.5-1.7-2.6c-0.9-1-1.2-1.9-0.6-1.9s1.6,0.7,2.3,1.5
	c1.5,1.8,4,2.1,4,0.4c0-0.6,0.9-0.9,2-0.6c1.2,0.3,2,0,2-0.7c0-0.8,1.1-1.1,3.3-0.8l3.3,0.5l-2.2-2.2c-1.2-1.2-2.7-2.2-3.3-2.2
	c-0.6,0-1.1-0.5-1.1-1c0-0.6,1-1,2.1-1c2.6,0,5.9-1.8,5.9-3.3c0-0.6-1.1-0.9-2.5-0.6c-1.4,0.3-2.5,0.1-2.5-0.3
	c0-1.1-6.5-1.8-22.6-2.5c-14.3-0.6-20.2-1.5-19.9-3.3c0.1-0.5,1.5-0.8,3.1-0.6c2.8,0.3,6.2-1.9,6.2-3.8c0-0.4-2.1-0.8-4.6-0.7
	c-2.9,0-4.8-0.4-5.1-1.2c-0.3-0.7-1.7-1.3-3.1-1.3c-3.1,0-9.4-3.2-10-5.1c-0.3-1,0.4-1.1,2.9-0.5c2.3,0.5,3,0.4,2.6-0.4
	c-0.4-0.6-0.3-1.1,0.3-1.1c0.5,0,1.3,1.2,1.6,2.6c0.8,3.2,2.6,3.4,2.6,0.3c0-2.3,0-2.3,1.9,0.3l1.9,2.6l0.9-2.5l0.9-2.5l1.3,3.1
	c1.2,3.1,2.2,3.4,8.4,2.5c0.4-0.1,0.8-1.1,0.8-2.4c0-2.2,0.1-2.1,1.5,0.5c1.5,2.8,4.1,2.9,3,0.1c-0.5-1.3,0.3-1.6,3.4-1.7
	c0.3,0,1.8,0.3,3.4,0.7c2.4,0.6,2.8,0.4,2.3-0.9c-0.4-1.2,0.1-1.6,2-1.6c2.6,0,2.6-0.1,0.8-2.1c-1.8-2-1.7-2.1,0.5-2.1
	c2.5,0,8.1-3.1,8.1-4.4c0-0.5-0.8-0.8-1.8-0.7c-1,0.1-2.2,0.1-2.8-0.1c-0.6-0.1-2.1-0.3-3.5-0.4c-1.8-0.1-2.6-0.8-2.8-2.5
	c-0.3-1.9-0.9-2.3-3.5-2.1c-1.8,0.1-3.8-0.2-4.5-0.6c-0.7-0.5-3.1-0.8-5.2-0.8c-2.1,0-4.2-0.4-4.5-0.9c-0.3-0.5-1.3-1-2.1-1
	c-0.8,0-2.2-0.7-3-1.5c-0.8-0.9-2.4-1.5-3.5-1.5c-1.9,0-1.9-0.2-0.4-2.3c2.5-3.7,2-5.2-1.5-4.7c-3.3,0.5-4-0.7-1.3-2.1
	c2.4-1.3,4.3-0.5,7.5,3.1c2.7,2.9,4.8,3.8,4.8,2c0-0.5,0.9-0.7,2-0.4c1.6,0.4,1.9,0.1,1.3-1.3c-0.6-1.5-0.3-1.7,1.5-1.2
	c1.8,0.5,2.2,0.1,2.2-2c0-2,0.3-2.3,1.7-1.6c2.4,1.4,5.6,0.2,5.1-1.9c-0.3-1.3,0.5-2.1,2.9-3c5-1.9,4.3-3.6-1.1-2.8
	c-3.7,0.5-4.4,0.4-3.9-0.9c0.8-2-2.3-2-4.3,0c-1.8,1.8-6.6,1.9-11.3,0.1c-3.7-1.4-2.7-3.4,1.1-2.1c2.6,0.9,4.3-1.4,2.6-3.6
	c-0.9-1.2-0.6-1.1,1.2,0.2c2.8,2,6.4,0.7,5.5-1.8c-0.6-1.5,0.6-2,3.5-1.6c0.9,0.1,1.2-0.5,0.8-1.7c-0.4-1.4,0.3-2.4,2.7-3.8
	c3.1-1.8,3.1-2,1.3-3.4c-1.3-1-2.3-1.1-2.9-0.4c-0.6,0.6-2.3,1-3.9,1c-2.4,0-2.8-0.4-2.3-2c0.9-2.9-0.7-3.3-4.1-1.1
	c-3.6,2.4-5.7,2.5-14.6,0.3c-4.2-1.1-7.6-2.6-8.6-3.9l-1.8-2.2l2.3,2c2.2,1.9,2.4,1.9,3.6,0.3c0.7-1,2-1.8,2.9-1.8
	c0.9,0,1.6-0.7,1.6-1.5c0-0.8,0.7-1.7,1.5-2c0.8-0.3,2-1.8,2.5-3.3c0.5-1.5,1.4-2.4,2-2c0.6,0.4,1-0.1,1-1.1c0-1.4,0.4-1.2,2,0.7
	c1.9,2.3,2,2.4,2,0.3c0-1.6,0.7-2.1,2.8-2.1c1.7,0,2.7-0.4,2.5-1.2c-0.2-1.2,1.1-1.8,3.2-1.4c0.5,0.1,1.6-0.1,2.4-0.4
	c1.2-0.5,1.2-0.9,0.2-2.1c-1-1.3-0.9-1.5,0.4-1.5c2.4,0,7.6-3,7.6-4.3c0-0.7-1.3-0.9-3.8-0.4c-7.6,1.5-8.3,1.4-7.2-0.6
	c1.3-2.5,1.2-3-0.5-3c-0.8,0-2.8,1.2-4.4,2.6c-3.7,3.2-3.8,3.2-4.4-0.1c-0.3-1.9,0.1-3,1.4-3.8c2.5-1.6,2.4-3.2-0.1-2.5
	c-1.1,0.3-1.7,0.1-1.4-0.4c0.3-0.5-1-0.8-3-0.8c-2,0.1-3.7,0.7-4,1.5c-0.4,1.2-0.8,1.2-1.9,0.1c-2-1.9,1.1-6.2,3.5-4.9
	c2.5,1.4,3.1,1.1,2.6-1c-0.4-1.6,0-1.8,2-1.4c2.1,0.4,2.4,0.2,1.9-1.3c-0.5-1.4-0.2-1.7,1.6-1.6c3.8,0.3,4.1,0,2.3-2
	c-1.7-1.9-1.7-2,0.3-1.4c1.6,0.4,2.1,0.1,2.1-1.5c0-2-3.2-3.8-4.4-2.5c-0.3,0.3-1.9,0.6-3.5,0.7c-2.4,0.1-2.9-0.3-2.4-1.7
	c0.7-2.2-0.5-2.3-4.2-0.3c-1.5,0.8-3.2,1.2-3.7,0.9c-0.5-0.3-1.6,0.1-2.6,0.8c-1.5,1.2-1.5,1.2,0-0.7c2-2.5,2.3-4.5,0.5-4.1
	c-0.7,0.1-3.4,1.3-6.1,2.7l-4.8,2.5l-6.2-3.4c-3.4-1.9-7.8-4.9-9.8-6.7c-3-2.7-3.4-3.8-2.9-5.9c0.6-2.2,0.7-2.3,0.8-0.4
	c0.2,3.5,5.5,7.2,9.5,6.7c1-0.1,2.3,0.4,2.8,1.1c0.7,1.1,1,1.1,1.7,0c0.6-1,1.3-0.7,2.5,1.3c2,3.2,4.1,3.5,3.3,0.5
	c-0.5-2.1-0.5-2.1,1.3-0.4c1.9,1.8,5,1.5,5-0.5c0-0.6-1-1.6-2.2-2.3c-2.6-1.4-4.8-3.5-4.8-4.6c0-0.4,0.9,0.1,2.1,1.2
	c1.2,1.1,2.6,2,3.3,2.1c2.4,0.3,5.7,1.7,5.7,2.5c0,0.5,0.6,0.6,1.4,0.3c0.8-0.3,1.2-1.2,1-1.9c-0.3-0.7,0.2-1.6,1.1-2
	c2.1-0.8,1-2.5-2.4-4c-2.1-0.9-2.3-1.2-0.9-1.6c1-0.2,2.7,0.7,4,2.2c2.8,3.2,7.1,4,7.6,1.5c0.2-1.1-0.8-2.4-2.5-3.4l-2.8-1.6l4,0.6
	c5.9,0.9,14-2.9,10.7-5c-0.4-0.3-3.1-0.7-6-0.8c-3.3-0.2-4.8-0.7-4.2-1.3c1.6-1.6,1.1-3.6-1-3.6c-1.1,0-2.5,0.6-3.3,1.3
	c-2.6,2.6-8.4,5.7-11.9,6.3l-3.5,0.7l2.8-1.6c1.5-0.9,2.8-2,2.8-2.5c0-2.2-3.2-1.7-7.6,1.1c-4.4,2.9-5.4,3.1-12.1,2.7
	c-4-0.2-7.6-0.7-8-1.1c-0.4-0.4-0.2-2,0.5-3.6l1.3-2.8l1.3,2.5c0.9,1.8,1.4,2.1,1.8,1c0.4-1,0.6-1,0.6-0.2c0,0.7,1,1.3,2.1,1.3
	c1.7,0,1.9-0.5,1.4-2.8c-0.3-1.6-0.2-2.4,0.3-1.7c1.3,1.7,3.9,2.4,5.4,1.5c1.1-0.7,0.8-1.3-1.1-3l-2.5-2.1l2.3,0
	c1.2,0,2.3,0.4,2.3,1c0,0.6,0.9,1,2,1c1.1,0,2-0.4,2-0.9c0-1.4,3.6-2,5.5-0.9c1.1,0.7,2.2,0.6,3.1-0.3c2.6-2.2,1.6-3.9-2.7-4.6
	l-4.2-0.7l2.3-1.8c1.8-1.4,2-2,0.9-2.4c-1-0.4-0.9-0.6,0.3-0.6c1,0,1.8-0.6,1.8-1.2s0.4-0.8,0.9-0.5c1.5,1,4-0.5,3.4-2
	c-0.3-0.8-1.7-1.6-3.2-1.7l-2.7-0.3l2.9-1.6c2.9-1.7,4.2-5.6,2.2-6.4c-0.6-0.2-3.8,1.4-7,3.6c-6.7,4.5-7.4,4.7-8.2,2.4
	c-0.4-1.1-1.3-1.4-2.7-1.1c-1.6,0.4-1.3-0.1,1.1-2.1c1.8-1.4,3.3-3.5,3.3-4.6c0-2.3-0.6-2.4-4-0.4c-3.4,2-3.6,1.9-3.4-1.3
	c0.2-3.9,0.3-4,1.6-2.5c1.8,1.9,4.5,1.5,5.1-0.7c0.3-1.3-0.1-2.1-1.4-2.5c-2.6-0.7-2.4-1.6,1.5-6.3c3.3-3.9,3.7-6.8,1-6.8
	c-0.7,0-1.9,0.6-2.6,1.3c-1.9,2-4.8,3-4.3,1.5c0.2-0.7,0-1.9-0.5-2.7c-1.6-2.6-4.1,0.6-4.1,5.2c0,2.2-0.4,4-1,4c-0.6,0-1,0.7-1,1.5
	c0,0.8-0.5,1.8-1,2.2c-0.7,0.4-1-1.3-0.8-5.1c0.2-5.1,0.7-6.3,4-10.2c2.1-2.4,3.8-5.4,3.9-6.7c0-3.1-0.6-3-4.8,1.6l-3.7,3.9
	l-0.1-6.8c-0.1-3.7-0.2-7.9-0.3-9.3l-0.1-2.5l0,0L162,6.2c-1.7,1.8-2,3.4-1.8,7.4c0.4,5.6-1.4,7.1-3.1,2.6c-1-2.8-6.1-4.4-6.1-2
	c0,0.8,2.1,3.9,4.5,6.9c3.7,4.4,4.6,6.4,5,10.5c0.4,4.4,0.3,4.8-0.8,3.3c-0.8-1-1.7-1.5-2-1.1c-0.4,0.4-0.7-0.1-0.7-1
	c0-2.5-4-9.1-5.1-8.4c-0.5,0.3-0.7,1.6-0.3,2.8c0.4,1.4,0.3,1.8-0.3,1c-0.9-1.3-7.4-4.4-9.3-4.4c-1.9,0-1.1,1.5,2,3.6
	c1.7,1.1,3,2.4,3,2.9c0,0.5-0.4,0.6-0.9,0.3c-0.5-0.3-1.4,0.1-2.1,1c-0.7,0.8-1.9,1.5-2.7,1.5c-0.8,0-1.3,0.6-1,1.3
	c0.4,1.3,5,1.5,10,0.5c3-0.6,4.8,0.8,2,1.6c-1,0.3-2,0.4-2.4,0.4c-0.9-0.1-5.9,4.7-5.9,5.6c0,1.2,4,1.8,4.7,0.7
	c0.4-0.6,1.4-0.1,2.4,1.3c1.9,2.7,4.4,1.9,3.5-1.1c-0.5-1.6-0.2-1.8,2.2-1.1c2.3,0.6,2.8,1.4,3.1,4.6c0.2,2.1-0.1,3.8-0.6,3.8
	c-0.5,0-0.8,2.6-0.7,5.7c0.1,3.1-0.1,5.9-0.5,6.1c-1.4,0.9-10.6-7.3-11.1-9.8c-0.7-3.4-3.9-9.2-5-9.2c-0.5,0-1.5,0.8-2.1,1.9
	c-1.1,1.8-1.4,1.6-4.4-1.8c-2.6-2.9-3.6-3.4-4.5-2.5c-1,1-0.7,2,1.3,4.6l2.5,3.4h-3.5c-4.3,0-5.1,1.7-1.8,3.6c1.4,0.8,2.3,1.7,2,2.1
	c-0.3,0.4,0.2,1,1,1.4c2.1,0.8,1.8,2.7-0.4,2.7c-3,0-5.1,1.1-5.1,2.7c0,0.8,0.9,1.5,2,1.5s2,0.5,2,1.1c0,0.6,0.4,0.8,0.9,0.5
	c0.5-0.3,1.2,0.4,1.6,1.5c0.6,2,0.8,2.1,3,0.5c2.2-1.5,2.5-1.5,3.4,0.4c1.5,2.9,1.5,2.8-3.5,3.4c-2.5,0.3-4.9,0.8-5.2,1.2
	c-0.9,0.9,2.9,3.7,5.1,3.7c1.5,0,1.7,0.3,0.7,1.5c-1,1.2-0.8,1.6,1.4,2.2c1.4,0.4,2.6,1.1,2.6,1.6c0,1.1-3.9,0.1-5.5-1.3
	C134,78,129,78.4,129,80c0,0.8,0.6,1.7,1.3,1.9c1.9,0.7-3.2,3.1-6.7,3.2c-1.7,0.1-3,0.6-2.9,1.3c0.1,0.6-1.1,1.8-2.8,2.5
	c-1.6,0.7-3,1.6-3,2c0,1,4.1,3.1,6.8,3.5c1.2,0.2,2.5,0.7,2.9,1.1c0.4,0.4,1.6-0.3,2.6-1.6c1-1.3,1.6-1.8,1.2-1.1
	c-0.4,0.7-0.1,1.3,0.4,1.3c0.6,0,1,0.9,1,2c0,1.1,0.4,2.3,0.9,2.6c1.2,0.8,7.1-4.4,7.1-6.2c0-0.8,0.5-1.5,1-1.5c0.6,0,1,0.5,1,1.1
	c0,0.6,0.4,0.8,1,0.5c1.3-0.8,1.3,0.1,0,2.6c-0.9,1.7-0.7,2,1.3,2c2.6,0,5.2-2.5,6-5.7c0.4-1.6,0.5-1.5,0.6,0.6
	c0.1,1.5,0.7,3.2,1.5,3.9c1.1,1,1.9,0.6,3.6-1.9c1.2-1.7,2.1-3.7,2-4.4c-0.4-2.8,0.1-5,1-4.5c1.4,0.9-0.7,9.1-2.9,11.4
	c-1.5,1.5-3,2-6.5,1.7c-3.5-0.2-4.5,0.1-4.5,1.3c0,0.9,0.8,2,1.7,2.5c1.4,0.8,1,1.2-2.4,2.2c-3.6,1.1-4.5,1-8.1-0.9
	c-2.3-1.2-4.4-2.6-4.7-3.2c-1.1-1.8-2.8-1.1-2.3,1c0.4,1.7,0.2,1.9-1.9,1c-3.3-1.3-3.7-1.2-3,0.6c0.4,1,0,1.5-1,1.5
	c-1,0-1.4,0.6-1,1.5c0.8,2.1-0.2,1.9-5.3-0.6c-4.2-2.1-7.9-2-6.6,0.1c0.4,0.6-1.1,1.1-3.9,1.1c-5,0-6.5,1.3-4.3,3.5
	c0.9,0.9,2.9,1.3,5.3,1.1c3.8-0.4,3.8-0.3,1.4,1.1c-1.4,0.8-2,1.5-1.3,1.5c0.7,0,2.5,0.5,4,1.1c2.7,1.1,2.8,1.2,0.9,2.6
	c-1.9,1.4-1.8,1.5,0.7,1.5c1.5,0,2.9-0.5,3.3-1.1c0.3-0.6,1-0.8,1.4-0.5c0.5,0.3,1.1-0.2,1.4-1c0.3-0.8,1.4-1.5,2.4-1.5
	c1.4,0,1,0.7-1.5,2.8c-1.8,1.5-3.3,3.1-3.3,3.5c0,1.7,5.7,0.2,7.3-2c2.4-3.1,4.8-2.1,4,1.8c-0.5,2.6-0.3,3,1.7,3
	c1.2,0,3.3-1.3,4.6-2.8c2.1-2.5,2.3-2.6,1.8-0.6c-0.5,1.8-0.2,2.2,1.5,2.1c1.2-0.1,2.3-0.9,2.6-1.7c0.3-0.9,1.6-1.7,3-1.7
	c2.2-0.1,2.4,0.1,1.5,1.9c-1.5,2.9-6.4,5.7-13.8,8c-7,2.2-7.8,2-14-3.4c-3.2-2.7-5.9-3.1-3.3-0.5c1.7,1.8,1.4,3.2-0.5,2.4
	c-1.4-0.5-1.4-0.4-0.4,0.9c2,2.5-0.5,2-4.7-1c-3.9-2.7-5.4-2.7-3.2,0c1.2,1.4,1,1.6-1.1,1.4c-1.3-0.1-3.8-0.1-5.4,0l-3,0.2l2.4,2
	c1.3,1.1,3.2,2,4.1,2c2.4,0,3.2,1.1,1.9,2.7c-0.6,0.8-0.9,1.4-0.7,1.5c3.9,0.8,4.9,0.6,6.4-1.1c1-1.1,2.2-1.7,2.7-1.4
	c0.5,0.3,0.2,1.5-0.8,2.5c-1.6,1.9-1.7,2,0,2c1.5,0,1.6,0.2,0.5,1.5c-1.8,2.2-0.8,2.8,2.5,1.5c2.6-1,2.7-1,2.1,1.6
	c-0.4,1.5-0.3,2.4,0.2,2.1c0.5-0.3,1.5,0.3,2.2,1.4c1.1,1.6,1.8,1.7,3.4,0.8c1.1-0.6,2.3-0.9,2.5-0.7c0.3,0.2,0.8-0.7,1.2-2.1
	c0.7-2.5,0.7-2.5,0.8-0.3c0.1,1.3,0.6,2.3,1.2,2.3c1.5,0,5.3-2.2,6.2-3.5c0.4-0.6,0.7,0.2,0.8,1.8c0,2.9,0,2.9,2.5,1.3
	c1.4-0.9,2.9-1.4,3.4-1.1c0.5,0.3,1.4-0.3,1.9-1.3c1-1.7,1-1.7,1.1,0c0,1.5,0.4,1.6,2,0.8c3-1.7,3.6-1.3,1,0.7
	c-6.8,5.2-17.6,9.5-23.8,9.5c-1.9,0-4.9-0.9-6.8-2.1c-1.9-1.2-3.4-2-3.4-1.8c-0.9,3.9-0.7,4.8,1.3,5.7c1.7,0.8,1.2,1-2.8,0.9
	c-2.9,0-5.9-0.8-7.3-1.8c-3-2.2-5.9-1.4-3.9,1c1.1,1.4,0.9,1.5-1.5,0.9c-1.6-0.4-2.8-0.3-2.8,0.3c0,0.6-1.7,1.3-3.7,1.7l-3.7,0.7
	l2.9,2.5c1.6,1.4,4.3,3.2,6,3.9c1.9,0.9,2.4,1.4,1.3,1.5c-2.7,0.1-2.1,2,0.8,2.7c2.4,0.6,2.4,0.8,1,2.5c-1.5,1.7-1.4,1.9,0.7,2.6
	c1.3,0.4,2.7,0.7,3.3,0.5c4-0.9,9.8-1,8.6-0.2c-0.8,0.5-1.1,1.5-0.7,2.2c0.5,0.9,1.7,0.6,4.1-0.9l3.4-2.1v2.1c0,1.8,0.4,2,2.3,1.4
	c1.2-0.4,3.7-0.7,5.5-0.6c2.1,0.1,3.5-0.4,3.9-1.4c0.3-0.9,1.1-1.5,1.7-1.5c0.7,0,0.7,0.4-0.1,1.2c-0.7,0.7-1.2,2-1.2,2.9
	c0,4.5-16.5,8.6-22.7,5.6c-1.7-0.8-4.1-2.5-5.3-3.6c-2.3-2.2-3.2-0.4-0.9,1.9c1.6,1.6-0.5,1.7-3.3,0.2c-2.8-1.6-2.4,0.1,0.8,2.9
	l2.8,2.4l-2.5-0.7c-1.4-0.4-3.7-0.8-5.1-0.9c-1.4-0.1-3.2-0.6-3.9-1.1c-1-0.6-1.2-0.4-0.7,0.9c0.5,1.4,0.2,1.6-1.8,1.1
	c-2.5-0.7-3.6,1-1.3,2c0.7,0.3,0.1,0.3-1.3,0c-1.6-0.3-3.1,0.1-3.9,1.1c-0.9,1.1-0.9,1.6-0.2,1.6c0.6,0,1,0.6,0.8,1.3
	c-0.2,0.8,1,1.2,3.3,1.1c2-0.1,2.5,0.1,1.3,0.4c-3.2,0.7-2.8,2.4,0.7,2.4c3,0,5.7,2.3,4.7,4c-1.1,1.8,1,2.1,6.5,1.2l5.4-0.9
	l-3.2,2.7c-3.9,3.3-4,4.3-0.7,4.3c1.4,0,2.5,0.5,2.5,1.1c0,0.6,0.9,0.9,2,0.6c1.1-0.3,2-0.1,2,0.4c0,1.1,3,0.1,5.2-1.9
	c1.5-1.3,1.6-1.3,1.1,0.7c-0.4,1.7-0.1,2.2,1.8,2.2c2.1,0.1,1.9,0.3-1.2,1.8c-4.4,2.1-25.3,2.4-28.8,0.4c-1.9-1.1-2.1-1.1-1.6,0.4
	c0.3,0.9,1.6,2,2.7,2.5c1.7,0.7,1.8,0.9,0.3,1c-1,0-1.8,0.5-1.8,1.1c0,1.1,2,1.5,5.5,1.2c1.7-0.1,1.5,0.2-1,2.3
	c-3.6,3-2.7,4.6,1.6,3c1.7-0.7,3.7-0.9,4.5-0.6c1.2,0.5,1.1,1-0.7,3c-3.2,3.5-8.1,3.3-21.2-1.1c-5.3-1.7-6-1-2.4,2.6
	c2.2,2.2,2.3,2.5,0.8,3.8c-1.2,1-1.3,1.6-0.4,1.9c0.7,0.3,0.9,1.2,0.6,2c-0.4,1,0.1,1.5,1.5,1.5c1.5,0,1.9,0.4,1.4,1.7
	c-0.5,1.4-0.3,1.6,1.3,0.9c4.3-1.8,5-1.8,3.2-0.3c-2.5,2.1-2.2,2.5,2.3,3.3c3.2,0.6,4.5,0.3,6.1-1.2c1.4-1.3,2.2-1.5,2.7-0.7
	c0.4,0.6,1.4,1.1,2.2,1.1c8-0.5,5.3,2.4-5,5.4c-7.7,2.2-8.1,2.3-12.9,0.7c-6.3-2.1-6.5-2.1-5.8,0.4c0.6,2.5-0.6,2.6-6.9,0.4
	c-5.8-2-8.1-1.4-6.3,1.6c0.7,1.1,1.8,2.1,2.4,2.1c0.6,0,2.1,1.2,3.4,2.6c1.5,1.6,3.5,2.6,5.5,2.6l3.1,0l-3.5,1.7l-3.5,1.7l4.8,0.4
	l4.8,0.3l-2.3,2l-2.3,2l2.5,0c1.4,0,3.5-0.7,4.8-1.6c1.5-1.1,2.2-1.2,2.2-0.4c0,0.7,0.7,0.9,1.5,0.6c0.8-0.3,1.5-0.1,1.5,0.4
	c0,0.6,1.1,1,2.5,1c1.7,0,2.3,0.5,2,1.4c-0.6,1.7-11.2,4-17.7,3.8c-2.6-0.1-4.8,0.4-4.8,0.9c0,0.6,0.4,1,1,1c0.6,0,1,0.4,1,0.9
	c0,1-13.8,0.8-19.3-0.4c-6-1.2-4.3,0.8,2.5,3.1c4.4,1.4,5.6,2.2,3.9,2.4c-1.7,0.3-2.1,0.8-1.7,2.2c0.4,1.4-0.1,2-2.2,2.6
	c-2.4,0.6-2.6,0.9-1,1.7c1,0.6,2.2,0.7,2.8,0.4c0.5-0.3,1-0.2,1,0.3c0,0.5,2.9,1.6,6.5,2.3c4,0.9,6.5,1.9,6.5,2.7
	c0,1,0.7,1.1,2.6,0.3c3.6-1.4,4.1-1.3,1.9,0.5c-1.9,1.4-1.8,1.5,1.1,2.8c1.6,0.7,3.3,1.8,3.7,2.3c0.4,0.6,1.7,0.2,3.3-0.8
	c2.2-1.5,2.6-1.5,2.6-0.2c0,2.2,1,2,4.4-1.3c2-1.9,2.4-2.1,1.2-0.5c-1.7,2.1-1.5,2.8,0.8,2.4c0.5-0.1,3.2-0.2,6-0.2
	c2.8,0,6.4-0.6,8.1-1.4c5-2.2,6.5-2.6,6.5-1.5c0,0.6,0.9,0.8,2,0.4c2.5-0.8,2.6,0.7,0.2,2.8c-2.3,2-21.4,8.7-27.2,9.4
	c-2.7,0.3-6.2-0.1-8.9-1c-5-1.7-6.3-1.2-4.4,1.8c1.2,2,1.1,2-9,1.3c-8.5-0.6-10.1-0.5-9.7,0.7c0.3,0.8,1.8,1.7,3.4,2.1
	c2.5,0.6,2.2,0.7-1.6,0.8c-2.5,0.1-5.2,0.6-6,1.2c-3.8,2.6,5.1,4.1,12,2.1c5.4-1.6,4.7-0.5-1.1,1.6c-8.5,3.2-6.9,6.2,1.9,3.5
	c2.5-0.7,3.4-0.6,3.8,0.4c0.4,1,1.7,1.2,4.3,0.9c2.6-0.4,4.2,0,5.3,1.1c0.9,0.9,1.9,1.3,2.2,1c0.3-0.3,0.6-0.2,0.6,0.4
	c0,0.6-0.9,1.9-2,2.9c-1.1,1-2,2.5-2,3.4c0,1.2,0.5,1.2,2.8-0.3c1.5-1,3.1-2.4,3.6-3.2c1.1-1.9,2.7-1.8,2.7,0.2
	c0,1.9,4.1,2.1,5.9,0.3c1-1,1.1-0.5,0.5,2.2c-0.7,3.6-0.3,3.7,3.6,0.6c0.8-0.7,2.7-1.7,4.2-2.4c2.7-1.2,2.7-1.1,2.1,2.1l-0.6,3.3
	l3.1-3c2.6-2.5,3.1-2.7,3.1-1.2c0,1.5,0.3,1.6,1.5,0.6c0.8-0.7,1.5-0.9,1.5-0.5c0,0.5,0.9-0.2,2.1-1.4c2.5-2.8,3.3-2.9,1.9-0.2
	c-1.1,2.2-16.4,10.2-25.8,13.5c-8.3,2.9-12.6,2.6-20.1-1.6c-7.4-4.2-10.4-3.7-5.2,0.8c3.1,2.8,3.2,3,0.9,2.4c-7.4-2-13-3-13.7-2.3
	c-1.2,1.3,2.7,3.4,8.8,4.8c3.3,0.7,6.1,1.7,6.4,2.2c0.3,0.5-2.7,1.2-6.5,1.5c-3.9,0.4-7,1.1-7,1.6c0,0.9,2.7,1.3,6.9,0.9
	c1.5-0.1,2.1,0.2,1.7,0.9c-0.4,0.6-1.4,1.1-2.4,1.1c-1,0-2.6,0.7-3.7,1.6c-1.8,1.5-1.5,1.6,4.5,1c5.3-0.5,6.1-0.3,4.3,0.6
	c-3.1,1.7-2.8,2.7,1,3.2l3.3,0.4l-3.3,0.8c-4.9,1.2-3.3,3.2,2.4,2.9c4.3-0.2,4.6-0.1,2.6,0.9c-3.6,1.9-2.6,3.2,2.3,2.8
	c3.8-0.3,4.3-0.2,2.9,0.9c-2.5,1.9-0.8,3,2.6,1.6c3.9-1.5,3.1,1-0.8,2.7c-3.2,1.3-18.4,4.2-22.7,4.3c-2.9,0-2.9,0.1-1,1.5
	c1.1,0.8,3.8,1.5,6,1.6c3.7,0.1,3.8,0.2,1.8,1.2c-2.4,1.2-3,2.9-1,2.8c0.7,0,3.2-1.2,5.6-2.6c5.5-3.2,7.6-3.2,3.7,0l-2.9,2.5
	l2.7,0.7c2.6,0.7,2.7,0.8,1,2.7c-3.6,4.1,1.7,3.3,7-1.1c1.1-0.9,1.6-1,1.2-0.3c-0.4,0.7,0,2,0.8,2.9c1.8,1.8,2.2,1.6,8.4-4.2
	c2.8-2.6,3.2-2.7,2.2-0.8c-0.6,1.3-0.9,2.3-0.5,2.3c0.4,0,0.1,0.7-0.6,1.5c-1,1.2-0.9,1.8,0.3,3.1c2,2,2.7,2,4.3-0.2
	c1.2-1.7,1.4-1.6,2.2,0.7l0.9,2.5l1.6-2.4c1.4-2.1,1.8-2.2,3.3-1c1.4,1.2,1.9,1.1,3.1-0.5c0.8-1.1,1.4-2.4,1.4-2.9
	c0-0.5,0.6-0.7,1.4-0.4c0.8,0.3,2,0,2.7-0.7c1.1-1,1-0.8,0,0.6c-2,2.7-0.8,3,3.3,0.9c3.7-2,4.7-1.6,2.4,0.8c-1,1-0.9,1.5,0,1.8
	c0.7,0.2,0.9,1.2,0.6,2.1c-0.5,1.3-0.2,1.5,1.3,0.9c2.9-1.2,8.4-1.6,8.4-0.5c0,1.1,3.2,0,4.4-1.5c0.5-0.6,0.6-0.1,0.3,1.2
	c-0.6,2.9,0.7,3,3.3,0.3c1.3-1.3,2.1-1.6,2.4-0.8c0.3,0.9,0.8,0.9,1.8,0.1c0.8-0.6,2.5-1,3.8-0.9c1.8,0.1,2.7-0.7,3.8-3.3
	c1.4-3.3,3.2-5.1,2-1.9c-1,2.8,1.2,1.6,3-1.6c1-1.7,2.2-2.9,2.8-2.7 M170.9,40.1c0.2,0,0.2,0.1,0.2,0.3c0,0.8-0.7,2.2-1.5,3.1
	c-0.8,0.9-1.6,2.6-1.8,3.7c-0.5,2.4-1.7,5.6-2.3,5.6c-0.2,0-0.4-1.6-0.4-3.5c0-2.3,0.9-4.5,3-6.9C169.4,41,170.5,40.1,170.9,40.1
	L170.9,40.1z M173.4,55.2c0.3,0,0.5,0,0.6,0.1c0.7,0.6-2,4.6-3.2,4.6c-0.7,0-2,1-3,2.2c-2.3,2.7-3,2.1-1.7-1.5
	C166.8,58.7,171.5,55.4,173.4,55.2L173.4,55.2z M146,63.7c0.7,0,1.1,0.4,1.1,1.1c0,0.8,0.7,1.5,1.5,1.5c0.8,0,1.5,0.7,1.5,1.6
	c0,1.3,0.9,1.5,3.8,1.3c3.3-0.3,3.8,0,4.1,2c0.2,1.3-0.2,2.3-0.8,2.3c-0.6,0-1.1-0.4-1.1-0.8c0-0.4-0.8-0.9-1.9-0.9
	c-1-0.1-4-1.8-6.5-3.7c-3.9-3-4.3-3.7-2.6-4.1C145.4,63.7,145.7,63.7,146,63.7L146,63.7z M157.6,78.4l-2.4,2.2
	c-1.3,1.2-3,1.9-3.8,1.6c-0.8-0.3-1.8-0.5-2.4-0.5c-0.5,0-0.9-0.5-0.9-1.1c0-0.6,1-0.8,2.4-0.4c1.3,0.3,3.5,0.1,4.8-0.5L157.6,78.4
	L157.6,78.4z M146.6,81c0.4-0.1,0.5,0.4,0.5,1.6c0,2.5-0.9,2.8-3.4,0.8c-1.3-1-1.5-1.6-0.7-2.1c0.6-0.4,1.1-0.2,1.1,0.5
	c0,0.9,0.4,0.9,1.5-0.1C146,81.3,146.4,81,146.6,81L146.6,81z M131.5,84.8c0.9,0,1.5,0.5,1.5,1c0,1.3-1.7,1.3-2.5,0
	C130.2,85.2,130.6,84.8,131.5,84.8L131.5,84.8z M155.1,101.3c1.1,0,1.4,8.5,0.3,9.6c-1.2,1.2-1.3,0.8-1.3-4.5
	C154.1,103.6,154.5,101.3,155.1,101.3L155.1,101.3z M162.7,115c0.1,0,0.2,0.1,0.4,0.2c1.3,0.8,1.3,1.5,0,1.5c-0.6,0-1-0.5-1-1.1
	C162.1,115.2,162.4,115,162.7,115L162.7,115z M154.7,117.2c0.2,0,0.3,0.8,0.3,2.1c0,1.7-0.2,2.3-0.5,1.3c-0.3-1-0.2-2.4,0-3.1
	C154.5,117.3,154.6,117.2,154.7,117.2L154.7,117.2z M167.1,117.8c0.6,0,1,0.5,1,1.1c0,0.6-0.5,0.8-1,0.5c-0.6-0.3-1-0.8-1-1.1
	C166.1,118,166.6,117.8,167.1,117.8L167.1,117.8z M172.1,119.8c0.6,0,1,0.5,1,1.1c0,0.6-0.5,0.8-1,0.5c-0.6-0.4-1-0.8-1-1.1
	C171.1,120,171.6,119.8,172.1,119.8L172.1,119.8z M193,119.9c0.7-0.1,1.2,0.3,1.2,1.1c0,0.6-0.5,2-1.1,3.2c-1,1.8-1.8,2-6.8,1.5
	c-3.1-0.3-6.9-1-8.5-1.6c-1.5-0.6-2.8-1.6-2.8-2.2c0-1.4,1.7-1.3,2.5,0c0.3,0.6,1.3,1,2.1,1c0.8,0,1.3-0.4,0.9-1c-1.2-2,1.2-2,2.8,0
	c1.9,2.2,5.2,1.9,7.3-0.7C191.5,120.4,192.3,119.9,193,119.9L193,119.9z M101,174.5c0.6,0,0.8,0.5,0.4,1c-0.8,1.3-1.5,1.3-1.5,0
	C100,175,100.4,174.5,101,174.5L101,174.5z M184.8,186.9c1.5,0,8.4,3,8.4,3.6c0,1-2.1,0.5-5.7-1.5
	C185.4,187.8,184.2,186.9,184.8,186.9L184.8,186.9z M102,231.9c0,0.2-1.9,0.4-4.3,0.3c-3-0.1-3.7-0.3-2.3-0.8
	c0.7-0.3,1.8-0.4,2.9-0.4C100.1,231,102,231.4,102,231.9z M75.8,236.6c0.3,0,0.6,0.1,0.8,0.3c0.3,0.3-0.3,0.6-1.3,0.5
	c-1.2-0.1-1.4-0.3-0.6-0.6C75.1,236.6,75.5,236.6,75.8,236.6L75.8,236.6z M75.6,262.3c0.3,0.1,0,0.5-0.7,1c-0.8,0.6-2,1-2.5,1
	c-0.6,0-0.3-0.4,0.5-1c0.8-0.6,2-1,2.5-1C75.5,262.3,75.5,262.3,75.6,262.3L75.6,262.3z M250.2,304c0.2,0,0.4,0.1,0.6,0.2
	c1.7,0.7,2,1.5,0.6,1.5c-0.5,0-1.2-0.5-1.5-1C249.6,304.1,249.7,303.9,250.2,304L250.2,304z M234,312.9l2.2,2.4
	c2.1,2.3,2.1,2.5,0.4,3.1c-1,0.4-2,0.3-2.1-0.3c-0.2-0.6-1.4-0.4-3,0.5c-3.1,1.7-4.6,1.9-3.8,0.6c0.3-0.5-1.4-0.7-3.7-0.5
	c-2.7,0.3-5.3-0.1-7.3-1.1l-3-1.6h2.8c1.5,0,2.8,0.5,2.8,1c0,1.9,1.9,1,2.6-1.2c0.5-1.6,0.9-1.8,1.4-0.9c0.6,1,1,0.9,1.8-0.5
	c0.9-1.7,1.1-1.6,2.7,0.8l1.7,2.7l2.3-2.5L234,312.9L234,312.9z M210.7,314c0.6,0,1.3,0.3,1.8,0.7c0.7,0.8,0.4,0.9-1.3,0.5
	c-1.4-0.4-1.8-0.8-1.1-1.1C210.3,314,210.5,314,210.7,314L210.7,314z M220.9,356.5c0.1,0,0.2,0.1,0.4,0.2c1.3,0.8,1.3,1.5,0,1.5
	c-0.6,0-1-0.5-1-1.1C220.3,356.7,220.5,356.5,220.9,356.5L220.9,356.5z"/>
</svg>
