<?xml version="1.0" encoding="utf-8"?>
<!-- Generator: Adobe Illustrator 23.0.1, SVG Export Plug-In . SVG Version: 6.00 Build 0)  -->
<svg version="1.1" id="Layer_1" xmlns="http://www.w3.org/2000/svg" xmlns:xlink="http://www.w3.org/1999/xlink" x="0px" y="0px"
	 viewBox="0 0 172 419.5" style="enable-background:new 0 0 172 419.5;" xml:space="preserve">
<style type="text/css">
	.st0{fill:#569E3F;}
	.st1{fill:#663C12;}
	.st2{fill:#1B5729;}
</style>
<g>
	<path class="st0" d="M170.6,237.2c0-0.7-0.5-1.6-1-2.1c-0.7-0.6-0.7-0.9-0.1-0.9c0.5,0,1.1,0.5,1.4,1.1c0.2,0.4,0.5,0.6,1.1,0.8
		v-17.8c-4.5-1.2-9.6-3.4-13.3-5.9c-2.1-1.4-1.7-1.7,0.8-0.5c1.3,0.6,1.6,0.5,1.6-0.6c0.1-1.3,0.1-1.3,0.9,0
		c0.5,0.7,1.2,1.1,1.6,0.9c0.4-0.3,1.7,0.1,2.8,0.8c2.1,1.2,2.1,1.2,2.1-0.9c0-1.2,0.3-1.8,0.6-1.3c0.4,0.6,1.7,1.4,2.9,2v-12.9
		c-0.2,0-0.3-0.1-0.5-0.1c-6.1-1.6-10.1-3.7-11.3-5.8c-0.7-1.3-0.6-1.5,1.2-1.4c1.1,0.1,2.2,0.7,2.4,1.3c0.2,0.7,1.2,1.2,2.1,1.3
		c1.4,0.1,1.7-0.2,1.3-1.5c-0.4-1.5-0.2-1.4,1.5,0.4c0.9,1,2.3,1.8,3.3,2v-17.9c-0.2,0.1-0.5,0.3-0.7,0.6c-0.3,0.4-2.1,1.4-3.9,2.3
		c-2.9,1.4-3.7,1.5-6.6,0.7c-2.7-0.7-3-1-1.9-1.6c0.8-0.4,1.4-1.3,1.4-1.9c0-0.9-0.8-1.1-3.7-0.9c-2.8,0.1-4.1-0.2-5.3-1.3
		c-1.8-1.7-3.5-7.7-2.4-8.3c0.7-0.4,1.1,1.2,0.8,3.3c-0.1,0.5,0.6,2,1.6,3.2c1.4,1.8,2,2.1,2.9,1.4c0.6-0.4,1.1-1.7,1.2-2.8
		c0.1-1.6,0.2-1.7,0.5-0.5c0.6,2.3,2.8,4.1,4.9,4.1c1.7,0,1.8-0.3,1.1-1.5c-1-1.8-1.1-2.5,0-1.9c0.4,0.3,0.8,0.1,0.8-0.3
		c0-0.4,0.3-0.8,0.8-0.8c0.4,0,0.8,0.5,0.8,1.1c0,1.3,4.8,5.1,5.8,4.5c0.4-0.3,0.8-1.1,0.8-1.9c0-0.8,0.3-1.5,0.8-1.5
		c0.1,0,0.2,0,0.3-0.1v-7.2c-1.4-0.5-2.1-1.2-1.3-1.4c0.5-0.2,1-0.8,1-1.4c0-1.2-4.1-1.5-5.4-0.4c-1.2,1.1-4.4,1.8-4.4,1
		c0-0.4,0.9-0.9,2.1-1.2c1.7-0.4,1.9-0.7,1.1-1.6c-0.8-0.9-0.6-1.1,0.6-1.1c1.9,0,4.9-2,4.2-2.7c-0.2-0.2-2.2-0.6-4.2-0.8
		c-4.1-0.4-4.1-0.4-2.9-2.5c0.8-1.4,1-1.4,2.8-0.3c1.8,1.1,2,1.1,2.5-0.4c0.3-0.8,0.9-1.3,1.3-1.1c0.5,0.2,0.8,0,0.8-0.4
		c0-0.4,0.7-0.8,1.6-0.8c0.1,0,0.1,0,0.2,0v-2.5c-0.7-0.3-1.7-0.5-2.8-0.5c-1.9,0-2.1-1.4-0.4-2c0.6-0.3,1-0.7,0.8-1
		c-0.2-0.4,0.6-1,1.7-1.6c0.3-0.1,0.5-0.2,0.7-0.4v-2c-0.5-0.1-1.2-0.2-2.1-0.2H167l2.1-2.5c1.6-2,1.8-2.7,1-3.4
		c-0.8-0.7-1.6-0.3-3.7,1.8c-2.5,2.5-2.7,2.6-3.6,1.3c-0.5-0.8-1.3-1.4-1.7-1.4c-1,0-3.5,4.2-4.1,6.7c-0.4,1.8-8,7.7-9.1,7.1
		c-0.3-0.2-0.5-2.2-0.4-4.5c0.1-2.2-0.1-4.1-0.5-4.1c-0.4,0-0.6-1.3-0.5-2.8c0.2-2.3,0.6-2.8,2.5-3.3c2-0.5,2.2-0.4,1.8,0.8
		c-0.8,2.2,1.2,2.7,2.8,0.8c0.8-1,1.6-1.4,1.9-0.9c0.5,0.8,3.8,0.4,3.8-0.5c0-0.7-4.1-4.2-4.8-4.1c-0.3,0-1.2-0.1-2-0.3
		c-2.3-0.6-0.8-1.7,1.6-1.2c4.1,0.8,7.8,0.7,8.2-0.3c0.2-0.5-0.1-0.9-0.8-0.9s-1.6-0.5-2.2-1.1c-0.5-0.6-1.3-0.9-1.7-0.7
		c-0.4,0.2-0.7,0.1-0.7-0.2s1.2-1.3,2.5-2.1c2.5-1.5,3.1-2.6,1.6-2.6s-6.9,2.3-7.6,3.2c-0.4,0.6-0.5,0.3-0.2-0.7
		c0.3-0.9,0.1-1.9-0.3-2.1c-0.9-0.5-4.2,4.3-4.2,6.1c0,0.6-0.2,1-0.5,0.7c-0.3-0.3-1.1,0.1-1.7,0.8c-1,1.1-1.1,0.8-0.7-2.4
		c0.3-2.9,1.1-4.4,4.1-7.6c2-2.1,3.7-4.4,3.7-5c0-1.8-4.2-0.7-5,1.4c-1.3,3.3-2.8,2.2-2.5-1.9c0.3-2.9,0-4.1-1.4-5.4l-1.7-1.7
		l-0.1,1.8c0,1-0.1,4.1-0.2,6.8l-0.1,4.9l-3-2.9c-3.5-3.4-3.9-3.5-3.9-1.2c0,1,1.4,3.2,3.1,4.9c2.8,2.8,3.1,3.7,3.3,7.4
		c0.1,2.8-0.1,4-0.7,3.7c-0.4-0.3-0.8-1-0.8-1.6c0-0.6-0.4-1.1-0.8-1.1c-0.4,0-0.8-1.3-0.8-2.9c0-3.3-2-5.7-3.3-3.8
		c-0.4,0.6-0.6,1.5-0.4,2c0.4,1.1-1.9,0.3-3.5-1.1c-0.5-0.6-1.5-1-2.1-1c-2.3,0-1.9,2.2,0.8,5c3.3,3.4,3.4,4.1,1.3,4.6
		c-1,0.2-1.4,0.8-1.1,1.8c0.4,1.6,2.6,1.9,4.1,0.5c1.1-1,1.1-0.9,1.3,1.9c0.1,2.3,0,2.4-2.8,0.9c-2.8-1.5-7.3-4.2-7.3-2.5
		c0,0.8,5.2,5,6.7,6.1c2,1.4,2.2,1.8,0.9,1.5c-1.1-0.2-1.9,0-2.2,0.8c-0.7,1.7-1.3,1.6-6.7-1.7c-2.6-1.6-5.2-2.8-5.7-2.6
		c-1.7,0.6-0.6,3.5,1.8,4.7l2.4,1.2l-2.2,0.2c-1.2,0.2-2.4,0.7-2.6,1.3c-0.5,1.1,1.6,2.2,2.8,1.5c0.4-0.2,0.8,0,0.8,0.4
		c0,0.4,0.6,0.8,1.4,0.8c1.1,0.1,1.1,0.2,0.3,0.5c-0.9,0.3-0.7,0.7,0.7,1.7l1.9,1.3l-3.4,0.5c-3.5,0.6-4.3,1.8-2.2,3.4
		c0.8,0.6,1.7,0.7,2.6,0.2c1.5-0.8,4.4-0.3,4.4,0.7c0,0.4,0.7,0.7,1.6,0.7c0.9,0,1.6-0.4,1.6-0.8c0-0.4,0.8-0.7,1.8-0.7h1.8l-2,1.5
		c-1.6,1.2-1.8,1.7-0.9,2.2c1.2,0.7,3.4,0.1,4.4-1.1c0.4-0.4,0.5,0.1,0.2,1.3c-0.4,1.8-0.2,2.1,1.2,2.1c0.9,0,1.7-0.4,1.7-0.9
		c0-0.7,0.2-0.6,0.5,0.1c0.3,0.7,0.7,0.5,1.5-0.8l1-1.8l1,2.1c0.5,1.1,0.7,2.3,0.4,2.6c-0.3,0.3-3.2,0.6-6.5,0.8
		c-5.4,0.2-6.2,0.1-9.8-2c-3.6-2.1-6.2-2.4-6.2-0.8c0,0.3,1,1.2,2.2,1.8l2.2,1.2l-2.9-0.5c-2.8-0.5-7.6-2.7-9.7-4.6
		c-0.6-0.6-1.8-1-2.7-1c-1.7,0-2.1,1.5-0.8,2.7c0.5,0.5-0.7,0.9-3.4,1c-2.3,0.1-4.5,0.4-4.9,0.6c-2.7,1.6,3.9,4.3,8.7,3.7l3.3-0.4
		l-2.3,1.2c-1.3,0.8-2.2,1.7-2,2.5c0.4,1.8,3.9,1.2,6.2-1.1c1.1-1.1,2.5-1.8,3.3-1.6c1.2,0.3,1,0.5-0.7,1.2
		c-2.7,1.1-3.6,2.3-1.9,2.9c0.7,0.2,1.1,0.9,0.9,1.4c-0.2,0.5,0.2,1.2,0.8,1.4c0.7,0.3,1.2,0.2,1.2-0.2c0-0.7,2.6-1.7,4.6-1.9
		c0.6,0,1.8-0.7,2.7-1.5c0.9-0.8,1.7-1.2,1.7-0.9c0,0.8-1.8,2.4-3.9,3.4c-1,0.4-1.8,1.2-1.8,1.6c0,1.5,2.6,1.7,4.1,0.4
		c1.5-1.2,1.5-1.2,1.1,0.3c-0.6,2.1,1,1.9,2.7-0.4c1.1-1.4,1.6-1.6,2.1-0.9c0.6,0.8,0.8,0.8,1.4,0c0.3-0.5,1.4-0.9,2.2-0.8
		c3.3,0.3,7.7-2.4,7.8-4.9c0.1-1.4,0.2-1.3,0.7,0.3c0.5,1.6,0.1,2.3-2.3,4.3c-1.6,1.4-5.2,3.6-8,4.9l-5.1,2.4l-3.9-1.8
		c-2.2-1-4.4-1.9-5-2c-1.5-0.3-1.3,1.2,0.4,3c1.3,1.4,1.3,1.4,0,0.5c-0.8-0.6-1.7-0.8-2.1-0.6c-0.4,0.2-1.7-0.1-3-0.7
		c-3-1.5-4-1.4-3.4,0.2c0.4,1,0,1.3-2,1.2c-1.4,0-2.7-0.3-2.9-0.5c-1-0.9-3.6,0.5-3.6,1.9c0,1.2,0.4,1.4,1.7,1.1
		c1.7-0.4,1.7-0.4,0.3,1c-1.4,1.5-1.2,1.7,1.9,1.5c1.4-0.1,1.7,0.2,1.3,1.2c-0.5,1-0.2,1.2,1.5,0.9s2-0.1,1.7,1
		c-0.5,1.5,0.1,1.7,2.1,0.7s4.5,2.1,2.9,3.5c-1,0.8-1.2,0.8-1.6-0.1c-0.2-0.6-1.7-1-3.3-1.1c-1.5,0-2.6,0.2-2.4,0.6
		c0.2,0.4-0.3,0.5-1.2,0.3c-2.1-0.5-2.1,0.6-0.1,1.8c1,0.6,1.4,1.4,1.1,2.8c-0.5,2.4-0.6,2.4-3.6,0.1c-1.3-1.1-3-1.9-3.6-1.9
		c-1.4,0-1.5,0.4-0.4,2.2c0.8,1.5,0.3,1.5-5.9,0.4c-2.1-0.3-3.1-0.2-3.1,0.3c0,0.9,4.3,3.1,6.2,3.1c1.2,0,1.2,0.2,0.4,1.1
		c-0.8,0.9-0.8,1.2,0.2,1.5c0.6,0.3,1.5,0.4,1.9,0.3c1.7-0.3,2.8,0.1,2.6,1c-0.2,0.6,0.6,0.9,2,0.9c1.8,0,2.3,0.3,2.3,1.5
		c0,1.5,0.1,1.5,1.6-0.2c1.3-1.4,1.6-1.5,1.6-0.5c0,0.7,0.3,1.1,0.8,0.8c0.4-0.2,1.2,0.4,1.6,1.5s1.3,2.2,2,2.4
		c0.7,0.3,1.3,0.9,1.3,1.5c0,0.6,0.6,1.1,1.3,1.1c0.8,0,1.8,0.6,2.4,1.3c1,1.2,1.2,1.2,3-0.2l1.9-1.5l-1.5,1.6
		c-0.9,0.9-3.7,2-7.1,2.8c-7.2,1.6-9,1.6-11.9-0.2c-2.7-1.6-4-1.3-3.3,0.8c0.4,1.2,0.1,1.5-1.8,1.5c-1.3,0-2.7-0.4-3.2-0.8
		c-0.5-0.5-1.3-0.4-2.4,0.3c-1.6,1-1.5,1.1,1,2.4c1.9,1,2.5,1.7,2.2,2.7c-0.3,0.9-0.1,1.3,0.6,1.2c2.3-0.2,3.3,0.1,2.8,1.2
		c-0.8,1.8,2.2,2.7,4.5,1.3c1.5-0.9,1.7-0.9,1-0.1c-1.4,1.6,0,3.2,2.1,2.6c3.1-0.9,3.9,0.6,0.9,1.6c-3.9,1.3-7.7,1.2-9.2-0.1
		c-1.6-1.5-4.1-1.5-3.5,0c0.4,1-0.2,1.1-3.2,0.7c-4.4-0.6-5,0.7-0.9,2c2,0.6,2.7,1.3,2.4,2.2c-0.5,1.6,2.1,2.4,4.1,1.4
		c1.1-0.5,1.4-0.3,1.4,1.2s0.3,1.8,1.8,1.4c1.4-0.3,1.7-0.2,1.2,0.9c-0.4,1.1-0.2,1.3,1.1,1c0.9-0.2,1.7-0.1,1.7,0.3
		c0,1.3,1.7,0.6,3.9-1.5c2.6-2.5,4.2-3.1,6.1-2.2c2.3,1.1,1.7,2-1,1.6c-2.8-0.4-3.2,0.7-1.2,3.4c1.2,1.6,1.2,1.7-0.3,1.7
		c-0.9,0-2.2,0.5-2.9,1.1c-0.7,0.6-1.8,1.1-2.5,1.1c-0.7,0-1.4,0.3-1.7,0.7c-0.3,0.4-2,0.7-3.7,0.7s-3.6,0.3-4.2,0.6
		c-0.6,0.3-2.3,0.5-3.7,0.4c-2.2-0.1-2.7,0.2-2.9,1.6c-0.2,1.2-0.8,1.7-2.3,1.8c-1.2,0.1-2.5,0.2-2.9,0.3c-0.4,0.1-1.4,0.1-2.2,0
		c-0.8-0.1-1.4,0.1-1.4,0.5c0,1,4.6,3.2,6.6,3.2c1.8,0,1.8,0,0.4,1.5c-1.4,1.5-1.4,1.5,0.7,1.5c1.6,0,2.1,0.3,1.7,1.2
		c-0.4,1,0,1.1,1.9,0.7c1.3-0.3,2.6-0.5,2.8-0.5c2.6,0,3.2,0.3,2.8,1.2c-0.8,2,1.3,2,2.5-0.1c1.2-2,1.3-2,1.3-0.4
		c0.1,1,0.4,1.8,0.7,1.8c5,0.7,5.8,0.4,6.8-1.8l1-2.3l0.7,1.8l0.7,1.8l1.6-1.9c1.6-1.9,1.6-1.9,1.6-0.2c0,2.3,1.5,2.1,2.1-0.2
		c0.3-1.1,0.9-1.9,1.3-1.9s0.5,0.3,0.2,0.8c-0.4,0.6,0.2,0.7,2.1,0.3c1.9-0.4,2.6-0.3,2.3,0.4c-0.6,1.4-5.7,3.7-8.2,3.7
		c-1.2,0-2.4,0.4-2.6,0.9c-0.3,0.6-1.9,0.9-4.2,0.9c-2.1,0-3.8,0.2-3.8,0.5c0,1.5,2.9,3,5.1,2.8c1.4-0.2,2.5,0,2.6,0.4
		c0.2,1.3-4.6,2-16.2,2.4c-13.1,0.5-18.4,1-18.4,1.8c0,0.3-0.9,0.4-2,0.2c-1.1-0.2-2-0.1-2,0.4c0,1.1,2.6,2.4,4.8,2.4
		c0.9,0,1.7,0.4,1.7,0.8c0,0.5-0.4,0.8-0.9,0.8s-1.7,0.7-2.7,1.6l-1.8,1.6l2.7-0.3c1.8-0.2,2.7,0,2.7,0.6c0,0.5,0.6,0.7,1.6,0.5
		c0.9-0.3,1.6-0.1,1.6,0.4c0,1.2,2.1,1,3.3-0.3c0.5-0.6,1.3-1.1,1.8-1.1c0.4,0,0.2,0.6-0.5,1.4c-0.8,0.8-1.4,1.6-1.4,1.9
		c0,0.8,3.1,0.6,3.7-0.2c0.9-1.2,1.9-0.8,2.5,0.8c0.6,1.9,1.5,1.9,4.5,0l2.4-1.6l-0.5,2.3c-0.6,2.9,0.9,3.1,4.2,0.7
		c2.2-1.6,2.3-1.6,1.4-0.1c-1,1.8-0.5,2.6,1.2,2c0.7-0.2,1.7,0,2.4,0.5c0.8,0.7,1.2,0.7,1.2,0.1c0-0.4,0.6-0.8,1.2-0.8
		c0.6,0,1.2,0.5,1.2,1.1c0,0.7,0.7,1,2.2,0.8c8.5-0.9-2.5,3.6-12.4,5.1c-6.4,0.9-7.1,0.9-9.2-0.4c-1.3-0.8-2.7-1.4-3.3-1.4
		c-1.7,0-1.2,1.5,0.8,2.3c1.4,0.5,0.9,0.6-1.8,0.2c-2-0.3-4.6-0.5-5.7-0.4c-1.1,0-3.9-0.4-6.1-1c-2.2-0.5-4.2-0.9-4.3-0.8
		c-0.9,0.8,4.4,3.9,7.3,4.3l3.5,0.5l-3.1,0.1c-2.2,0-3.1,0.4-3.1,1.2c0,0.6,0.6,1.1,1.4,1.2c0.7,0.1,1.7,0.2,2.2,0.3s1.4,0.3,2,0.3
		c0.9,0.1,0.8,0.4-0.4,1.2c-2,1.3-1.1,2.3,1.2,1.2c1.4-0.7,1.7-0.6,1.7,0.4s0.6,1.2,2.7,0.9c1.5-0.2,3.4-0.6,4.3-0.9
		c1.6-0.6,1.6-0.6,0,0.6c-1.6,1.2-1.3,1.4,1.4,1.2c0.8,0,1.4,0.4,1.4,1.1c0,1.6,0.7,1.5,2.6-0.5l1.7-1.7l-1.3,2
		c-0.7,1.1-1.3,2.4-1.3,2.8c0,1.1,4,0.3,5.9-1.3c1.6-1.4,1.6-1.3,1,0.5c-0.9,2.6-1.9,3.1-9.4,5.2c-6.2,1.8-6.6,1.8-10,0.6
		c-3.7-1.3-8.8-1.6-8.8-0.6c0,0.3,0.5,1,1,1.5c0.7,0.6-0.4,0.5-3.3-0.3c-2.4-0.7-4.9-1-5.6-0.8c-1.1,0.4-1,0.7,0.6,2.3l1.9,1.8
		l-2.8-0.7c-3.5-0.9-7.9-0.9-8.5,0c-0.7,0.9,4.8,3,8,3h2.6l-2.4,1.8c-2.4,1.7-2.4,4,0,3.2c0.7-0.2,1.1,0.2,1.1,1.5
		c0,1.4,0.5,1.9,1.6,1.9c0.8,0,2.1,0.5,2.8,1.1c1,1,1.5,1,2.9,0.2c0.9-0.5,1.7-1.2,1.7-1.5c0-0.3,0.7,0.1,1.5,0.8
		c1.6,1.4,2,3.2,0.8,3.2c-0.4,0-0.5,0.3-0.2,0.8c0.4,0.5-0.2,0.7-2,0.3c-1.7-0.3-2.6-0.2-2.6,0.3c0,0.4-1.6,0.8-3.7,0.8
		c-3.9,0-4.6,0.7-2.5,2.3c0.8,0.6,2.5,0.8,5.1,0.5l3.9-0.4l-3,1.5c-2.2,1.1-2.9,1.9-2.6,2.7c0.3,0.8,1,1,1.8,0.7s1.9-0.6,2.6-0.7
		c0.7-0.1,0.8-0.1,0.2,0.1c-2.1,0.7-1,1.9,1.2,1.4c1.6-0.3,1.9-0.2,1,0.3c-2.2,1.4-0.3,1.7,2.3,0.5c1.4-0.7,2.5-0.9,2.5-0.5
		c0,0.4-0.4,0.9-1,1.1s-0.8,0.7-0.4,1c0.4,0.3,1.7,0.3,3-0.2c1.9-0.7,2.3-0.7,1.9,0.2c-0.3,0.7,0,0.9,1.1,0.5
		c1.3-0.4,1.4-0.3,0.5,0.6c-0.9,0.8-3.7,1-12.9,0.9c-7.1-0.1-11.8,0.2-11.8,0.6c0,0.4,0.6,0.7,1.3,0.7s1.8,0.5,2.4,1.1
		c1,0.9,1,1.1-0.1,1.5c-0.7,0.2-2.5,0.4-3.9,0.4c-3,0-5,1-4.3,2.1c0.9,1.3,4.9,1.6,8.3,0.5c4.5-1.4,4.7-1.3,2.4,0.8
		c-2.9,2.6-2.7,4.2,0.4,3.4c1.4-0.3,2.8-0.8,3.3-1.1c0.4-0.3,0.8,0.2,0.9,0.9c0,0.7,0.2,1.7,0.2,2.2s0.3,1.1,0.6,1.4
		c0.7,0.6,5.6-2,5.6-2.9c0-0.4,0.4-0.4,0.8-0.2c0.5,0.2,0.5,1.1,0,2.3c-0.5,1.1-0.8,2.3-0.8,2.7c0,1,3.8-1.5,7.7-5.1
		c2.9-2.6,3.3-2.2,0.6,0.7c-0.7,0.7-1,1.9-0.7,2.6c0.5,1.2,0.7,1.1,2.6-0.5l2.1-1.8l-0.3,1.9c-0.2,1.8-0.8,2-6.8,2.9
		c-4.2,0.7-7,0.8-7.8,0.3c-2-1.2-6.5-1.8-6.5-1c0,0.4,0.6,0.9,1.4,1.1c0.7,0.2-0.5,0.2-2.7,0c-3.3-0.3-3.9-0.2-3.1,0.6
		c1.6,1.5,1.2,2-1,1.6c-2.6-0.5-6.3,0.4-5.7,1.3c0.3,0.4,1.4,0.7,2.4,0.7c3.4,0,3,1-1.3,2.6c-7.2,2.7-5.7,4.7,1.8,2.3
		c3.8-1.2,5.3-1,2.5,0.4c-1,0.4-1.7,1.4-1.7,2c0,0.9,0.5,1.1,2.2,0.7c1.9-0.4,2.1-0.4,1.1,0.7c-2.2,2.4,0.2,2.4,3.8,0
		c1.7-1.2,1.8-1.2,1.3,0.5c-0.4,1.6-0.3,1.6,0.9,0.7c1.2-0.9,1.3-0.9,0.8,0.4c-0.5,1.2-0.3,1.2,1.5-0.3c2.1-1.7,3.4-1.6,2.6,0.3
		c-0.7,1.5,1.3,1.3,4.4-0.4c1.5-0.9,2.7-1.2,2.7-0.7c0,0.6,0.8,0.7,2.2,0.4c1.5-0.3,1.8-0.3,1,0.2c-0.7,0.3-3.2,1-5.7,1.5
		c-5.4,1.1-7,1.9-6.2,3.1c0.6,0.8,1.7,0.7,6.6-0.5c1.3-0.3,1,0.2-1,2c-1.5,1.3-2.7,2.5-2.7,2.7c0,0.7,4.6-0.2,7.2-1.5
		c2.9-1.4,3.3-1,1.4,1.3c-1.7,2-1.5,2.9,0.4,2.4c1-0.2,1.6,0,1.6,0.7c0,1.4,0.8,1.3,2.7-0.3c1.5-1.2,1.6-1.2,1.3,0.2
		c-0.5,2.3,4.1,1.6,6.5-1l1.9-2l-0.5,2.4c-0.7,3.2,1.3,3.3,4.5,0.2c1.3-1.3,2.4-2.3,2.6-2.3c0.1,0,0.3,0.8,0.4,1.9
		c0.2,2.9,1.5,3.7,3.2,1.9c1.3-1.5,1.5-1.5,2.5-0.3c1,1.1,1.1,1.1,1.6-0.4c0.3-0.9,0.9-1.4,1.6-1.2c0.7,0.3,1.3-0.3,1.7-1.6
		c0.4-1.4,0.8-1.8,1.2-1.1c0.4,0.5,1.5,1.1,2.4,1.2c1.3,0.2,2.1-0.5,3.5-3.1c1.8-3.4,3.7-4.7,2.7-1.9c-0.6,1.8-0.1,1.9,2.5,0.3
		c1.1-0.6,2-1.9,2.1-2.8c0.1-1.3,0.2-1.4,0.5-0.3c0.6,2.2,1.9,0.7,1.9-2.3c0-2.3,0.1-2.6,0.8-1.5c0.4,0.7,1.6,1.3,2.5,1.3l16.3,3.8
		c0.4-0.1,1.4,0.8,2.2,2c1.5,2.4,3.3,3.2,2.5,1.2c-0.9-2.3,0.6-1,1.7,1.4c0.9,1.9,1.6,2.5,3.1,2.4c1.1,0,2.5,0.3,3.1,0.7
		c0.5,0.4,0.9,0.5,1.2,0.3V239.1C171.1,238.5,170.6,237.8,170.6,237.2z M169.1,167.9c0.8,0,1.1,0.4,0.7,0.8c-0.6,1-2,1-2,0
		C167.8,168.2,168.4,167.9,169.1,167.9z M139.6,151.5c-0.8-0.9-1.9-1.6-2.5-1.6c-1,0-3.2-2.9-2.6-3.4c0.1-0.1,0.3-0.1,0.5-0.1
		c1.6,0.1,5.3,2.5,6,4C142,153,141.4,153.5,139.6,151.5z M141.4,144.7c-0.5,0-1.5-2.3-1.9-4.1c-0.2-0.8-0.8-2-1.5-2.7
		c-0.7-0.7-1.2-1.7-1.2-2.3c0-0.2,0.1-0.2,0.2-0.2c0.4,0,1.3,0.7,2.2,1.8c1.7,1.7,2.5,3.3,2.5,5
		C141.7,143.6,141.6,144.7,141.4,144.7z M72.6,328c-0.3,0.5-0.9,0.8-1.3,0.8c-1.2,0-0.9-0.6,0.5-1.1c0.2,0,0.4-0.1,0.5-0.1
		C72.7,327.5,72.8,327.7,72.6,328z M96,367c-1,0-1-0.5,0-1.1c0.1,0,0.2-0.1,0.3-0.1c0.2,0,0.5,0.1,0.5,0.4
		C96.8,366.6,96.4,367,96,367z M99.5,337.5c-1.6,0.7-3.7,1-5.9,0.8c-1.9-0.2-3.2-0.1-3,0.3c0.6,1-0.6,0.8-3.1-0.4
		c-1.3-0.6-2.3-0.7-2.5-0.3c-0.1,0.4-0.9,0.5-1.7,0.2c-1.3-0.5-1.3-0.7,0.4-2.3l1.8-1.8l1.9,1.9l1.8,1.8l1.4-2
		c1.3-1.8,1.5-1.8,2.2-0.6c0.7,1,1,1.1,1.5,0.4c0.5-0.6,0.8-0.4,1.2,0.7c0.6,1.6,2.1,2.3,2.1,0.9c0-0.5,1-0.8,2.2-0.8h2.2
		L99.5,337.5z M104.2,335.7c-1.4,0.4-1.7,0.3-1.1-0.3c0.4-0.4,0.9-0.6,1.5-0.5c0.2,0,0.4,0,0.5,0
		C105.7,335.1,105.3,335.4,104.2,335.7z M123.6,243.8c-3,1.4-4.7,1.8-4.7,1.1c0-0.4,5.6-2.6,6.8-2.6
		C126.2,242.3,125.2,243,123.6,243.8z M131.3,196.5c-1.2,0.5-4.4,1-6.9,1.2c-4,0.4-4.7,0.2-5.5-1.1c-0.5-0.8-0.9-1.9-0.9-2.3
		c0-0.6,0.4-0.9,1-0.8c0.6,0,1.2,0.4,1.8,1c1.6,1.9,4.4,2.1,5.9,0.5c1.3-1.4,3.3-1.4,2.3,0c-0.2,0.4,0.2,0.7,0.8,0.7
		c0.6,0,1.4-0.4,1.7-0.8c0.6-1,2-1,2,0C133.5,195.3,132.5,196.1,131.3,196.5z M136,194.6c-0.4,0.3-0.8,0.1-0.8-0.3
		c0-0.5,0.4-0.8,0.8-0.8s0.8,0.1,0.8,0.3S136.4,194.3,136,194.6z M140.1,193.1c-0.4,0.3-0.8,0.1-0.8-0.3c0-0.5,0.3-0.8,0.8-0.8
		c0.4,0,0.8,0.1,0.8,0.3S140.6,192.8,140.1,193.1z M143.4,191.2c-1,0-1-0.5,0-1.1c0.1,0,0.2-0.1,0.3-0.1c0.3-0.1,0.5,0.1,0.5,0.4
		C144.2,190.8,143.9,191.2,143.4,191.2z M159.8,165.5c0.6,0.3,0.4,0.8-0.6,1.5c-2.1,1.4-2.8,1.3-2.8-0.6c0-0.9,0.1-1.2,0.4-1.2
		c0.2,0,0.5,0.2,0.9,0.7c0.9,0.6,1.2,0.7,1.2,0C158.9,165.4,159.3,165.2,159.8,165.5z M147.6,158.1c0.2-1.5,0.6-1.7,3.3-1.5
		c2.4,0.2,3.1,0,3.1-0.9c0-0.7,0.5-1.2,1.2-1.2c0.6,0,1.2-0.5,1.2-1.1c0-0.5,0.3-0.8,0.9-0.8c0.2,0,0.5,0,0.7,0.2
		c1.4,0.3,1.1,0.8-2.1,3c-2.1,1.4-4.4,2.6-5.3,2.7c-0.8,0.1-1.5,0.4-1.5,0.7c0,0.3-0.4,0.6-0.9,0.6S147.5,159,147.6,158.1z
		 M149.8,164.2c1.1,0.5,2.8,0.7,3.9,0.4c1.1-0.3,2-0.1,2,0.3c0,0.4-0.4,0.8-0.8,0.8c-0.4,0-1.3,0.2-1.9,0.4c-0.6,0.2-2-0.3-3.1-1.2
		l-2-1.6L149.8,164.2z M150.5,194c-0.2,0.7-0.4,0.3-0.4-0.9c0-0.9,0.1-1.5,0.2-1.5c0,0,0.1,0,0.2,0.1
		C150.7,192.3,150.7,193.3,150.5,194z M149.6,186.9c-0.9-0.8-0.6-7,0.3-7c0.5,0,0.8,1.7,0.8,3.8
		C150.7,187.5,150.6,187.8,149.6,186.9z"/>
	<path class="st0" d="M173.4,150.6c0-0.6-0.5-1.1-1.4-1.4v2.5C172.8,151.6,173.4,151.2,173.4,150.6z"/>
	<path class="st0" d="M172,141.7v2C173.4,142.9,173.3,142.1,172,141.7z"/>
	<path class="st0" d="M221.1,271.6v0.9C221.4,272,221.5,271.7,221.1,271.6z"/>
	<path class="st1" d="M157,386.3c-1.1,0.3-0.6,13.9,0.9,17.1c0.9,2,1.3,3.2,0.4,3.9h-20.4c0.3-0.7,1-2,1.8-3.4
		c1.3-2.4,2.2-12.6,2.6-16.5c0.5-5.5-0.4-5.3-0.4-5.3"/>
</g>
<path class="st2" d="M221.1,16.6v5.8c1.5-2,2.5-4,2.6-5.1C223.7,14.9,223.3,14.4,221.1,16.6z"/>
</svg>
